<svg xmlns="http://www.w3.org/2000/svg" xmlns:xlink="http://www.w3.org/1999/xlink" width="100" zoomAndPan="magnify" viewBox="0 0 75 74.999997" height="100" preserveAspectRatio="xMidYMid meet" version="1.0"><defs><clipPath id="id1"><path d="M 8.210938 7.5 L 68 7.5 L 68 67.5 L 8.210938 67.5 Z M 8.210938 7.5 " clip-rule="nonzero"/></clipPath><clipPath id="id2"><path d="M 54.632812 8.941406 C 58.207031 8.941406 61.878906 11.019531 63.980469 14.238281 C 65.035156 15.855469 65.722656 17.71875 66.03125 19.777344 C 66.320312 21.738281 66.238281 23.824219 65.789062 25.8125 C 65.050781 29.078125 63.445312 32.074219 61.746094 35.242188 C 59.691406 39.078125 57.566406 43.042969 57.109375 47.539062 C 56.960938 48.988281 56.992188 50.449219 57.023438 51.863281 C 57.078125 54.421875 57.128906 56.832031 56.152344 58.894531 C 54.84375 61.644531 51.691406 63.65625 46.777344 64.867188 C 43.566406 65.660156 40.378906 66.0625 37.308594 66.0625 C 32.835938 66.0625 28.75 65.214844 25.164062 63.546875 C 20.441406 61.351562 18.125 56.664062 15.671875 51.703125 C 14.796875 49.9375 13.894531 48.109375 12.867188 46.363281 C 10.625 42.566406 9.777344 38.457031 10.480469 34.796875 C 10.851562 32.871094 11.699219 31.046875 12.929688 29.523438 C 14.191406 27.964844 15.777344 26.839844 17.507812 26.273438 C 19.308594 25.679688 21.265625 25.640625 23.339844 25.597656 C 25.144531 25.558594 27.011719 25.519531 28.863281 25.097656 C 34.054688 23.921875 37.863281 20.164062 41.542969 16.53125 C 41.707031 16.371094 41.867188 16.214844 42.027344 16.054688 C 45.628906 12.511719 49.585938 9.199219 54.132812 8.953125 C 54.296875 8.945312 54.464844 8.941406 54.632812 8.941406 M 54.632812 7.5 C 54.441406 7.5 54.246094 7.503906 54.054688 7.515625 C 48.921875 7.789062 44.667969 11.429688 41.011719 15.027344 C 37.355469 18.628906 33.550781 22.554688 28.539062 23.691406 C 24.773438 24.546875 20.722656 23.699219 17.054688 24.902344 C 12.890625 26.269531 9.882812 30.238281 9.0625 34.527344 C 8.238281 38.816406 9.398438 43.324219 11.621094 47.089844 C 15.539062 53.730469 17.585938 61.613281 24.550781 64.851562 C 28.53125 66.703125 32.898438 67.5 37.304688 67.5 C 40.605469 67.5 43.929688 67.050781 47.125 66.265625 C 51.257812 65.242188 55.632812 63.347656 57.457031 59.511719 C 59.171875 55.902344 58.144531 51.652344 58.546875 47.683594 C 59.335938 39.941406 65.484375 33.71875 67.199219 26.128906 C 68.167969 21.84375 67.597656 17.136719 65.191406 13.453125 C 62.890625 9.929688 58.832031 7.5 54.632812 7.5 Z M 54.632812 7.5 " clip-rule="nonzero"/></clipPath></defs><g clip-path="url(#id1)"><g clip-path="url(#id2)"><path fill="#000000" d="M 8.238281 7.5 L 8.238281 67.5 L 68.167969 67.5 L 68.167969 7.5 Z M 8.238281 7.5 " fill-opacity="1" fill-rule="nonzero"/></g></g></svg>