<svg xmlns="http://www.w3.org/2000/svg" xmlns:xlink="http://www.w3.org/1999/xlink" width="100" zoomAndPan="magnify" viewBox="0 0 75 74.999997" height="100" preserveAspectRatio="xMidYMid meet" version="1.0"><path stroke-linecap="butt" transform="matrix(0.000000000000000046, -0.755056, 0.75, 0.000000000000000046, 31.3721, 55.939446)" fill="none" stroke-linejoin="miter" d="M 0.00257786 -0.00134142 L 48.684809 -0.00134142 " stroke="#000000" stroke-width="1" stroke-opacity="1" stroke-miterlimit="4"/><path stroke-linecap="butt" transform="matrix(0.000000000000000046, -0.755162, 0.75, 0.000000000000000046, 43.61839, 55.939446)" fill="none" stroke-linejoin="miter" d="M 0.0025775 -0.00160325 L 47.684801 -0.00160325 " stroke="#000000" stroke-width="1" stroke-opacity="1" stroke-miterlimit="4"/><path stroke-linecap="butt" transform="matrix(0.75, 0, 0, 0.75, 7.751856, 19.430798)" fill="none" stroke-linejoin="miter" d="M -0.00247486 -0.00148095 L 31.997528 -0.00148095 " stroke="#000000" stroke-width="1" stroke-opacity="1" stroke-miterlimit="4"/><path stroke-linecap="butt" transform="matrix(0.75, 0, 0, 0.75, 43.248144, 19.805798)" fill="none" stroke-linejoin="miter" d="M 0.00247418 -0.00148091 L 32.002477 -0.00148091 " stroke="#000000" stroke-width="1" stroke-opacity="1" stroke-miterlimit="4"/><path stroke-linecap="butt" transform="matrix(0.755299, 0, 0, 0.75, 7.500001, 67.499993)" fill="none" stroke-linejoin="miter" d="M -0.00000117503 0.00000868333 L 48.666598 0.00000868333 " stroke="#000000" stroke-width="1" stroke-opacity="1" stroke-miterlimit="4"/><path stroke-linecap="butt" transform="matrix(0.000000000000000045, -0.730223, 0.75, 0.000000000000000046, 8.126302, 19.055242)" fill="none" stroke-linejoin="miter" d="M 0.000758924 -0.00173626 L 15.40701 -0.00173626 " stroke="#000000" stroke-width="1" stroke-opacity="1" stroke-miterlimit="4"/><path stroke-linecap="butt" transform="matrix(0.000000000000000045, -0.731429, 0.75, 0.000000000000000046, 66.749439, 19.805242)" fill="none" stroke-linejoin="miter" d="M 0.00075759 0.000747668 L 16.407009 0.000747668 " stroke="#000000" stroke-width="1" stroke-opacity="1" stroke-miterlimit="4"/><path stroke-linecap="butt" transform="matrix(0.753278, 0, 0, 0.75, 7.751856, 7.874998)" fill="none" stroke-linejoin="miter" d="M -0.00246409 0.00000219083 L 78.664159 0.00000219083 " stroke="#000000" stroke-width="1" stroke-opacity="1" stroke-miterlimit="4"/><path fill="#000000" d="M 18.894531 19.058594 L 20.878906 20.1875 L 20.511719 20.839844 L 18.523438 19.710938 M 21.542969 20.5625 L 23.527344 21.691406 L 23.15625 22.34375 L 21.171875 21.214844 M 24.191406 22.070312 L 26.175781 23.199219 L 25.804688 23.847656 L 23.820312 22.71875 M 26.835938 23.574219 L 28.824219 24.703125 L 28.453125 25.355469 L 26.464844 24.226562 M 29.484375 25.078125 L 31.46875 26.207031 L 31.097656 26.859375 L 29.113281 25.730469 " fill-opacity="1" fill-rule="nonzero"/><path fill="#000000" d="M 43.246094 26.734375 L 45.234375 25.605469 L 45.605469 26.257812 L 43.617188 27.386719 M 45.894531 25.230469 L 47.878906 24.101562 L 48.25 24.753906 L 46.265625 25.882812 M 48.542969 23.726562 L 50.527344 22.597656 L 50.898438 23.25 L 48.914062 24.378906 M 51.191406 22.21875 L 53.175781 21.09375 L 53.546875 21.746094 L 51.5625 22.871094 M 53.839844 20.714844 L 55.824219 19.589844 L 56.195312 20.238281 L 54.207031 21.367188 " fill-opacity="1" fill-rule="nonzero"/><path stroke-linecap="butt" transform="matrix(0.75, 0, 0, 0.75, 42.996288, 67.499993)" fill="none" stroke-linejoin="miter" d="M -0.000259518 0.00000868333 L 31.999743 0.00000868333 " stroke="#000000" stroke-width="1" stroke-opacity="1" stroke-miterlimit="4"/><path stroke-linecap="butt" transform="matrix(0.000000000000000045, -0.731429, 0.75, 0.000000000000000046, 7.874447, 67.499437)" fill="none" stroke-linejoin="miter" d="M -0.000770154 0.000737417 L 16.405481 0.000737417 " stroke="#000000" stroke-width="1" stroke-opacity="1" stroke-miterlimit="4"/><path stroke-linecap="butt" transform="matrix(0.000000000000000045, -0.731429, 0.75, 0.000000000000000046, 66.497588, 67.499437)" fill="none" stroke-linejoin="miter" d="M -0.000770154 -0.00199243 L 16.405481 -0.00199243 " stroke="#000000" stroke-width="1" stroke-opacity="1" stroke-miterlimit="4"/><path stroke-linecap="butt" transform="matrix(0.762295, 0, 0, 0.75, 43.623144, 55.569208)" fill="none" stroke-linejoin="miter" d="M 0.00243431 0.00147258 L 30.502437 0.00147258 " stroke="#000000" stroke-width="1" stroke-opacity="1" stroke-miterlimit="4"/><path stroke-linecap="butt" transform="matrix(0.75405, 0, 0, 0.75, 7.500001, 55.569208)" fill="none" stroke-linejoin="miter" d="M -0.00000117698 0.00147258 L 31.833307 0.00147258 " stroke="#000000" stroke-width="1" stroke-opacity="1" stroke-miterlimit="4"/><path fill="#000000" d="M 56.09375 55.941406 L 54.109375 54.8125 L 54.480469 54.160156 L 56.464844 55.289062 M 53.449219 54.4375 L 51.460938 53.308594 L 51.832031 52.65625 L 53.820312 53.785156 M 50.800781 52.929688 L 48.816406 51.800781 L 49.1875 51.152344 L 51.171875 52.28125 M 48.152344 51.425781 L 46.167969 50.296875 L 46.539062 49.644531 L 48.523438 50.773438 M 45.507812 49.921875 L 43.519531 48.792969 L 43.890625 48.140625 L 45.878906 49.269531 " fill-opacity="1" fill-rule="nonzero"/><path fill="#000000" d="M 31.742188 48.265625 L 29.757812 49.394531 L 29.386719 48.742188 L 31.371094 47.613281 M 29.097656 49.769531 L 27.109375 50.898438 L 26.738281 50.246094 L 28.726562 49.117188 M 26.449219 51.273438 L 24.460938 52.402344 L 24.09375 51.75 L 26.078125 50.621094 M 23.800781 52.78125 L 21.816406 53.90625 L 21.445312 53.253906 L 23.429688 52.128906 M 21.152344 54.285156 L 19.167969 55.410156 L 18.796875 54.761719 L 20.78125 53.632812 " fill-opacity="1" fill-rule="nonzero"/></svg>