<svg xmlns="http://www.w3.org/2000/svg" version="1.1" xmlns:xlink="http://www.w3.org/1999/xlink" xmlns:svgjs="http://svgjs.com/svgjs" width="800" height="300" preserveAspectRatio="none" viewBox="0 0 800 300"><g mask="url(&quot;#SvgjsMask1018&quot;)" fill="none"><rect width="800" height="300" x="0" y="0" fill="rgba(255, 255, 255, 1)"></rect><path d="M-72.9 253.84L-72.9 253.84" stroke="rgba(60, 101, 185, 1)" stroke-width="1.5"></path><path d="M-72.9 253.84L-59.99 369.45" stroke="rgba(60, 101, 185, 1)" stroke-width="1.5"></path><path d="M-72.9 253.84L63.78 236.43" stroke="rgba(60, 101, 185, 1)" stroke-width="1.5"></path><path d="M-72.9 253.84L42.86 336.76" stroke="rgba(60, 101, 185, 1)" stroke-width="1.5"></path><path d="M-72.9 253.84L152.49 251.09" stroke="rgba(60, 101, 185, 1)" stroke-width="1.5"></path><path d="M-72.9 253.84L142.98 361.29" stroke="rgba(60, 101, 185, 1)" stroke-width="1.5"></path><path d="M-59.99 369.45L-59.99 369.45" stroke="rgba(60, 101, 185, 1)" stroke-width="1.5"></path><path d="M-59.99 369.45L42.86 336.76" stroke="rgba(60, 101, 185, 1)" stroke-width="1.5"></path><path d="M-59.99 369.45L63.78 236.43" stroke="rgba(60, 101, 185, 1)" stroke-width="1.5"></path><path d="M63.78 236.43L63.78 236.43" stroke="rgba(60, 101, 185, 1)" stroke-width="1.5"></path><path d="M63.78 236.43L152.49 251.09" stroke="rgba(60, 101, 185, 1)" stroke-width="1.5"></path><path d="M63.78 236.43L42.86 336.76" stroke="rgba(60, 101, 185, 1)" stroke-width="1.5"></path><path d="M63.78 236.43L142.98 361.29" stroke="rgba(60, 101, 185, 1)" stroke-width="1.5"></path><path d="M63.78 236.43L239.37 248.55" stroke="rgba(60, 101, 185, 1)" stroke-width="1.5"></path><path d="M42.86 336.76L42.86 336.76" stroke="rgba(60, 101, 185, 1)" stroke-width="1.5"></path><path d="M42.86 336.76L142.98 361.29" stroke="rgba(60, 101, 185, 1)" stroke-width="1.5"></path><path d="M42.86 336.76L152.49 251.09" stroke="rgba(60, 101, 185, 1)" stroke-width="1.5"></path><path d="M42.86 336.76L245.08 350.34" stroke="rgba(60, 101, 185, 1)" stroke-width="1.5"></path><path d="M152.49 251.09L152.49 251.09" stroke="rgba(60, 101, 185, 1)" stroke-width="1.5"></path><path d="M152.49 251.09L239.37 248.55" stroke="rgba(60, 101, 185, 1)" stroke-width="1.5"></path><path d="M152.49 251.09L142.98 361.29" stroke="rgba(60, 101, 185, 1)" stroke-width="1.5"></path><path d="M152.49 251.09L240.72 167.7" stroke="rgba(60, 101, 185, 1)" stroke-width="1.5"></path><path d="M152.49 251.09L245.08 350.34" stroke="rgba(60, 101, 185, 1)" stroke-width="1.5"></path><path d="M142.98 361.29L142.98 361.29" stroke="rgba(60, 101, 185, 1)" stroke-width="1.5"></path><path d="M142.98 361.29L245.08 350.34" stroke="rgba(60, 101, 185, 1)" stroke-width="1.5"></path><path d="M142.98 361.29L239.37 248.55" stroke="rgba(60, 101, 185, 1)" stroke-width="1.5"></path><path d="M142.98 361.29L337.92 326.21" stroke="rgba(60, 101, 185, 1)" stroke-width="1.5"></path><path d="M240.72 167.7L240.72 167.7" stroke="rgba(60, 101, 185, 1)" stroke-width="1.5"></path><path d="M240.72 167.7L239.37 248.55" stroke="rgba(60, 101, 185, 1)" stroke-width="1.5"></path><path d="M240.72 167.7L347.19 150.03" stroke="rgba(60, 101, 185, 1)" stroke-width="1.5"></path><path d="M239.37 248.55L239.37 248.55" stroke="rgba(60, 101, 185, 1)" stroke-width="1.5"></path><path d="M239.37 248.55L325.56 252.03" stroke="rgba(60, 101, 185, 1)" stroke-width="1.5"></path><path d="M245.08 350.34L245.08 350.34" stroke="rgba(60, 101, 185, 1)" stroke-width="1.5"></path><path d="M245.08 350.34L337.92 326.21" stroke="rgba(60, 101, 185, 1)" stroke-width="1.5"></path><path d="M245.08 350.34L239.37 248.55" stroke="rgba(60, 101, 185, 1)" stroke-width="1.5"></path><path d="M245.08 350.34L325.56 252.03" stroke="rgba(60, 101, 185, 1)" stroke-width="1.5"></path><path d="M347.19 150.03L347.19 150.03" stroke="rgba(60, 101, 185, 1)" stroke-width="1.5"></path><path d="M347.19 150.03L425.56 166.04" stroke="rgba(60, 101, 185, 1)" stroke-width="1.5"></path><path d="M347.19 150.03L325.56 252.03" stroke="rgba(60, 101, 185, 1)" stroke-width="1.5"></path><path d="M347.19 150.03L468.01 68.29" stroke="rgba(60, 101, 185, 1)" stroke-width="1.5"></path><path d="M347.19 150.03L239.37 248.55" stroke="rgba(60, 101, 185, 1)" stroke-width="1.5"></path><path d="M325.56 252.03L325.56 252.03" stroke="rgba(60, 101, 185, 1)" stroke-width="1.5"></path><path d="M325.56 252.03L337.92 326.21" stroke="rgba(60, 101, 185, 1)" stroke-width="1.5"></path><path d="M337.92 326.21L337.92 326.21" stroke="rgba(60, 101, 185, 1)" stroke-width="1.5"></path><path d="M337.92 326.21L441.53 335.26" stroke="rgba(60, 101, 185, 1)" stroke-width="1.5"></path><path d="M337.92 326.21L239.37 248.55" stroke="rgba(60, 101, 185, 1)" stroke-width="1.5"></path><path d="M468.01 68.29L468.01 68.29" stroke="rgba(60, 101, 185, 1)" stroke-width="1.5"></path><path d="M468.01 68.29L531.18 25.39" stroke="rgba(60, 101, 185, 1)" stroke-width="1.5"></path><path d="M468.01 68.29L425.56 166.04" stroke="rgba(60, 101, 185, 1)" stroke-width="1.5"></path><path d="M468.01 68.29L544.72 169.41" stroke="rgba(60, 101, 185, 1)" stroke-width="1.5"></path><path d="M468.01 68.29L557.7 -44.78" stroke="rgba(60, 101, 185, 1)" stroke-width="1.5"></path><path d="M468.01 68.29L635.58 33.89" stroke="rgba(60, 101, 185, 1)" stroke-width="1.5"></path><path d="M425.56 166.04L425.56 166.04" stroke="rgba(60, 101, 185, 1)" stroke-width="1.5"></path><path d="M425.56 166.04L466.32 246.18" stroke="rgba(60, 101, 185, 1)" stroke-width="1.5"></path><path d="M466.32 246.18L466.32 246.18" stroke="rgba(60, 101, 185, 1)" stroke-width="1.5"></path><path d="M466.32 246.18L537.24 249.48" stroke="rgba(60, 101, 185, 1)" stroke-width="1.5"></path><path d="M466.32 246.18L441.53 335.26" stroke="rgba(60, 101, 185, 1)" stroke-width="1.5"></path><path d="M466.32 246.18L544.72 169.41" stroke="rgba(60, 101, 185, 1)" stroke-width="1.5"></path><path d="M441.53 335.26L441.53 335.26" stroke="rgba(60, 101, 185, 1)" stroke-width="1.5"></path><path d="M441.53 335.26L538.32 367.38" stroke="rgba(60, 101, 185, 1)" stroke-width="1.5"></path><path d="M441.53 335.26L537.24 249.48" stroke="rgba(60, 101, 185, 1)" stroke-width="1.5"></path><path d="M441.53 335.26L325.56 252.03" stroke="rgba(60, 101, 185, 1)" stroke-width="1.5"></path><path d="M557.7 -44.78L557.7 -44.78" stroke="rgba(60, 101, 185, 1)" stroke-width="1.5"></path><path d="M557.7 -44.78L531.18 25.39" stroke="rgba(60, 101, 185, 1)" stroke-width="1.5"></path><path d="M557.7 -44.78L635.58 33.89" stroke="rgba(60, 101, 185, 1)" stroke-width="1.5"></path><path d="M557.7 -44.78L727.41 39.39" stroke="rgba(60, 101, 185, 1)" stroke-width="1.5"></path><path d="M557.7 -44.78L767.17 -57.25" stroke="rgba(60, 101, 185, 1)" stroke-width="1.5"></path><path d="M557.7 -44.78L544.72 169.41" stroke="rgba(60, 101, 185, 1)" stroke-width="1.5"></path><path d="M531.18 25.39L531.18 25.39" stroke="rgba(60, 101, 185, 1)" stroke-width="1.5"></path><path d="M531.18 25.39L635.58 33.89" stroke="rgba(60, 101, 185, 1)" stroke-width="1.5"></path><path d="M531.18 25.39L544.72 169.41" stroke="rgba(60, 101, 185, 1)" stroke-width="1.5"></path><path d="M531.18 25.39L425.56 166.04" stroke="rgba(60, 101, 185, 1)" stroke-width="1.5"></path><path d="M544.72 169.41L544.72 169.41" stroke="rgba(60, 101, 185, 1)" stroke-width="1.5"></path><path d="M544.72 169.41L537.24 249.48" stroke="rgba(60, 101, 185, 1)" stroke-width="1.5"></path><path d="M544.72 169.41L425.56 166.04" stroke="rgba(60, 101, 185, 1)" stroke-width="1.5"></path><path d="M537.24 249.48L537.24 249.48" stroke="rgba(60, 101, 185, 1)" stroke-width="1.5"></path><path d="M538.32 367.38L538.32 367.38" stroke="rgba(60, 101, 185, 1)" stroke-width="1.5"></path><path d="M635.58 33.89L635.58 33.89" stroke="rgba(60, 101, 185, 1)" stroke-width="1.5"></path><path d="M635.58 33.89L727.41 39.39" stroke="rgba(60, 101, 185, 1)" stroke-width="1.5"></path><path d="M669.08 152.03L669.08 152.03" stroke="rgba(60, 101, 185, 1)" stroke-width="1.5"></path><path d="M669.08 152.03L732.19 128.38" stroke="rgba(60, 101, 185, 1)" stroke-width="1.5"></path><path d="M669.08 152.03L662.78 227.48" stroke="rgba(60, 101, 185, 1)" stroke-width="1.5"></path><path d="M669.08 152.03L725.2 242.01" stroke="rgba(60, 101, 185, 1)" stroke-width="1.5"></path><path d="M662.78 227.48L662.78 227.48" stroke="rgba(60, 101, 185, 1)" stroke-width="1.5"></path><path d="M662.78 227.48L725.2 242.01" stroke="rgba(60, 101, 185, 1)" stroke-width="1.5"></path><path d="M767.17 -57.25L767.17 -57.25" stroke="rgba(60, 101, 185, 1)" stroke-width="1.5"></path><path d="M767.17 -57.25L727.41 39.39" stroke="rgba(60, 101, 185, 1)" stroke-width="1.5"></path><path d="M767.17 -57.25L839.55 38.2" stroke="rgba(60, 101, 185, 1)" stroke-width="1.5"></path><path d="M767.17 -57.25L635.58 33.89" stroke="rgba(60, 101, 185, 1)" stroke-width="1.5"></path><path d="M767.17 -57.25L732.19 128.38" stroke="rgba(60, 101, 185, 1)" stroke-width="1.5"></path><path d="M767.17 -57.25L669.08 152.03" stroke="rgba(60, 101, 185, 1)" stroke-width="1.5"></path><path d="M727.41 39.39L727.41 39.39" stroke="rgba(60, 101, 185, 1)" stroke-width="1.5"></path><path d="M727.41 39.39L732.19 128.38" stroke="rgba(60, 101, 185, 1)" stroke-width="1.5"></path><path d="M727.41 39.39L839.55 38.2" stroke="rgba(60, 101, 185, 1)" stroke-width="1.5"></path><path d="M732.19 128.38L732.19 128.38" stroke="rgba(60, 101, 185, 1)" stroke-width="1.5"></path><path d="M732.19 128.38L725.2 242.01" stroke="rgba(60, 101, 185, 1)" stroke-width="1.5"></path><path d="M732.19 128.38L662.78 227.48" stroke="rgba(60, 101, 185, 1)" stroke-width="1.5"></path><path d="M732.19 128.38L635.58 33.89" stroke="rgba(60, 101, 185, 1)" stroke-width="1.5"></path><path d="M732.19 128.38L839.55 38.2" stroke="rgba(60, 101, 185, 1)" stroke-width="1.5"></path><path d="M725.2 242.01L725.2 242.01" stroke="rgba(60, 101, 185, 1)" stroke-width="1.5"></path><path d="M839.55 38.2L839.55 38.2" stroke="rgba(60, 101, 185, 1)" stroke-width="1.5"></path><path d="M839.55 38.2L873.99 164.97" stroke="rgba(60, 101, 185, 1)" stroke-width="1.5"></path><path d="M873.99 164.97L873.99 164.97" stroke="rgba(60, 101, 185, 1)" stroke-width="1.5"></path><path d="M873.99 164.97L842.65 266.68" stroke="rgba(60, 101, 185, 1)" stroke-width="1.5"></path><path d="M873.99 164.97L732.19 128.38" stroke="rgba(60, 101, 185, 1)" stroke-width="1.5"></path><path d="M842.65 266.68L842.65 266.68" stroke="rgba(60, 101, 185, 1)" stroke-width="1.5"></path><path d="M842.65 266.68L866.71 329.82" stroke="rgba(60, 101, 185, 1)" stroke-width="1.5"></path><path d="M842.65 266.68L725.2 242.01" stroke="rgba(60, 101, 185, 1)" stroke-width="1.5"></path><path d="M842.65 266.68L732.19 128.38" stroke="rgba(60, 101, 185, 1)" stroke-width="1.5"></path><path d="M866.71 329.82L866.71 329.82" stroke="rgba(60, 101, 185, 1)" stroke-width="1.5"></path><path d="M866.71 329.82L873.99 164.97" stroke="rgba(60, 101, 185, 1)" stroke-width="1.5"></path><path d="M866.71 329.82L725.2 242.01" stroke="rgba(60, 101, 185, 1)" stroke-width="1.5"></path><path d="M866.71 329.82L662.78 227.48" stroke="rgba(60, 101, 185, 1)" stroke-width="1.5"></path><path d="M866.71 329.82L732.19 128.38" stroke="rgba(60, 101, 185, 1)" stroke-width="1.5"></path><circle r="5" cx="-72.9" cy="253.84" fill="rgba(60, 101, 185, 1)"></circle><circle r="5" cx="-59.99" cy="369.45" fill="rgba(60, 101, 185, 1)"></circle><circle r="5" cx="63.78" cy="236.43" fill="rgba(60, 101, 185, 1)"></circle><circle r="5" cx="42.86" cy="336.76" fill="rgba(60, 101, 185, 1)"></circle><circle r="5" cx="152.49" cy="251.09" fill="rgba(60, 101, 185, 1)"></circle><circle r="5" cx="142.98" cy="361.29" fill="rgba(60, 101, 185, 1)"></circle><circle r="5" cx="240.72" cy="167.7" fill="rgba(60, 101, 185, 1)"></circle><circle r="5" cx="239.37" cy="248.55" fill="rgba(60, 101, 185, 1)"></circle><circle r="5" cx="245.08" cy="350.34" fill="rgba(60, 101, 185, 1)"></circle><circle r="5" cx="347.19" cy="150.03" fill="rgba(60, 101, 185, 1)"></circle><circle r="5" cx="325.56" cy="252.03" fill="rgba(60, 101, 185, 1)"></circle><circle r="5" cx="337.92" cy="326.21" fill="rgba(60, 101, 185, 1)"></circle><circle r="5" cx="468.01" cy="68.29" fill="rgba(60, 101, 185, 1)"></circle><circle r="5" cx="425.56" cy="166.04" fill="rgba(60, 101, 185, 1)"></circle><circle r="5" cx="466.32" cy="246.18" fill="rgba(60, 101, 185, 1)"></circle><circle r="5" cx="441.53" cy="335.26" fill="rgba(60, 101, 185, 1)"></circle><circle r="5" cx="557.7" cy="-44.78" fill="rgba(60, 101, 185, 1)"></circle><circle r="5" cx="531.18" cy="25.39" fill="rgba(60, 101, 185, 1)"></circle><circle r="5" cx="544.72" cy="169.41" fill="rgba(60, 101, 185, 1)"></circle><circle r="5" cx="537.24" cy="249.48" fill="rgba(60, 101, 185, 1)"></circle><circle r="5" cx="538.32" cy="367.38" fill="rgba(60, 101, 185, 1)"></circle><circle r="5" cx="635.58" cy="33.89" fill="rgba(60, 101, 185, 1)"></circle><circle r="5" cx="669.08" cy="152.03" fill="rgba(60, 101, 185, 1)"></circle><circle r="5" cx="662.78" cy="227.48" fill="rgba(60, 101, 185, 1)"></circle><circle r="5" cx="767.17" cy="-57.25" fill="rgba(60, 101, 185, 1)"></circle><circle r="5" cx="727.41" cy="39.39" fill="rgba(60, 101, 185, 1)"></circle><circle r="5" cx="732.19" cy="128.38" fill="rgba(60, 101, 185, 1)"></circle><circle r="5" cx="725.2" cy="242.01" fill="rgba(60, 101, 185, 1)"></circle><circle r="5" cx="839.55" cy="38.2" fill="rgba(60, 101, 185, 1)"></circle><circle r="5" cx="873.99" cy="164.97" fill="rgba(60, 101, 185, 1)"></circle><circle r="5" cx="842.65" cy="266.68" fill="rgba(60, 101, 185, 1)"></circle><circle r="5" cx="866.71" cy="329.82" fill="rgba(60, 101, 185, 1)"></circle><path d="M-40.98 340.69L-40.98 340.69" stroke="hsl(228.5, 77.2%, 51.5%)" stroke-width="1.5"></path><path d="M-40.98 340.69L-45.24 270.01" stroke="hsl(228.5, 77.2%, 51.5%)" stroke-width="1.5"></path><path d="M-40.98 340.69L36.25 329.49" stroke="hsl(228.5, 77.2%, 51.5%)" stroke-width="1.5"></path><path d="M-40.98 340.69L30.87 261.19" stroke="hsl(228.5, 77.2%, 51.5%)" stroke-width="1.5"></path><path d="M-40.98 340.69L125.33 365.67" stroke="hsl(228.5, 77.2%, 51.5%)" stroke-width="1.5"></path><path d="M-40.98 340.69L145.92 271.41" stroke="hsl(228.5, 77.2%, 51.5%)" stroke-width="1.5"></path><path d="M725.83 29.05L725.83 29.05" stroke="hsl(228.5, 77.2%, 51.5%)" stroke-width="1.5"></path><path d="M725.83 29.05L655.78 -28.22" stroke="hsl(228.5, 77.2%, 51.5%)" stroke-width="1.5"></path><path d="M725.83 29.05L639.91 74.65" stroke="hsl(228.5, 77.2%, 51.5%)" stroke-width="1.5"></path><path d="M725.83 29.05L836.08 25.52" stroke="hsl(228.5, 77.2%, 51.5%)" stroke-width="1.5"></path><path d="M725.83 29.05L774.26 -71.73" stroke="hsl(228.5, 77.2%, 51.5%)" stroke-width="1.5"></path><path d="M725.83 29.05L728.72 165.33" stroke="hsl(228.5, 77.2%, 51.5%)" stroke-width="1.5"></path><path d="M725.83 29.05L659.6 169.22" stroke="hsl(228.5, 77.2%, 51.5%)" stroke-width="1.5"></path><path d="M836.08 25.52L836.08 25.52" stroke="hsl(228.5, 77.2%, 51.5%)" stroke-width="1.5"></path><path d="M836.08 25.52L867.03 132.13" stroke="hsl(228.5, 77.2%, 51.5%)" stroke-width="1.5"></path><path d="M-45.24 270.01L-45.24 270.01" stroke="hsl(228.5, 77.2%, 51.5%)" stroke-width="1.5"></path><path d="M-45.24 270.01L30.87 261.19" stroke="hsl(228.5, 77.2%, 51.5%)" stroke-width="1.5"></path><path d="M-45.24 270.01L36.25 329.49" stroke="hsl(228.5, 77.2%, 51.5%)" stroke-width="1.5"></path><path d="M30.87 261.19L30.87 261.19" stroke="hsl(228.5, 77.2%, 51.5%)" stroke-width="1.5"></path><path d="M30.87 261.19L36.25 329.49" stroke="hsl(228.5, 77.2%, 51.5%)" stroke-width="1.5"></path><path d="M30.87 261.19L145.92 271.41" stroke="hsl(228.5, 77.2%, 51.5%)" stroke-width="1.5"></path><path d="M30.87 261.19L125.33 365.67" stroke="hsl(228.5, 77.2%, 51.5%)" stroke-width="1.5"></path><path d="M36.25 329.49L36.25 329.49" stroke="hsl(228.5, 77.2%, 51.5%)" stroke-width="1.5"></path><path d="M145.92 271.41L145.92 271.41" stroke="hsl(228.5, 77.2%, 51.5%)" stroke-width="1.5"></path><path d="M145.92 271.41L234.56 256.69" stroke="hsl(228.5, 77.2%, 51.5%)" stroke-width="1.5"></path><path d="M145.92 271.41L125.33 365.67" stroke="hsl(228.5, 77.2%, 51.5%)" stroke-width="1.5"></path><path d="M125.33 365.67L125.33 365.67" stroke="hsl(228.5, 77.2%, 51.5%)" stroke-width="1.5"></path><path d="M125.33 365.67L36.25 329.49" stroke="hsl(228.5, 77.2%, 51.5%)" stroke-width="1.5"></path><path d="M125.33 365.67L230.92 366.09" stroke="hsl(228.5, 77.2%, 51.5%)" stroke-width="1.5"></path><path d="M125.33 365.67L234.56 256.69" stroke="hsl(228.5, 77.2%, 51.5%)" stroke-width="1.5"></path><path d="M234.56 256.69L234.56 256.69" stroke="hsl(228.5, 77.2%, 51.5%)" stroke-width="1.5"></path><path d="M234.56 256.69L230.92 366.09" stroke="hsl(228.5, 77.2%, 51.5%)" stroke-width="1.5"></path><path d="M234.56 256.69L353.37 252.66" stroke="hsl(228.5, 77.2%, 51.5%)" stroke-width="1.5"></path><path d="M234.56 256.69L374.56 336.02" stroke="hsl(228.5, 77.2%, 51.5%)" stroke-width="1.5"></path><path d="M230.92 366.09L230.92 366.09" stroke="hsl(228.5, 77.2%, 51.5%)" stroke-width="1.5"></path><path d="M230.92 366.09L145.92 271.41" stroke="hsl(228.5, 77.2%, 51.5%)" stroke-width="1.5"></path><path d="M230.92 366.09L374.56 336.02" stroke="hsl(228.5, 77.2%, 51.5%)" stroke-width="1.5"></path><path d="M353.37 252.66L353.37 252.66" stroke="hsl(228.5, 77.2%, 51.5%)" stroke-width="1.5"></path><path d="M353.37 252.66L429.42 266.12" stroke="hsl(228.5, 77.2%, 51.5%)" stroke-width="1.5"></path><path d="M353.37 252.66L374.56 336.02" stroke="hsl(228.5, 77.2%, 51.5%)" stroke-width="1.5"></path><path d="M374.56 336.02L374.56 336.02" stroke="hsl(228.5, 77.2%, 51.5%)" stroke-width="1.5"></path><path d="M374.56 336.02L429.42 266.12" stroke="hsl(228.5, 77.2%, 51.5%)" stroke-width="1.5"></path><path d="M374.56 336.02L468.01 345.29" stroke="hsl(228.5, 77.2%, 51.5%)" stroke-width="1.5"></path><path d="M429.42 266.12L429.42 266.12" stroke="hsl(228.5, 77.2%, 51.5%)" stroke-width="1.5"></path><path d="M429.42 266.12L468.01 345.29" stroke="hsl(228.5, 77.2%, 51.5%)" stroke-width="1.5"></path><path d="M468.01 345.29L468.01 345.29" stroke="hsl(228.5, 77.2%, 51.5%)" stroke-width="1.5"></path><path d="M468.01 345.29L563.35 348.58" stroke="hsl(228.5, 77.2%, 51.5%)" stroke-width="1.5"></path><path d="M468.01 345.29L528.13 235.03" stroke="hsl(228.5, 77.2%, 51.5%)" stroke-width="1.5"></path><path d="M569.07 157.42L569.07 157.42" stroke="hsl(228.5, 77.2%, 51.5%)" stroke-width="1.5"></path><path d="M569.07 157.42L528.13 235.03" stroke="hsl(228.5, 77.2%, 51.5%)" stroke-width="1.5"></path><path d="M569.07 157.42L659.6 169.22" stroke="hsl(228.5, 77.2%, 51.5%)" stroke-width="1.5"></path><path d="M528.13 235.03L528.13 235.03" stroke="hsl(228.5, 77.2%, 51.5%)" stroke-width="1.5"></path><path d="M528.13 235.03L429.42 266.12" stroke="hsl(228.5, 77.2%, 51.5%)" stroke-width="1.5"></path><path d="M528.13 235.03L563.35 348.58" stroke="hsl(228.5, 77.2%, 51.5%)" stroke-width="1.5"></path><path d="M528.13 235.03L651.6 226.3" stroke="hsl(228.5, 77.2%, 51.5%)" stroke-width="1.5"></path><path d="M528.13 235.03L659.6 169.22" stroke="hsl(228.5, 77.2%, 51.5%)" stroke-width="1.5"></path><path d="M563.35 348.58L563.35 348.58" stroke="hsl(228.5, 77.2%, 51.5%)" stroke-width="1.5"></path><path d="M563.35 348.58L643.1 370.86" stroke="hsl(228.5, 77.2%, 51.5%)" stroke-width="1.5"></path><path d="M655.78 -28.22L655.78 -28.22" stroke="hsl(228.5, 77.2%, 51.5%)" stroke-width="1.5"></path><path d="M655.78 -28.22L639.91 74.65" stroke="hsl(228.5, 77.2%, 51.5%)" stroke-width="1.5"></path><path d="M639.91 74.65L639.91 74.65" stroke="hsl(228.5, 77.2%, 51.5%)" stroke-width="1.5"></path><path d="M639.91 74.65L659.6 169.22" stroke="hsl(228.5, 77.2%, 51.5%)" stroke-width="1.5"></path><path d="M659.6 169.22L659.6 169.22" stroke="hsl(228.5, 77.2%, 51.5%)" stroke-width="1.5"></path><path d="M659.6 169.22L651.6 226.3" stroke="hsl(228.5, 77.2%, 51.5%)" stroke-width="1.5"></path><path d="M659.6 169.22L728.72 165.33" stroke="hsl(228.5, 77.2%, 51.5%)" stroke-width="1.5"></path><path d="M659.6 169.22L725.96 237.97" stroke="hsl(228.5, 77.2%, 51.5%)" stroke-width="1.5"></path><path d="M651.6 226.3L651.6 226.3" stroke="hsl(228.5, 77.2%, 51.5%)" stroke-width="1.5"></path><path d="M651.6 226.3L725.96 237.97" stroke="hsl(228.5, 77.2%, 51.5%)" stroke-width="1.5"></path><path d="M651.6 226.3L728.72 165.33" stroke="hsl(228.5, 77.2%, 51.5%)" stroke-width="1.5"></path><path d="M651.6 226.3L569.07 157.42" stroke="hsl(228.5, 77.2%, 51.5%)" stroke-width="1.5"></path><path d="M651.6 226.3L643.1 370.86" stroke="hsl(228.5, 77.2%, 51.5%)" stroke-width="1.5"></path><path d="M643.1 370.86L643.1 370.86" stroke="hsl(228.5, 77.2%, 51.5%)" stroke-width="1.5"></path><path d="M774.26 -71.73L774.26 -71.73" stroke="hsl(228.5, 77.2%, 51.5%)" stroke-width="1.5"></path><path d="M774.26 -71.73L836.08 25.52" stroke="hsl(228.5, 77.2%, 51.5%)" stroke-width="1.5"></path><path d="M774.26 -71.73L655.78 -28.22" stroke="hsl(228.5, 77.2%, 51.5%)" stroke-width="1.5"></path><path d="M728.72 165.33L728.72 165.33" stroke="hsl(228.5, 77.2%, 51.5%)" stroke-width="1.5"></path><path d="M728.72 165.33L725.96 237.97" stroke="hsl(228.5, 77.2%, 51.5%)" stroke-width="1.5"></path><path d="M728.72 165.33L639.91 74.65" stroke="hsl(228.5, 77.2%, 51.5%)" stroke-width="1.5"></path><path d="M725.96 237.97L725.96 237.97" stroke="hsl(228.5, 77.2%, 51.5%)" stroke-width="1.5"></path><path d="M734.45 359.13L734.45 359.13" stroke="hsl(228.5, 77.2%, 51.5%)" stroke-width="1.5"></path><path d="M734.45 359.13L643.1 370.86" stroke="hsl(228.5, 77.2%, 51.5%)" stroke-width="1.5"></path><path d="M734.45 359.13L725.96 237.97" stroke="hsl(228.5, 77.2%, 51.5%)" stroke-width="1.5"></path><path d="M734.45 359.13L856.42 336.05" stroke="hsl(228.5, 77.2%, 51.5%)" stroke-width="1.5"></path><path d="M734.45 359.13L651.6 226.3" stroke="hsl(228.5, 77.2%, 51.5%)" stroke-width="1.5"></path><path d="M734.45 359.13L563.35 348.58" stroke="hsl(228.5, 77.2%, 51.5%)" stroke-width="1.5"></path><path d="M867.03 132.13L867.03 132.13" stroke="hsl(228.5, 77.2%, 51.5%)" stroke-width="1.5"></path><path d="M867.03 132.13L865.55 234.71" stroke="hsl(228.5, 77.2%, 51.5%)" stroke-width="1.5"></path><path d="M865.55 234.71L865.55 234.71" stroke="hsl(228.5, 77.2%, 51.5%)" stroke-width="1.5"></path><path d="M865.55 234.71L856.42 336.05" stroke="hsl(228.5, 77.2%, 51.5%)" stroke-width="1.5"></path><path d="M865.55 234.71L725.96 237.97" stroke="hsl(228.5, 77.2%, 51.5%)" stroke-width="1.5"></path><path d="M865.55 234.71L728.72 165.33" stroke="hsl(228.5, 77.2%, 51.5%)" stroke-width="1.5"></path><path d="M865.55 234.71L734.45 359.13" stroke="hsl(228.5, 77.2%, 51.5%)" stroke-width="1.5"></path><path d="M856.42 336.05L856.42 336.05" stroke="hsl(228.5, 77.2%, 51.5%)" stroke-width="1.5"></path><circle r="25" cx="-40.98" cy="340.69" fill="url(#SvgjsRadialGradient1019)"></circle><circle r="25" cx="725.83" cy="29.05" fill="url(#SvgjsRadialGradient1019)"></circle><circle r="25" cx="836.08" cy="25.52" fill="url(#SvgjsRadialGradient1019)"></circle><circle r="5" cx="-45.24" cy="270.01" fill="#8b9ad9"></circle><circle r="5" cx="30.87" cy="261.19" fill="#8b9ad9"></circle><circle r="5" cx="36.25" cy="329.49" fill="#8b9ad9"></circle><circle r="5" cx="145.92" cy="271.41" fill="#8b9ad9"></circle><circle r="5" cx="125.33" cy="365.67" fill="#8b9ad9"></circle><circle r="5" cx="234.56" cy="256.69" fill="#8b9ad9"></circle><circle r="5" cx="230.92" cy="366.09" fill="#8b9ad9"></circle><circle r="5" cx="353.37" cy="252.66" fill="#8b9ad9"></circle><circle r="5" cx="374.56" cy="336.02" fill="#8b9ad9"></circle><circle r="5" cx="429.42" cy="266.12" fill="#8b9ad9"></circle><circle r="5" cx="468.01" cy="345.29" fill="#8b9ad9"></circle><circle r="5" cx="569.07" cy="157.42" fill="#8b9ad9"></circle><circle r="5" cx="528.13" cy="235.03" fill="#8b9ad9"></circle><circle r="5" cx="563.35" cy="348.58" fill="#8b9ad9"></circle><circle r="5" cx="655.78" cy="-28.22" fill="#8b9ad9"></circle><circle r="5" cx="639.91" cy="74.65" fill="#8b9ad9"></circle><circle r="5" cx="659.6" cy="169.22" fill="#8b9ad9"></circle><circle r="5" cx="651.6" cy="226.3" fill="#8b9ad9"></circle><circle r="5" cx="643.1" cy="370.86" fill="#8b9ad9"></circle><circle r="5" cx="774.26" cy="-71.73" fill="#8b9ad9"></circle><circle r="5" cx="728.72" cy="165.33" fill="#8b9ad9"></circle><circle r="5" cx="725.96" cy="237.97" fill="#8b9ad9"></circle><circle r="5" cx="734.45" cy="359.13" fill="#8b9ad9"></circle><circle r="5" cx="867.03" cy="132.13" fill="#8b9ad9"></circle><circle r="5" cx="865.55" cy="234.71" fill="#8b9ad9"></circle><circle r="5" cx="856.42" cy="336.05" fill="#8b9ad9"></circle></g><defs><mask id="SvgjsMask1018"><rect width="800" height="300" fill="#ffffff"></rect></mask><radialGradient id="SvgjsRadialGradient1019"><stop stop-color="#ffffff" offset="0.1"></stop><stop stop-color="#1735b3" offset="0.2"></stop><stop stop-color="rgba(23, 53, 179, 0)" offset="1"></stop></radialGradient></defs></svg>