<svg xmlns="http://www.w3.org/2000/svg" xmlns:xlink="http://www.w3.org/1999/xlink" width="300" zoomAndPan="magnify" viewBox="0 0 224.87999 74.999997" height="100" preserveAspectRatio="xMidYMid meet" version="1.0"><defs><g/><clipPath id="id1"><path d="M 7.839844 10.585938 L 26.578125 10.585938 L 26.578125 27.078125 L 7.839844 27.078125 Z M 7.839844 10.585938 " clip-rule="nonzero"/></clipPath><clipPath id="id2"><path d="M 202.222656 10.585938 L 220.960938 10.585938 L 220.960938 27.078125 L 202.222656 27.078125 Z M 202.222656 10.585938 " clip-rule="nonzero"/></clipPath><clipPath id="id3"><path d="M 197 25 L 224.761719 25 L 224.761719 28 L 197 28 Z M 197 25 " clip-rule="nonzero"/></clipPath><clipPath id="id4"><path d="M 197 29 L 224.761719 29 L 224.761719 32 L 197 32 Z M 197 29 " clip-rule="nonzero"/></clipPath></defs><g clip-path="url(#id1)"><path fill="#000000" d="M 17.210938 10.585938 L 26.578125 27.078125 L 7.839844 27.078125 L 17.210938 10.585938 " fill-opacity="1" fill-rule="nonzero"/></g><path stroke-linecap="butt" transform="matrix(1.071817, -1.071817, 1.060094, 1.060094, -0.750267, 31.817831)" fill="none" stroke-linejoin="miter" d="M 0.000789145 -0.000545899 L 4.948212 0.00129651 " stroke="#000000" stroke-width="1" stroke-opacity="1" stroke-miterlimit="4"/><path stroke-linecap="butt" transform="matrix(1.071817, -1.071817, 1.060094, 1.060094, 2.892593, 31.817831)" fill="none" stroke-linejoin="miter" d="M 0.00156858 0.000242154 L 4.94717 0.000242154 " stroke="#000000" stroke-width="1" stroke-opacity="1" stroke-miterlimit="4"/><path stroke-linecap="butt" transform="matrix(1.071817, -1.071817, 1.060094, 1.060094, 6.535455, 31.817831)" fill="none" stroke-linejoin="miter" d="M 0.000525375 -0.000812586 L 4.947949 0.00102982 " stroke="#000000" stroke-width="1" stroke-opacity="1" stroke-miterlimit="4"/><path stroke-linecap="butt" transform="matrix(1.071817, -1.071817, 1.060094, 1.060094, 10.178315, 31.817831)" fill="none" stroke-linejoin="miter" d="M 0.00130503 -0.000024307 L 4.946906 -0.000024307 " stroke="#000000" stroke-width="1" stroke-opacity="1" stroke-miterlimit="4"/><path stroke-linecap="butt" transform="matrix(1.071817, -1.071817, 1.060094, 1.060094, 13.821175, 31.817831)" fill="none" stroke-linejoin="miter" d="M 0.000262098 -0.00107877 L 4.947685 0.000763632 " stroke="#000000" stroke-width="1" stroke-opacity="1" stroke-miterlimit="4"/><path stroke-linecap="butt" transform="matrix(1.071817, -1.071817, 1.060094, 1.060094, 17.464035, 31.817831)" fill="none" stroke-linejoin="miter" d="M 0.00104175 -0.000290496 L 4.948465 0.00155191 " stroke="#000000" stroke-width="1" stroke-opacity="1" stroke-miterlimit="4"/><path stroke-linecap="butt" transform="matrix(1.489763, 0, 0, 1.4992, 2.893261, 26.573612)" fill="none" stroke-linejoin="miter" d="M 0.000852911 0.000404479 L 18.625355 0.000404479 " stroke="#000000" stroke-width="1" stroke-opacity="1" stroke-miterlimit="4"/><path stroke-linecap="butt" transform="matrix(1.071817, -1.071817, 1.060094, 1.060094, 20.780911, 31.817831)" fill="none" stroke-linejoin="miter" d="M 0.000822911 -0.000511759 L 4.948246 0.00133065 " stroke="#000000" stroke-width="1" stroke-opacity="1" stroke-miterlimit="4"/><path stroke-linecap="butt" transform="matrix(1.071817, -1.071817, 1.060094, 1.060094, 24.749757, 31.817831)" fill="none" stroke-linejoin="miter" d="M 0.000778029 -0.000557138 L 4.948201 0.00128527 " stroke="#000000" stroke-width="1" stroke-opacity="1" stroke-miterlimit="4"/><g clip-path="url(#id2)"><path fill="#000000" d="M 211.589844 10.585938 L 220.960938 27.078125 L 202.222656 27.078125 L 211.589844 10.585938 " fill-opacity="1" fill-rule="nonzero"/></g><g clip-path="url(#id3)"><path stroke-linecap="butt" transform="matrix(1.50121, 0, 0, 1.4992, 197.924631, 26.573612)" fill="none" stroke-linejoin="miter" d="M 0.000766341 0.000404479 L 17.47885 0.000404479 " stroke="#000000" stroke-width="1" stroke-opacity="1" stroke-miterlimit="4"/></g><g clip-path="url(#id4)"><path stroke-linecap="butt" transform="matrix(1.50121, 0, 0, 1.4992, 197.924631, 30.347506)" fill="none" stroke-linejoin="miter" d="M 0.000766341 0.000100239 L 17.47885 0.000100239 " stroke="#000000" stroke-width="1" stroke-opacity="1" stroke-miterlimit="4"/></g><path stroke-linecap="butt" transform="matrix(1.49965, 0, 0, 1.58593, 16.696714, 11.377993)" fill="none" stroke-linejoin="miter" d="M -0.000934828 0.000575971 L 129.961645 0.000575971 " stroke="#000000" stroke-width="1" stroke-opacity="1" stroke-miterlimit="4"/><path stroke-linecap="butt" transform="matrix(1.49893, 0, 0, 1.4992, 16.645066, 60.137288)" fill="none" stroke-linejoin="miter" d="M -0.000356848 -0.000379651 L 130.029924 -0.000379651 " stroke="#000000" stroke-width="1" stroke-opacity="1" stroke-miterlimit="4"/><path stroke-linecap="butt" transform="matrix(1.071817, -1.071817, 1.060094, 1.060094, 14.361338, 62.538992)" fill="none" stroke-linejoin="miter" d="M 0.000873348 0.00094977 L 4.948297 -0.000892637 " stroke="#000000" stroke-width="1" stroke-opacity="1" stroke-miterlimit="4"/><path stroke-linecap="butt" transform="matrix(1.071817, -1.071817, 1.060094, 1.060094, 208.18431, 63.250174)" fill="none" stroke-linejoin="miter" d="M -0.000253245 -0.000419958 L 4.948992 -0.000419958 " stroke="#000000" stroke-width="1" stroke-opacity="1" stroke-miterlimit="4"/><g fill="#01367d" fill-opacity="1"><g transform="translate(101.998026, 72.561941)"><g><path d="M 5.65625 -8.125 L 7.390625 -8.125 L 4.625 0 L 2.75 0 L 0 -8.125 L 1.734375 -8.125 L 3.265625 -3.28125 C 3.347656 -3 3.4375 -2.664062 3.53125 -2.28125 C 3.625 -1.90625 3.679688 -1.644531 3.703125 -1.5 C 3.742188 -1.84375 3.878906 -2.4375 4.109375 -3.28125 Z M 5.65625 -8.125 "/></g></g></g><g fill="#01367d" fill-opacity="1"><g transform="translate(109.38606, 72.561941)"><g><path d="M 4.828125 0 L 4.5 -0.84375 L 4.453125 -0.84375 C 4.171875 -0.488281 3.878906 -0.238281 3.578125 -0.09375 C 3.273438 0.0390625 2.882812 0.109375 2.40625 0.109375 C 1.800781 0.109375 1.328125 -0.0546875 0.984375 -0.390625 C 0.648438 -0.734375 0.484375 -1.222656 0.484375 -1.859375 C 0.484375 -2.515625 0.710938 -3 1.171875 -3.3125 C 1.628906 -3.625 2.320312 -3.796875 3.25 -3.828125 L 4.328125 -3.859375 L 4.328125 -4.140625 C 4.328125 -4.765625 4.003906 -5.078125 3.359375 -5.078125 C 2.867188 -5.078125 2.285156 -4.925781 1.609375 -4.625 L 1.0625 -5.78125 C 1.769531 -6.15625 2.5625 -6.34375 3.4375 -6.34375 C 4.269531 -6.34375 4.90625 -6.160156 5.34375 -5.796875 C 5.789062 -5.429688 6.015625 -4.878906 6.015625 -4.140625 L 6.015625 0 Z M 4.328125 -2.875 L 3.671875 -2.859375 C 3.179688 -2.835938 2.816406 -2.742188 2.578125 -2.578125 C 2.335938 -2.421875 2.21875 -2.175781 2.21875 -1.84375 C 2.21875 -1.363281 2.488281 -1.125 3.03125 -1.125 C 3.425781 -1.125 3.738281 -1.238281 3.96875 -1.46875 C 4.207031 -1.695312 4.328125 -1.992188 4.328125 -2.359375 Z M 2.53125 -7.46875 C 2.414062 -7.46875 2.304688 -7.421875 2.203125 -7.328125 C 2.097656 -7.234375 2.023438 -7.082031 1.984375 -6.875 L 1.15625 -6.875 C 1.1875 -7.414062 1.332031 -7.835938 1.59375 -8.140625 C 1.863281 -8.441406 2.21875 -8.59375 2.65625 -8.59375 C 2.8125 -8.59375 2.960938 -8.5625 3.109375 -8.5 C 3.253906 -8.445312 3.394531 -8.382812 3.53125 -8.3125 C 3.675781 -8.238281 3.816406 -8.171875 3.953125 -8.109375 C 4.097656 -8.046875 4.234375 -8.015625 4.359375 -8.015625 C 4.472656 -8.015625 4.582031 -8.0625 4.6875 -8.15625 C 4.800781 -8.257812 4.878906 -8.410156 4.921875 -8.609375 L 5.75 -8.609375 C 5.707031 -8.066406 5.550781 -7.644531 5.28125 -7.34375 C 5.019531 -7.039062 4.675781 -6.890625 4.25 -6.890625 C 4.09375 -6.890625 3.941406 -6.921875 3.796875 -6.984375 C 3.648438 -7.046875 3.503906 -7.113281 3.359375 -7.1875 C 3.222656 -7.257812 3.082031 -7.320312 2.9375 -7.375 C 2.800781 -7.4375 2.664062 -7.46875 2.53125 -7.46875 Z M 2.53125 -7.46875 "/></g></g></g><g fill="#01367d" fill-opacity="1"><g transform="translate(116.252325, 72.561941)"><g><path d="M 2.234375 -3.109375 C 2.234375 -2.492188 2.332031 -2.03125 2.53125 -1.71875 C 2.738281 -1.40625 3.070312 -1.25 3.53125 -1.25 C 3.976562 -1.25 4.300781 -1.40625 4.5 -1.71875 C 4.695312 -2.03125 4.796875 -2.492188 4.796875 -3.109375 C 4.796875 -3.722656 4.695312 -4.179688 4.5 -4.484375 C 4.300781 -4.796875 3.972656 -4.953125 3.515625 -4.953125 C 3.066406 -4.953125 2.738281 -4.800781 2.53125 -4.5 C 2.332031 -4.195312 2.234375 -3.734375 2.234375 -3.109375 Z M 6.53125 -3.109375 C 6.53125 -2.097656 6.265625 -1.304688 5.734375 -0.734375 C 5.203125 -0.171875 4.457031 0.109375 3.5 0.109375 C 2.90625 0.109375 2.378906 -0.0195312 1.921875 -0.28125 C 1.472656 -0.539062 1.125 -0.914062 0.875 -1.40625 C 0.632812 -1.894531 0.515625 -2.460938 0.515625 -3.109375 C 0.515625 -4.128906 0.773438 -4.921875 1.296875 -5.484375 C 1.828125 -6.046875 2.570312 -6.328125 3.53125 -6.328125 C 4.132812 -6.328125 4.660156 -6.195312 5.109375 -5.9375 C 5.566406 -5.675781 5.914062 -5.300781 6.15625 -4.8125 C 6.40625 -4.332031 6.53125 -3.765625 6.53125 -3.109375 Z M 6.53125 -3.109375 "/></g></g></g><g fill="#01367d" fill-opacity="1"><g transform="translate(123.289235, 72.561941)"><g/></g></g><path stroke-linecap="butt" transform="matrix(0.000000000000000093, -1.515779, 1.4992, 0.000000000000000092, 16.021763, 46.089068)" fill="none" stroke-linejoin="miter" d="M -0.000511839 0.00111669 L 4.94744 0.00111669 " stroke="#000000" stroke-width="1" stroke-opacity="1" stroke-miterlimit="4"/><path stroke-linecap="butt" transform="matrix(1.500875, 0.000000000000000115, -0.000000000000000077, 0.999467, 16.645066, 41.752139)" fill="none" stroke-linejoin="miter" d="M -0.000356385 0.00176784 L 32.215227 0.00176784 " stroke="#000000" stroke-width="1" stroke-opacity="1" stroke-miterlimit="4"/><path stroke-linecap="round" transform="matrix(1.500875, 0.000000000000000115, -0.000000000000000077, 0.999467, 69.123889, 41.752139)" fill-opacity="1" fill="#000000" fill-rule="nonzero" stroke-linejoin="round" d="M -2.500405 -1.499033 L -0.498968 0.00176784 L -2.500405 1.49866 Z M -2.500405 -1.499033 " stroke="#000000" stroke-width="1" stroke-opacity="1" stroke-miterlimit="4"/><g fill="#01367d" fill-opacity="1"><g transform="translate(39.149452, 54.876724)"><g><path d="M 7.59375 0 L 5.625 0 L 3.734375 -3.078125 L 1.84375 0 L 0 0 L 2.6875 -4.1875 L 0.171875 -8.125 L 2.078125 -8.125 L 3.828125 -5.203125 L 5.53125 -8.125 L 7.390625 -8.125 L 4.84375 -4.09375 Z M 7.59375 0 "/></g></g></g></svg>