<svg xmlns="http://www.w3.org/2000/svg" xmlns:xlink="http://www.w3.org/1999/xlink" width="300" zoomAndPan="magnify" viewBox="0 0 224.87999 225" height="300" preserveAspectRatio="xMidYMid meet" version="1.0"><defs><g/><clipPath id="id1"><path d="M 0 0.0585938 L 224.761719 0.0585938 L 224.761719 224.9375 L 0 224.9375 Z M 0 0.0585938 " clip-rule="nonzero"/></clipPath><clipPath id="id2"><path d="M 91.351562 46.605469 L 134.078125 46.605469 L 134.078125 199.523438 L 91.351562 199.523438 Z M 91.351562 46.605469 " clip-rule="nonzero"/></clipPath><clipPath id="id3"><path d="M 88.84375 25.113281 L 136.066406 25.113281 L 136.066406 202.769531 L 88.84375 202.769531 Z M 88.84375 25.113281 " clip-rule="nonzero"/></clipPath><clipPath id="id4"><path d="M 88.84375 25.121094 L 136.066406 25.121094 L 136.066406 202.761719 L 88.84375 202.761719 Z M 88.84375 25.121094 " clip-rule="nonzero"/></clipPath><clipPath id="id5"><path d="M 36.109375 163.464844 L 189.777344 163.464844 L 189.777344 203.195312 L 36.109375 203.195312 Z M 36.109375 163.464844 " clip-rule="nonzero"/></clipPath><clipPath id="id6"><path d="M 36.113281 163.464844 L 189.769531 163.464844 L 189.769531 203.195312 L 36.113281 203.195312 Z M 36.113281 163.464844 " clip-rule="nonzero"/></clipPath><clipPath id="id7"><path d="M 35.761719 21.84375 L 189.429688 21.84375 L 189.429688 61.574219 L 35.761719 61.574219 Z M 35.761719 21.84375 " clip-rule="nonzero"/></clipPath><clipPath id="id8"><path d="M 35.765625 21.84375 L 189.421875 21.84375 L 189.421875 61.574219 L 35.765625 61.574219 Z M 35.765625 21.84375 " clip-rule="nonzero"/></clipPath><clipPath id="id9"><path d="M 91.351562 51.796875 L 133.332031 51.796875 L 133.332031 188.972656 L 91.351562 188.972656 Z M 91.351562 51.796875 " clip-rule="nonzero"/></clipPath><clipPath id="id10"><path d="M 184 73 L 224.761719 73 L 224.761719 83 L 184 83 Z M 184 73 " clip-rule="nonzero"/></clipPath><clipPath id="id11"><path d="M 184 72 L 224.761719 72 L 224.761719 83 L 184 83 Z M 184 72 " clip-rule="nonzero"/></clipPath><clipPath id="id12"><path d="M 106 0.0585938 L 115 0.0585938 L 115 12 L 106 12 Z M 106 0.0585938 " clip-rule="nonzero"/></clipPath></defs><g clip-path="url(#id1)"><path fill="#ffffff" d="M 0 0.0585938 L 224.878906 0.0585938 L 224.878906 232.4375 L 0 232.4375 Z M 0 0.0585938 " fill-opacity="1" fill-rule="nonzero"/><path fill="#ffffff" d="M 0 0.0585938 L 224.878906 0.0585938 L 224.878906 224.941406 L 0 224.941406 Z M 0 0.0585938 " fill-opacity="1" fill-rule="nonzero"/><path fill="#ffffff" d="M 0 0.0585938 L 224.878906 0.0585938 L 224.878906 224.941406 L 0 224.941406 Z M 0 0.0585938 " fill-opacity="1" fill-rule="nonzero"/><path fill="#ffffff" d="M 0 0.0585938 L 224.878906 0.0585938 L 224.878906 224.941406 L 0 224.941406 Z M 0 0.0585938 " fill-opacity="1" fill-rule="nonzero"/></g><g clip-path="url(#id2)"><path fill="#ffffff" d="M 91.355469 46.605469 L 134.078125 46.605469 L 134.078125 199.523438 L 91.355469 199.523438 L 91.355469 46.605469 " fill-opacity="1" fill-rule="nonzero"/></g><g clip-path="url(#id3)"><path fill="#ffffff" d="M 88.84375 25.121094 L 136.066406 25.121094 L 136.066406 202.761719 L 88.84375 202.761719 L 88.84375 25.121094 " fill-opacity="1" fill-rule="nonzero"/></g><g clip-path="url(#id4)"><path stroke-linecap="butt" transform="matrix(0.750158, 0, 0, 0.750986, 88.842064, 25.121472)" fill="none" stroke-linejoin="miter" d="M 0.00224776 -0.000504193 L 62.952518 -0.000504193 L 62.952518 236.542615 L 0.00224776 236.542615 L 0.00224776 -0.000504193 " stroke="#000000" stroke-width="8" stroke-opacity="1" stroke-miterlimit="4"/></g><g clip-path="url(#id5)"><path fill="#ffffff" d="M 36.113281 203.195312 L 36.113281 163.464844 L 189.769531 163.464844 L 189.769531 203.195312 L 36.113281 203.195312 " fill-opacity="1" fill-rule="nonzero"/></g><g clip-path="url(#id6)"><path stroke-linecap="butt" transform="matrix(0.000000000000000046, -0.745425, 0.751146, 0.000000000000000046, 36.113884, 203.19337)" fill="none" stroke-linejoin="miter" d="M -0.00260605 -0.00080227 L 53.296512 -0.00080227 L 53.296512 204.561683 L -0.00260605 204.561683 L -0.00260605 -0.00080227 " stroke="#000000" stroke-width="6" stroke-opacity="1" stroke-miterlimit="4"/></g><g clip-path="url(#id7)"><path fill="#ffffff" d="M 35.765625 61.574219 L 35.765625 21.84375 L 189.421875 21.84375 L 189.421875 61.574219 L 35.765625 61.574219 " fill-opacity="1" fill-rule="nonzero"/></g><g clip-path="url(#id8)"><path stroke-linecap="butt" transform="matrix(0.000000000000000046, -0.745425, 0.751146, 0.000000000000000046, 35.767172, 61.5725)" fill="none" stroke-linejoin="miter" d="M -0.00230583 -0.00205946 L 53.296812 -0.00205946 L 53.296812 204.560426 L -0.00230583 204.560426 L -0.00230583 -0.00205946 " stroke="#000000" stroke-width="6" stroke-opacity="1" stroke-miterlimit="4"/></g><path fill="#000000" d="M 57.585938 60.652344 L 59.613281 61.589844 L 59.296875 62.269531 L 57.269531 61.332031 M 60.289062 61.902344 L 62.316406 62.839844 L 62 63.519531 L 59.972656 62.582031 M 62.988281 63.152344 L 65.015625 64.089844 L 64.703125 64.769531 L 62.675781 63.832031 M 65.691406 64.402344 L 67.71875 65.339844 L 67.402344 66.019531 L 65.378906 65.082031 M 68.394531 65.652344 L 70.421875 66.589844 L 70.105469 67.269531 L 68.078125 66.332031 M 71.09375 66.902344 L 73.121094 67.839844 L 72.808594 68.519531 L 70.78125 67.582031 M 73.796875 68.152344 L 75.824219 69.089844 L 75.507812 69.773438 L 73.484375 68.832031 M 76.5 69.402344 L 78.527344 70.339844 L 78.210938 71.023438 L 76.183594 70.085938 M 79.203125 70.652344 L 81.226562 71.59375 L 80.914062 72.273438 L 78.886719 71.335938 M 81.902344 71.90625 L 83.929688 72.84375 L 83.613281 73.523438 L 81.589844 72.585938 M 84.605469 73.15625 L 86.632812 74.09375 L 86.316406 74.773438 L 84.289062 73.835938 M 87.308594 74.40625 L 88.878906 75.132812 L 88.566406 75.8125 L 86.992188 75.085938 " fill-opacity="1" fill-rule="nonzero"/><path fill="#000000" d="M 136.039062 75.234375 L 138.066406 74.300781 L 138.378906 74.980469 L 136.351562 75.917969 M 138.742188 73.988281 L 140.769531 73.054688 L 141.082031 73.734375 L 139.054688 74.667969 M 141.445312 72.742188 L 143.472656 71.808594 L 143.785156 72.488281 L 141.757812 73.421875 M 144.148438 71.496094 L 146.175781 70.5625 L 146.488281 71.242188 L 144.460938 72.175781 M 146.851562 70.25 L 148.878906 69.3125 L 149.195312 69.996094 L 147.167969 70.929688 M 149.554688 69.003906 L 151.582031 68.066406 L 151.898438 68.75 L 149.871094 69.683594 M 152.257812 67.757812 L 154.289062 66.820312 L 154.601562 67.5 L 152.574219 68.4375 M 154.964844 66.507812 L 156.992188 65.574219 L 157.304688 66.253906 L 155.277344 67.191406 M 157.667969 65.261719 L 159.695312 64.328125 L 160.007812 65.007812 L 157.980469 65.945312 M 160.371094 64.015625 L 162.398438 63.082031 L 162.710938 63.761719 L 160.683594 64.695312 M 163.074219 62.769531 L 165.101562 61.835938 L 165.414062 62.515625 L 163.386719 63.449219 M 165.777344 61.523438 L 167.351562 60.796875 L 167.667969 61.476562 L 166.089844 62.203125 " fill-opacity="1" fill-rule="nonzero"/><path stroke-linecap="butt" transform="matrix(0.000000000000000046, -0.7496, 0.7496, 0.000000000000000046, 15.32171, 202.451998)" fill="none" stroke-linejoin="miter" d="M -0.00150405 -0.00186457 L 240.001518 -0.00186457 " stroke="#000000" stroke-width="1" stroke-opacity="1" stroke-miterlimit="4"/><path stroke-linecap="butt" transform="matrix(0.550103, -0.550103, 0.530047, 0.530047, 12.643674, 24.846265)" fill="none" stroke-linejoin="miter" d="M -0.000485135 0.00212107 L 8.683968 0.00212107 " stroke="#000000" stroke-width="1" stroke-opacity="1" stroke-miterlimit="4"/><path stroke-linecap="butt" transform="matrix(0.550103, -0.550103, 0.530047, 0.530047, 13.393274, 204.750254)" fill="none" stroke-linejoin="miter" d="M 0.00137395 0.000946409 L 8.685827 0.000946409 " stroke="#000000" stroke-width="1" stroke-opacity="1" stroke-miterlimit="4"/><path stroke-linecap="butt" transform="matrix(0.000000000000000046, -0.745425, 0.7496, 0.000000000000000046, 196.557416, 62.502289)" fill="none" stroke-linejoin="miter" d="M -0.00216917 0.00157157 L 53.302189 0.00157157 " stroke="#000000" stroke-width="1" stroke-opacity="1" stroke-miterlimit="4"/><path stroke-linecap="butt" transform="matrix(0.550103, -0.550103, 0.530047, 0.530047, 193.882325, 24.846265)" fill="none" stroke-linejoin="miter" d="M -0.000821342 0.00177214 L 8.683632 0.00177214 " stroke="#000000" stroke-width="1" stroke-opacity="1" stroke-miterlimit="4"/><path stroke-linecap="butt" transform="matrix(0.550103, -0.550103, 0.530047, 0.530047, 194.631925, 64.803482)" fill="none" stroke-linejoin="miter" d="M -0.000289038 0.00197446 L 8.684164 0.00197446 " stroke="#000000" stroke-width="1" stroke-opacity="1" stroke-miterlimit="4"/><path stroke-linecap="butt" transform="matrix(0.000000000000000045, -0.738636, 0.7496, 0.000000000000000046, 172.326174, 75.141621)" fill="none" stroke-linejoin="miter" d="M 0.00134875 0.00260217 L 20.309056 0.00260217 " stroke="#03989e" stroke-width="1" stroke-opacity="1" stroke-miterlimit="4"/><path stroke-linecap="butt" transform="matrix(0.550103, -0.550103, 0.530047, 0.530047, 169.65224, 62.221241)" fill="none" stroke-linejoin="miter" d="M -0.00119206 0.00143308 L 8.683261 0.00143308 " stroke="#03989e" stroke-width="1" stroke-opacity="1" stroke-miterlimit="4"/><path stroke-linecap="butt" transform="matrix(0.550103, -0.550103, 0.530047, 0.530047, 170.40184, 77.486938)" fill="none" stroke-linejoin="miter" d="M -0.000762594 0.00174214 L 8.68369 0.00174214 " stroke="#03989e" stroke-width="1" stroke-opacity="1" stroke-miterlimit="4"/><path stroke-linecap="butt" transform="matrix(0.747653, 0, 0, 0.7496, 135.251254, 85.34022)" fill="none" stroke-linejoin="miter" d="M -0.00167758 -0.000501666 L 42.114499 -0.000501666 " stroke="#03989e" stroke-width="1" stroke-opacity="1" stroke-miterlimit="4"/><path stroke-linecap="butt" transform="matrix(0.550103, -0.550103, 0.530047, 0.530047, 132.94802, 87.263676)" fill="none" stroke-linejoin="miter" d="M -0.000681784 0.00296862 L 8.687322 -0.000716198 " stroke="#03989e" stroke-width="1" stroke-opacity="1" stroke-miterlimit="4"/><path stroke-linecap="butt" transform="matrix(0.550103, -0.550103, 0.530047, 0.530047, 164.518651, 88.013276)" fill="none" stroke-linejoin="miter" d="M 0.00221591 -0.000638903 L 8.686669 -0.000638903 " stroke="#03989e" stroke-width="1" stroke-opacity="1" stroke-miterlimit="4"/><path stroke-linecap="butt" transform="matrix(0.749021, 0.00184335, -0.00184477, 0.749598, 38.325614, 15.108825)" fill="none" stroke-linejoin="miter" d="M -0.00186044 0.000738645 L 203.169564 0.00138328 " stroke="#000000" stroke-width="1" stroke-opacity="1" stroke-miterlimit="4"/><path stroke-linecap="butt" transform="matrix(0.550103, -0.550103, 0.530047, 0.530047, 36.022373, 17.032266)" fill="none" stroke-linejoin="miter" d="M 0.0018913 0.0000459901 L 8.686344 0.0000459901 " stroke="#000000" stroke-width="1" stroke-opacity="1" stroke-miterlimit="4"/><path stroke-linecap="butt" transform="matrix(0.550103, -0.550103, 0.530047, 0.530047, 188.317146, 17.781866)" fill="none" stroke-linejoin="miter" d="M -0.000112838 -0.00127921 L 8.68434 -0.00127921 " stroke="#000000" stroke-width="1" stroke-opacity="1" stroke-miterlimit="4"/><g clip-path="url(#id9)"><path stroke-linecap="butt" transform="matrix(0.747098, 0, 0, 0.748386, 91.352799, 51.796635)" fill-opacity="1" fill="#ffffff" fill-rule="nonzero" stroke-linejoin="miter" d="M -0.00165512 0.00032076 L 56.189692 0.00032076 L 56.189692 183.295852 L -0.00165512 183.295852 L -0.00165512 0.00032076 " stroke="#ffffff" stroke-width="8" stroke-opacity="1" stroke-miterlimit="4"/></g><path stroke-linecap="butt" transform="matrix(0.750158, 0, 0, 0.7496, 88.842064, 122.662736)" fill="none" stroke-linejoin="miter" d="M 0.00224776 0.00176985 L 62.962939 0.00176985 " stroke="#000000" stroke-width="1" stroke-opacity="1" stroke-miterlimit="4"/><path stroke-linecap="butt" transform="matrix(0.550103, -0.550103, 0.530047, 0.530047, 87.28843, 124.211378)" fill="none" stroke-linejoin="miter" d="M 0.000975541 0.000181203 L 8.685428 0.000181203 " stroke="#000000" stroke-width="1" stroke-opacity="1" stroke-miterlimit="4"/><path stroke-linecap="butt" transform="matrix(0.550103, -0.550103, 0.530047, 0.530047, 133.734676, 124.960978)" fill="none" stroke-linejoin="miter" d="M -0.000236425 -0.00032185 L 8.684217 -0.00032185 " stroke="#000000" stroke-width="1" stroke-opacity="1" stroke-miterlimit="4"/><g fill="#000000" fill-opacity="0.4"><g transform="translate(3.628508, 118.365602)"><g><path d="M 5.796875 0 L 5.796875 -4.21875 C 5.796875 -5.257812 5.488281 -5.78125 4.875 -5.78125 C 4.4375 -5.78125 4.113281 -5.59375 3.90625 -5.21875 C 3.695312 -4.851562 3.59375 -4.25 3.59375 -3.40625 L 3.59375 0 L 0.921875 0 L 0.921875 -10.625 L 3.59375 -10.625 L 3.59375 -9.109375 C 3.59375 -8.429688 3.554688 -7.65625 3.484375 -6.78125 L 3.609375 -6.78125 C 3.859375 -7.175781 4.160156 -7.457031 4.515625 -7.625 C 4.867188 -7.789062 5.273438 -7.875 5.734375 -7.875 C 6.597656 -7.875 7.269531 -7.625 7.75 -7.125 C 8.226562 -6.625 8.46875 -5.925781 8.46875 -5.03125 L 8.46875 0 Z M 5.796875 0 "/></g></g></g><g fill="#000000" fill-opacity="1"><g transform="translate(3.010112, 117.747205)"><g><path d="M 5.796875 0 L 5.796875 -4.21875 C 5.796875 -5.257812 5.488281 -5.78125 4.875 -5.78125 C 4.4375 -5.78125 4.113281 -5.59375 3.90625 -5.21875 C 3.695312 -4.851562 3.59375 -4.25 3.59375 -3.40625 L 3.59375 0 L 0.921875 0 L 0.921875 -10.625 L 3.59375 -10.625 L 3.59375 -9.109375 C 3.59375 -8.429688 3.554688 -7.65625 3.484375 -6.78125 L 3.609375 -6.78125 C 3.859375 -7.175781 4.160156 -7.457031 4.515625 -7.625 C 4.867188 -7.789062 5.273438 -7.875 5.734375 -7.875 C 6.597656 -7.875 7.269531 -7.625 7.75 -7.125 C 8.226562 -6.625 8.46875 -5.925781 8.46875 -5.03125 L 8.46875 0 Z M 5.796875 0 "/></g></g></g><g fill="#03989e" fill-opacity="0.4"><g transform="translate(141.363612, 104.055082)"><g><path d="M 5.640625 -7.875 C 6.484375 -7.875 7.148438 -7.519531 7.640625 -6.8125 C 8.140625 -6.101562 8.390625 -5.128906 8.390625 -3.890625 C 8.390625 -2.628906 8.140625 -1.640625 7.640625 -0.921875 C 7.140625 -0.210938 6.445312 0.140625 5.5625 0.140625 C 5.28125 0.140625 5.023438 0.109375 4.796875 0.046875 C 4.578125 -0.015625 4.378906 -0.0976562 4.203125 -0.203125 C 4.023438 -0.316406 3.820312 -0.503906 3.59375 -0.765625 L 3.421875 -0.765625 L 3 0 L 0.921875 0 L 0.921875 -10.625 L 3.59375 -10.625 L 3.59375 -8.21875 C 3.59375 -7.9375 3.5625 -7.441406 3.5 -6.734375 L 3.59375 -6.734375 C 3.851562 -7.140625 4.148438 -7.429688 4.484375 -7.609375 C 4.828125 -7.785156 5.210938 -7.875 5.640625 -7.875 Z M 4.671875 -5.78125 C 4.296875 -5.78125 4.019531 -5.648438 3.84375 -5.390625 C 3.675781 -5.128906 3.59375 -4.722656 3.59375 -4.171875 L 3.59375 -3.796875 C 3.59375 -3.160156 3.675781 -2.703125 3.84375 -2.421875 C 4.019531 -2.148438 4.304688 -2.015625 4.703125 -2.015625 C 5.015625 -2.015625 5.253906 -2.175781 5.421875 -2.5 C 5.585938 -2.820312 5.671875 -3.289062 5.671875 -3.90625 C 5.671875 -5.15625 5.335938 -5.78125 4.671875 -5.78125 Z M 4.671875 -5.78125 "/></g></g></g><g fill="#03989e" fill-opacity="1"><g transform="translate(140.74522, 103.436682)"><g><path d="M 5.640625 -7.875 C 6.484375 -7.875 7.148438 -7.519531 7.640625 -6.8125 C 8.140625 -6.101562 8.390625 -5.128906 8.390625 -3.890625 C 8.390625 -2.628906 8.140625 -1.640625 7.640625 -0.921875 C 7.140625 -0.210938 6.445312 0.140625 5.5625 0.140625 C 5.28125 0.140625 5.023438 0.109375 4.796875 0.046875 C 4.578125 -0.015625 4.378906 -0.0976562 4.203125 -0.203125 C 4.023438 -0.316406 3.820312 -0.503906 3.59375 -0.765625 L 3.421875 -0.765625 L 3 0 L 0.921875 0 L 0.921875 -10.625 L 3.59375 -10.625 L 3.59375 -8.21875 C 3.59375 -7.9375 3.5625 -7.441406 3.5 -6.734375 L 3.59375 -6.734375 C 3.851562 -7.140625 4.148438 -7.429688 4.484375 -7.609375 C 4.828125 -7.785156 5.210938 -7.875 5.640625 -7.875 Z M 4.671875 -5.78125 C 4.296875 -5.78125 4.019531 -5.648438 3.84375 -5.390625 C 3.675781 -5.128906 3.59375 -4.722656 3.59375 -4.171875 L 3.59375 -3.796875 C 3.59375 -3.160156 3.675781 -2.703125 3.84375 -2.421875 C 4.019531 -2.148438 4.304688 -2.015625 4.703125 -2.015625 C 5.015625 -2.015625 5.253906 -2.175781 5.421875 -2.5 C 5.585938 -2.820312 5.671875 -3.289062 5.671875 -3.90625 C 5.671875 -5.15625 5.335938 -5.78125 4.671875 -5.78125 Z M 4.671875 -5.78125 "/></g></g></g><g fill="#03989e" fill-opacity="0.4"><g transform="translate(149.353776, 107.269422)"><g><path d="M 6.703125 0 L 6.703125 -2.703125 C 6.703125 -3.046875 6.65625 -3.300781 6.5625 -3.46875 C 6.46875 -3.632812 6.320312 -3.71875 6.125 -3.71875 C 5.863281 -3.71875 5.671875 -3.601562 5.546875 -3.375 C 5.421875 -3.15625 5.359375 -2.804688 5.359375 -2.328125 L 5.359375 0 L 3.640625 0 L 3.640625 -2.703125 C 3.640625 -3.046875 3.59375 -3.300781 3.5 -3.46875 C 3.414062 -3.632812 3.273438 -3.71875 3.078125 -3.71875 C 2.816406 -3.71875 2.625 -3.597656 2.5 -3.359375 C 2.375 -3.117188 2.3125 -2.726562 2.3125 -2.1875 L 2.3125 0 L 0.59375 0 L 0.59375 -4.984375 L 1.890625 -4.984375 L 2.109375 -4.359375 L 2.203125 -4.359375 C 2.335938 -4.585938 2.53125 -4.757812 2.78125 -4.875 C 3.03125 -5 3.316406 -5.0625 3.640625 -5.0625 C 4.359375 -5.0625 4.859375 -4.84375 5.140625 -4.40625 L 5.28125 -4.40625 C 5.425781 -4.613281 5.625 -4.773438 5.875 -4.890625 C 6.125 -5.003906 6.398438 -5.0625 6.703125 -5.0625 C 7.285156 -5.0625 7.71875 -4.910156 8 -4.609375 C 8.28125 -4.304688 8.421875 -3.847656 8.421875 -3.234375 L 8.421875 0 Z M 6.703125 0 "/></g></g><g transform="translate(158.348976, 107.269422)"><g><path d="M 2.328125 0 L 0.609375 0 L 0.609375 -4.984375 L 2.328125 -4.984375 Z M 0.5625 -6.21875 C 0.5625 -6.476562 0.628906 -6.671875 0.765625 -6.796875 C 0.910156 -6.921875 1.144531 -6.984375 1.46875 -6.984375 C 1.789062 -6.984375 2.023438 -6.914062 2.171875 -6.78125 C 2.316406 -6.65625 2.390625 -6.46875 2.390625 -6.21875 C 2.390625 -5.71875 2.082031 -5.46875 1.46875 -5.46875 C 0.863281 -5.46875 0.5625 -5.71875 0.5625 -6.21875 Z M 0.5625 -6.21875 "/></g></g><g transform="translate(161.274172, 107.269422)"><g><path d="M 4.4375 -1.53125 C 4.4375 -1 4.253906 -0.59375 3.890625 -0.3125 C 3.523438 -0.0390625 3.003906 0.09375 2.328125 0.09375 C 1.960938 0.09375 1.640625 0.0703125 1.359375 0.03125 C 1.085938 -0.0078125 0.8125 -0.0820312 0.53125 -0.1875 L 0.53125 -1.5625 C 0.800781 -1.445312 1.09375 -1.347656 1.40625 -1.265625 C 1.726562 -1.191406 2.015625 -1.15625 2.265625 -1.15625 C 2.628906 -1.15625 2.8125 -1.242188 2.8125 -1.421875 C 2.8125 -1.503906 2.757812 -1.578125 2.65625 -1.640625 C 2.550781 -1.710938 2.25 -1.847656 1.75 -2.046875 C 1.289062 -2.234375 0.96875 -2.445312 0.78125 -2.6875 C 0.601562 -2.925781 0.515625 -3.226562 0.515625 -3.59375 C 0.515625 -4.0625 0.691406 -4.421875 1.046875 -4.671875 C 1.410156 -4.929688 1.921875 -5.0625 2.578125 -5.0625 C 2.898438 -5.0625 3.207031 -5.023438 3.5 -4.953125 C 3.789062 -4.890625 4.09375 -4.785156 4.40625 -4.640625 L 3.9375 -3.53125 C 3.707031 -3.632812 3.460938 -3.722656 3.203125 -3.796875 C 2.953125 -3.867188 2.742188 -3.90625 2.578125 -3.90625 C 2.296875 -3.90625 2.15625 -3.835938 2.15625 -3.703125 C 2.15625 -3.617188 2.203125 -3.546875 2.296875 -3.484375 C 2.398438 -3.421875 2.6875 -3.296875 3.15625 -3.109375 C 3.507812 -2.972656 3.769531 -2.832031 3.9375 -2.6875 C 4.113281 -2.550781 4.238281 -2.390625 4.3125 -2.203125 C 4.394531 -2.015625 4.4375 -1.789062 4.4375 -1.53125 Z M 4.4375 -1.53125 "/></g></g><g transform="translate(166.070441, 107.269422)"><g/></g><g transform="translate(168.407084, 107.269422)"><g><path d="M 0.1875 -1.734375 L 0.1875 -3.09375 L 2.671875 -3.09375 L 2.671875 -1.734375 Z M 0.1875 -1.734375 "/></g></g><g transform="translate(171.266398, 107.269422)"><g/></g><g transform="translate(173.603042, 107.269422)"><g><path d="M 4.4375 -1.53125 C 4.4375 -1 4.253906 -0.59375 3.890625 -0.3125 C 3.523438 -0.0390625 3.003906 0.09375 2.328125 0.09375 C 1.960938 0.09375 1.640625 0.0703125 1.359375 0.03125 C 1.085938 -0.0078125 0.8125 -0.0820312 0.53125 -0.1875 L 0.53125 -1.5625 C 0.800781 -1.445312 1.09375 -1.347656 1.40625 -1.265625 C 1.726562 -1.191406 2.015625 -1.15625 2.265625 -1.15625 C 2.628906 -1.15625 2.8125 -1.242188 2.8125 -1.421875 C 2.8125 -1.503906 2.757812 -1.578125 2.65625 -1.640625 C 2.550781 -1.710938 2.25 -1.847656 1.75 -2.046875 C 1.289062 -2.234375 0.96875 -2.445312 0.78125 -2.6875 C 0.601562 -2.925781 0.515625 -3.226562 0.515625 -3.59375 C 0.515625 -4.0625 0.691406 -4.421875 1.046875 -4.671875 C 1.410156 -4.929688 1.921875 -5.0625 2.578125 -5.0625 C 2.898438 -5.0625 3.207031 -5.023438 3.5 -4.953125 C 3.789062 -4.890625 4.09375 -4.785156 4.40625 -4.640625 L 3.9375 -3.53125 C 3.707031 -3.632812 3.460938 -3.722656 3.203125 -3.796875 C 2.953125 -3.867188 2.742188 -3.90625 2.578125 -3.90625 C 2.296875 -3.90625 2.15625 -3.835938 2.15625 -3.703125 C 2.15625 -3.617188 2.203125 -3.546875 2.296875 -3.484375 C 2.398438 -3.421875 2.6875 -3.296875 3.15625 -3.109375 C 3.507812 -2.972656 3.769531 -2.832031 3.9375 -2.6875 C 4.113281 -2.550781 4.238281 -2.390625 4.3125 -2.203125 C 4.394531 -2.015625 4.4375 -1.789062 4.4375 -1.53125 Z M 4.4375 -1.53125 "/></g></g><g transform="translate(178.39931, 107.269422)"><g><path d="M 4.140625 0 L 3.921875 -0.625 L 3.828125 -0.625 C 3.679688 -0.394531 3.476562 -0.21875 3.21875 -0.09375 C 2.96875 0.03125 2.671875 0.09375 2.328125 0.09375 C 1.773438 0.09375 1.34375 -0.0625 1.03125 -0.375 C 0.726562 -0.695312 0.578125 -1.148438 0.578125 -1.734375 L 0.578125 -4.984375 L 2.296875 -4.984375 L 2.296875 -2.265625 C 2.296875 -1.929688 2.34375 -1.679688 2.4375 -1.515625 C 2.53125 -1.347656 2.679688 -1.265625 2.890625 -1.265625 C 3.191406 -1.265625 3.40625 -1.378906 3.53125 -1.609375 C 3.65625 -1.847656 3.71875 -2.242188 3.71875 -2.796875 L 3.71875 -4.984375 L 5.4375 -4.984375 L 5.4375 0 Z M 4.140625 0 "/></g></g><g transform="translate(184.425391, 107.269422)"><g><path d="M 3.578125 0.09375 C 3.328125 0.09375 3.101562 0.0507812 2.90625 -0.03125 C 2.707031 -0.113281 2.507812 -0.265625 2.3125 -0.484375 L 2.234375 -0.484375 C 2.285156 -0.140625 2.3125 0.0703125 2.3125 0.15625 L 2.3125 2.15625 L 0.59375 2.15625 L 0.59375 -4.984375 L 1.984375 -4.984375 L 2.234375 -4.34375 L 2.3125 -4.34375 C 2.632812 -4.820312 3.078125 -5.0625 3.640625 -5.0625 C 4.179688 -5.0625 4.609375 -4.832031 4.921875 -4.375 C 5.242188 -3.925781 5.40625 -3.300781 5.40625 -2.5 C 5.40625 -1.695312 5.238281 -1.0625 4.90625 -0.59375 C 4.582031 -0.132812 4.140625 0.09375 3.578125 0.09375 Z M 3 -3.71875 C 2.75 -3.71875 2.570312 -3.625 2.46875 -3.4375 C 2.375 -3.257812 2.320312 -2.992188 2.3125 -2.640625 L 2.3125 -2.515625 C 2.3125 -2.085938 2.367188 -1.773438 2.484375 -1.578125 C 2.597656 -1.390625 2.78125 -1.296875 3.03125 -1.296875 C 3.25 -1.296875 3.40625 -1.390625 3.5 -1.578125 C 3.601562 -1.765625 3.65625 -2.078125 3.65625 -2.515625 C 3.65625 -2.941406 3.601562 -3.25 3.5 -3.4375 C 3.40625 -3.625 3.238281 -3.71875 3 -3.71875 Z M 3 -3.71875 "/></g></g></g><g fill="#03989e" fill-opacity="1"><g transform="translate(148.956225, 106.871872)"><g><path d="M 6.703125 0 L 6.703125 -2.703125 C 6.703125 -3.046875 6.65625 -3.300781 6.5625 -3.46875 C 6.46875 -3.632812 6.320312 -3.71875 6.125 -3.71875 C 5.863281 -3.71875 5.671875 -3.601562 5.546875 -3.375 C 5.421875 -3.15625 5.359375 -2.804688 5.359375 -2.328125 L 5.359375 0 L 3.640625 0 L 3.640625 -2.703125 C 3.640625 -3.046875 3.59375 -3.300781 3.5 -3.46875 C 3.414062 -3.632812 3.273438 -3.71875 3.078125 -3.71875 C 2.816406 -3.71875 2.625 -3.597656 2.5 -3.359375 C 2.375 -3.117188 2.3125 -2.726562 2.3125 -2.1875 L 2.3125 0 L 0.59375 0 L 0.59375 -4.984375 L 1.890625 -4.984375 L 2.109375 -4.359375 L 2.203125 -4.359375 C 2.335938 -4.585938 2.53125 -4.757812 2.78125 -4.875 C 3.03125 -5 3.316406 -5.0625 3.640625 -5.0625 C 4.359375 -5.0625 4.859375 -4.84375 5.140625 -4.40625 L 5.28125 -4.40625 C 5.425781 -4.613281 5.625 -4.773438 5.875 -4.890625 C 6.125 -5.003906 6.398438 -5.0625 6.703125 -5.0625 C 7.285156 -5.0625 7.71875 -4.910156 8 -4.609375 C 8.28125 -4.304688 8.421875 -3.847656 8.421875 -3.234375 L 8.421875 0 Z M 6.703125 0 "/></g></g><g transform="translate(157.951424, 106.871872)"><g><path d="M 2.328125 0 L 0.609375 0 L 0.609375 -4.984375 L 2.328125 -4.984375 Z M 0.5625 -6.21875 C 0.5625 -6.476562 0.628906 -6.671875 0.765625 -6.796875 C 0.910156 -6.921875 1.144531 -6.984375 1.46875 -6.984375 C 1.789062 -6.984375 2.023438 -6.914062 2.171875 -6.78125 C 2.316406 -6.65625 2.390625 -6.46875 2.390625 -6.21875 C 2.390625 -5.71875 2.082031 -5.46875 1.46875 -5.46875 C 0.863281 -5.46875 0.5625 -5.71875 0.5625 -6.21875 Z M 0.5625 -6.21875 "/></g></g><g transform="translate(160.87662, 106.871872)"><g><path d="M 4.4375 -1.53125 C 4.4375 -1 4.253906 -0.59375 3.890625 -0.3125 C 3.523438 -0.0390625 3.003906 0.09375 2.328125 0.09375 C 1.960938 0.09375 1.640625 0.0703125 1.359375 0.03125 C 1.085938 -0.0078125 0.8125 -0.0820312 0.53125 -0.1875 L 0.53125 -1.5625 C 0.800781 -1.445312 1.09375 -1.347656 1.40625 -1.265625 C 1.726562 -1.191406 2.015625 -1.15625 2.265625 -1.15625 C 2.628906 -1.15625 2.8125 -1.242188 2.8125 -1.421875 C 2.8125 -1.503906 2.757812 -1.578125 2.65625 -1.640625 C 2.550781 -1.710938 2.25 -1.847656 1.75 -2.046875 C 1.289062 -2.234375 0.96875 -2.445312 0.78125 -2.6875 C 0.601562 -2.925781 0.515625 -3.226562 0.515625 -3.59375 C 0.515625 -4.0625 0.691406 -4.421875 1.046875 -4.671875 C 1.410156 -4.929688 1.921875 -5.0625 2.578125 -5.0625 C 2.898438 -5.0625 3.207031 -5.023438 3.5 -4.953125 C 3.789062 -4.890625 4.09375 -4.785156 4.40625 -4.640625 L 3.9375 -3.53125 C 3.707031 -3.632812 3.460938 -3.722656 3.203125 -3.796875 C 2.953125 -3.867188 2.742188 -3.90625 2.578125 -3.90625 C 2.296875 -3.90625 2.15625 -3.835938 2.15625 -3.703125 C 2.15625 -3.617188 2.203125 -3.546875 2.296875 -3.484375 C 2.398438 -3.421875 2.6875 -3.296875 3.15625 -3.109375 C 3.507812 -2.972656 3.769531 -2.832031 3.9375 -2.6875 C 4.113281 -2.550781 4.238281 -2.390625 4.3125 -2.203125 C 4.394531 -2.015625 4.4375 -1.789062 4.4375 -1.53125 Z M 4.4375 -1.53125 "/></g></g><g transform="translate(165.672889, 106.871872)"><g/></g><g transform="translate(168.009532, 106.871872)"><g><path d="M 0.1875 -1.734375 L 0.1875 -3.09375 L 2.671875 -3.09375 L 2.671875 -1.734375 Z M 0.1875 -1.734375 "/></g></g><g transform="translate(170.868846, 106.871872)"><g/></g><g transform="translate(173.20549, 106.871872)"><g><path d="M 4.4375 -1.53125 C 4.4375 -1 4.253906 -0.59375 3.890625 -0.3125 C 3.523438 -0.0390625 3.003906 0.09375 2.328125 0.09375 C 1.960938 0.09375 1.640625 0.0703125 1.359375 0.03125 C 1.085938 -0.0078125 0.8125 -0.0820312 0.53125 -0.1875 L 0.53125 -1.5625 C 0.800781 -1.445312 1.09375 -1.347656 1.40625 -1.265625 C 1.726562 -1.191406 2.015625 -1.15625 2.265625 -1.15625 C 2.628906 -1.15625 2.8125 -1.242188 2.8125 -1.421875 C 2.8125 -1.503906 2.757812 -1.578125 2.65625 -1.640625 C 2.550781 -1.710938 2.25 -1.847656 1.75 -2.046875 C 1.289062 -2.234375 0.96875 -2.445312 0.78125 -2.6875 C 0.601562 -2.925781 0.515625 -3.226562 0.515625 -3.59375 C 0.515625 -4.0625 0.691406 -4.421875 1.046875 -4.671875 C 1.410156 -4.929688 1.921875 -5.0625 2.578125 -5.0625 C 2.898438 -5.0625 3.207031 -5.023438 3.5 -4.953125 C 3.789062 -4.890625 4.09375 -4.785156 4.40625 -4.640625 L 3.9375 -3.53125 C 3.707031 -3.632812 3.460938 -3.722656 3.203125 -3.796875 C 2.953125 -3.867188 2.742188 -3.90625 2.578125 -3.90625 C 2.296875 -3.90625 2.15625 -3.835938 2.15625 -3.703125 C 2.15625 -3.617188 2.203125 -3.546875 2.296875 -3.484375 C 2.398438 -3.421875 2.6875 -3.296875 3.15625 -3.109375 C 3.507812 -2.972656 3.769531 -2.832031 3.9375 -2.6875 C 4.113281 -2.550781 4.238281 -2.390625 4.3125 -2.203125 C 4.394531 -2.015625 4.4375 -1.789062 4.4375 -1.53125 Z M 4.4375 -1.53125 "/></g></g><g transform="translate(178.001758, 106.871872)"><g><path d="M 4.140625 0 L 3.921875 -0.625 L 3.828125 -0.625 C 3.679688 -0.394531 3.476562 -0.21875 3.21875 -0.09375 C 2.96875 0.03125 2.671875 0.09375 2.328125 0.09375 C 1.773438 0.09375 1.34375 -0.0625 1.03125 -0.375 C 0.726562 -0.695312 0.578125 -1.148438 0.578125 -1.734375 L 0.578125 -4.984375 L 2.296875 -4.984375 L 2.296875 -2.265625 C 2.296875 -1.929688 2.34375 -1.679688 2.4375 -1.515625 C 2.53125 -1.347656 2.679688 -1.265625 2.890625 -1.265625 C 3.191406 -1.265625 3.40625 -1.378906 3.53125 -1.609375 C 3.65625 -1.847656 3.71875 -2.242188 3.71875 -2.796875 L 3.71875 -4.984375 L 5.4375 -4.984375 L 5.4375 0 Z M 4.140625 0 "/></g></g><g transform="translate(184.027839, 106.871872)"><g><path d="M 3.578125 0.09375 C 3.328125 0.09375 3.101562 0.0507812 2.90625 -0.03125 C 2.707031 -0.113281 2.507812 -0.265625 2.3125 -0.484375 L 2.234375 -0.484375 C 2.285156 -0.140625 2.3125 0.0703125 2.3125 0.15625 L 2.3125 2.15625 L 0.59375 2.15625 L 0.59375 -4.984375 L 1.984375 -4.984375 L 2.234375 -4.34375 L 2.3125 -4.34375 C 2.632812 -4.820312 3.078125 -5.0625 3.640625 -5.0625 C 4.179688 -5.0625 4.609375 -4.832031 4.921875 -4.375 C 5.242188 -3.925781 5.40625 -3.300781 5.40625 -2.5 C 5.40625 -1.695312 5.238281 -1.0625 4.90625 -0.59375 C 4.582031 -0.132812 4.140625 0.09375 3.578125 0.09375 Z M 3 -3.71875 C 2.75 -3.71875 2.570312 -3.625 2.46875 -3.4375 C 2.375 -3.257812 2.320312 -2.992188 2.3125 -2.640625 L 2.3125 -2.515625 C 2.3125 -2.085938 2.367188 -1.773438 2.484375 -1.578125 C 2.597656 -1.390625 2.78125 -1.296875 3.03125 -1.296875 C 3.25 -1.296875 3.40625 -1.390625 3.5 -1.578125 C 3.601562 -1.765625 3.65625 -2.078125 3.65625 -2.515625 C 3.65625 -2.941406 3.601562 -3.25 3.5 -3.4375 C 3.40625 -3.625 3.238281 -3.71875 3 -3.71875 Z M 3 -3.71875 "/></g></g></g><g fill="#03989e" fill-opacity="0.4"><g transform="translate(175.583976, 77.008154)"><g><path d="M 5.796875 0 L 5.796875 -4.21875 C 5.796875 -5.257812 5.488281 -5.78125 4.875 -5.78125 C 4.4375 -5.78125 4.113281 -5.59375 3.90625 -5.21875 C 3.695312 -4.851562 3.59375 -4.25 3.59375 -3.40625 L 3.59375 0 L 0.921875 0 L 0.921875 -10.625 L 3.59375 -10.625 L 3.59375 -9.109375 C 3.59375 -8.429688 3.554688 -7.65625 3.484375 -6.78125 L 3.609375 -6.78125 C 3.859375 -7.175781 4.160156 -7.457031 4.515625 -7.625 C 4.867188 -7.789062 5.273438 -7.875 5.734375 -7.875 C 6.597656 -7.875 7.269531 -7.625 7.75 -7.125 C 8.226562 -6.625 8.46875 -5.925781 8.46875 -5.03125 L 8.46875 0 Z M 5.796875 0 "/></g></g></g><g fill="#03989e" fill-opacity="1"><g transform="translate(174.965586, 76.389759)"><g><path d="M 5.796875 0 L 5.796875 -4.21875 C 5.796875 -5.257812 5.488281 -5.78125 4.875 -5.78125 C 4.4375 -5.78125 4.113281 -5.59375 3.90625 -5.21875 C 3.695312 -4.851562 3.59375 -4.25 3.59375 -3.40625 L 3.59375 0 L 0.921875 0 L 0.921875 -10.625 L 3.59375 -10.625 L 3.59375 -9.109375 C 3.59375 -8.429688 3.554688 -7.65625 3.484375 -6.78125 L 3.609375 -6.78125 C 3.859375 -7.175781 4.160156 -7.457031 4.515625 -7.625 C 4.867188 -7.789062 5.273438 -7.875 5.734375 -7.875 C 6.597656 -7.875 7.269531 -7.625 7.75 -7.125 C 8.226562 -6.625 8.46875 -5.925781 8.46875 -5.03125 L 8.46875 0 Z M 5.796875 0 "/></g></g></g><g clip-path="url(#id10)"><g fill="#03989e" fill-opacity="0.4"><g transform="translate(183.982233, 80.311628)"><g><path d="M 6.703125 0 L 6.703125 -2.703125 C 6.703125 -3.046875 6.65625 -3.300781 6.5625 -3.46875 C 6.46875 -3.632812 6.320312 -3.71875 6.125 -3.71875 C 5.863281 -3.71875 5.671875 -3.601562 5.546875 -3.375 C 5.421875 -3.15625 5.359375 -2.804688 5.359375 -2.328125 L 5.359375 0 L 3.640625 0 L 3.640625 -2.703125 C 3.640625 -3.046875 3.59375 -3.300781 3.5 -3.46875 C 3.414062 -3.632812 3.273438 -3.71875 3.078125 -3.71875 C 2.816406 -3.71875 2.625 -3.597656 2.5 -3.359375 C 2.375 -3.117188 2.3125 -2.726562 2.3125 -2.1875 L 2.3125 0 L 0.59375 0 L 0.59375 -4.984375 L 1.890625 -4.984375 L 2.109375 -4.359375 L 2.203125 -4.359375 C 2.335938 -4.585938 2.53125 -4.757812 2.78125 -4.875 C 3.03125 -5 3.316406 -5.0625 3.640625 -5.0625 C 4.359375 -5.0625 4.859375 -4.84375 5.140625 -4.40625 L 5.28125 -4.40625 C 5.425781 -4.613281 5.625 -4.773438 5.875 -4.890625 C 6.125 -5.003906 6.398438 -5.0625 6.703125 -5.0625 C 7.285156 -5.0625 7.71875 -4.910156 8 -4.609375 C 8.28125 -4.304688 8.421875 -3.847656 8.421875 -3.234375 L 8.421875 0 Z M 6.703125 0 "/></g></g><g transform="translate(192.977432, 80.311628)"><g><path d="M 2.328125 0 L 0.609375 0 L 0.609375 -4.984375 L 2.328125 -4.984375 Z M 0.5625 -6.21875 C 0.5625 -6.476562 0.628906 -6.671875 0.765625 -6.796875 C 0.910156 -6.921875 1.144531 -6.984375 1.46875 -6.984375 C 1.789062 -6.984375 2.023438 -6.914062 2.171875 -6.78125 C 2.316406 -6.65625 2.390625 -6.46875 2.390625 -6.21875 C 2.390625 -5.71875 2.082031 -5.46875 1.46875 -5.46875 C 0.863281 -5.46875 0.5625 -5.71875 0.5625 -6.21875 Z M 0.5625 -6.21875 "/></g></g><g transform="translate(195.902629, 80.311628)"><g><path d="M 4.4375 -1.53125 C 4.4375 -1 4.253906 -0.59375 3.890625 -0.3125 C 3.523438 -0.0390625 3.003906 0.09375 2.328125 0.09375 C 1.960938 0.09375 1.640625 0.0703125 1.359375 0.03125 C 1.085938 -0.0078125 0.8125 -0.0820312 0.53125 -0.1875 L 0.53125 -1.5625 C 0.800781 -1.445312 1.09375 -1.347656 1.40625 -1.265625 C 1.726562 -1.191406 2.015625 -1.15625 2.265625 -1.15625 C 2.628906 -1.15625 2.8125 -1.242188 2.8125 -1.421875 C 2.8125 -1.503906 2.757812 -1.578125 2.65625 -1.640625 C 2.550781 -1.710938 2.25 -1.847656 1.75 -2.046875 C 1.289062 -2.234375 0.96875 -2.445312 0.78125 -2.6875 C 0.601562 -2.925781 0.515625 -3.226562 0.515625 -3.59375 C 0.515625 -4.0625 0.691406 -4.421875 1.046875 -4.671875 C 1.410156 -4.929688 1.921875 -5.0625 2.578125 -5.0625 C 2.898438 -5.0625 3.207031 -5.023438 3.5 -4.953125 C 3.789062 -4.890625 4.09375 -4.785156 4.40625 -4.640625 L 3.9375 -3.53125 C 3.707031 -3.632812 3.460938 -3.722656 3.203125 -3.796875 C 2.953125 -3.867188 2.742188 -3.90625 2.578125 -3.90625 C 2.296875 -3.90625 2.15625 -3.835938 2.15625 -3.703125 C 2.15625 -3.617188 2.203125 -3.546875 2.296875 -3.484375 C 2.398438 -3.421875 2.6875 -3.296875 3.15625 -3.109375 C 3.507812 -2.972656 3.769531 -2.832031 3.9375 -2.6875 C 4.113281 -2.550781 4.238281 -2.390625 4.3125 -2.203125 C 4.394531 -2.015625 4.4375 -1.789062 4.4375 -1.53125 Z M 4.4375 -1.53125 "/></g></g><g transform="translate(200.698897, 80.311628)"><g/></g><g transform="translate(203.035541, 80.311628)"><g><path d="M 0.1875 -1.734375 L 0.1875 -3.09375 L 2.671875 -3.09375 L 2.671875 -1.734375 Z M 0.1875 -1.734375 "/></g></g><g transform="translate(205.894854, 80.311628)"><g/></g><g transform="translate(208.231498, 80.311628)"><g><path d="M 4.4375 -1.53125 C 4.4375 -1 4.253906 -0.59375 3.890625 -0.3125 C 3.523438 -0.0390625 3.003906 0.09375 2.328125 0.09375 C 1.960938 0.09375 1.640625 0.0703125 1.359375 0.03125 C 1.085938 -0.0078125 0.8125 -0.0820312 0.53125 -0.1875 L 0.53125 -1.5625 C 0.800781 -1.445312 1.09375 -1.347656 1.40625 -1.265625 C 1.726562 -1.191406 2.015625 -1.15625 2.265625 -1.15625 C 2.628906 -1.15625 2.8125 -1.242188 2.8125 -1.421875 C 2.8125 -1.503906 2.757812 -1.578125 2.65625 -1.640625 C 2.550781 -1.710938 2.25 -1.847656 1.75 -2.046875 C 1.289062 -2.234375 0.96875 -2.445312 0.78125 -2.6875 C 0.601562 -2.925781 0.515625 -3.226562 0.515625 -3.59375 C 0.515625 -4.0625 0.691406 -4.421875 1.046875 -4.671875 C 1.410156 -4.929688 1.921875 -5.0625 2.578125 -5.0625 C 2.898438 -5.0625 3.207031 -5.023438 3.5 -4.953125 C 3.789062 -4.890625 4.09375 -4.785156 4.40625 -4.640625 L 3.9375 -3.53125 C 3.707031 -3.632812 3.460938 -3.722656 3.203125 -3.796875 C 2.953125 -3.867188 2.742188 -3.90625 2.578125 -3.90625 C 2.296875 -3.90625 2.15625 -3.835938 2.15625 -3.703125 C 2.15625 -3.617188 2.203125 -3.546875 2.296875 -3.484375 C 2.398438 -3.421875 2.6875 -3.296875 3.15625 -3.109375 C 3.507812 -2.972656 3.769531 -2.832031 3.9375 -2.6875 C 4.113281 -2.550781 4.238281 -2.390625 4.3125 -2.203125 C 4.394531 -2.015625 4.4375 -1.789062 4.4375 -1.53125 Z M 4.4375 -1.53125 "/></g></g><g transform="translate(213.027766, 80.311628)"><g><path d="M 4.140625 0 L 3.921875 -0.625 L 3.828125 -0.625 C 3.679688 -0.394531 3.476562 -0.21875 3.21875 -0.09375 C 2.96875 0.03125 2.671875 0.09375 2.328125 0.09375 C 1.773438 0.09375 1.34375 -0.0625 1.03125 -0.375 C 0.726562 -0.695312 0.578125 -1.148438 0.578125 -1.734375 L 0.578125 -4.984375 L 2.296875 -4.984375 L 2.296875 -2.265625 C 2.296875 -1.929688 2.34375 -1.679688 2.4375 -1.515625 C 2.53125 -1.347656 2.679688 -1.265625 2.890625 -1.265625 C 3.191406 -1.265625 3.40625 -1.378906 3.53125 -1.609375 C 3.65625 -1.847656 3.71875 -2.242188 3.71875 -2.796875 L 3.71875 -4.984375 L 5.4375 -4.984375 L 5.4375 0 Z M 4.140625 0 "/></g></g><g transform="translate(219.053847, 80.311628)"><g><path d="M 3.578125 0.09375 C 3.328125 0.09375 3.101562 0.0507812 2.90625 -0.03125 C 2.707031 -0.113281 2.507812 -0.265625 2.3125 -0.484375 L 2.234375 -0.484375 C 2.285156 -0.140625 2.3125 0.0703125 2.3125 0.15625 L 2.3125 2.15625 L 0.59375 2.15625 L 0.59375 -4.984375 L 1.984375 -4.984375 L 2.234375 -4.34375 L 2.3125 -4.34375 C 2.632812 -4.820312 3.078125 -5.0625 3.640625 -5.0625 C 4.179688 -5.0625 4.609375 -4.832031 4.921875 -4.375 C 5.242188 -3.925781 5.40625 -3.300781 5.40625 -2.5 C 5.40625 -1.695312 5.238281 -1.0625 4.90625 -0.59375 C 4.582031 -0.132812 4.140625 0.09375 3.578125 0.09375 Z M 3 -3.71875 C 2.75 -3.71875 2.570312 -3.625 2.46875 -3.4375 C 2.375 -3.257812 2.320312 -2.992188 2.3125 -2.640625 L 2.3125 -2.515625 C 2.3125 -2.085938 2.367188 -1.773438 2.484375 -1.578125 C 2.597656 -1.390625 2.78125 -1.296875 3.03125 -1.296875 C 3.25 -1.296875 3.40625 -1.390625 3.5 -1.578125 C 3.601562 -1.765625 3.65625 -2.078125 3.65625 -2.515625 C 3.65625 -2.941406 3.601562 -3.25 3.5 -3.4375 C 3.40625 -3.625 3.238281 -3.71875 3 -3.71875 Z M 3 -3.71875 "/></g></g></g></g><g clip-path="url(#id11)"><g fill="#03989e" fill-opacity="1"><g transform="translate(183.584681, 79.914076)"><g><path d="M 6.703125 0 L 6.703125 -2.703125 C 6.703125 -3.046875 6.65625 -3.300781 6.5625 -3.46875 C 6.46875 -3.632812 6.320312 -3.71875 6.125 -3.71875 C 5.863281 -3.71875 5.671875 -3.601562 5.546875 -3.375 C 5.421875 -3.15625 5.359375 -2.804688 5.359375 -2.328125 L 5.359375 0 L 3.640625 0 L 3.640625 -2.703125 C 3.640625 -3.046875 3.59375 -3.300781 3.5 -3.46875 C 3.414062 -3.632812 3.273438 -3.71875 3.078125 -3.71875 C 2.816406 -3.71875 2.625 -3.597656 2.5 -3.359375 C 2.375 -3.117188 2.3125 -2.726562 2.3125 -2.1875 L 2.3125 0 L 0.59375 0 L 0.59375 -4.984375 L 1.890625 -4.984375 L 2.109375 -4.359375 L 2.203125 -4.359375 C 2.335938 -4.585938 2.53125 -4.757812 2.78125 -4.875 C 3.03125 -5 3.316406 -5.0625 3.640625 -5.0625 C 4.359375 -5.0625 4.859375 -4.84375 5.140625 -4.40625 L 5.28125 -4.40625 C 5.425781 -4.613281 5.625 -4.773438 5.875 -4.890625 C 6.125 -5.003906 6.398438 -5.0625 6.703125 -5.0625 C 7.285156 -5.0625 7.71875 -4.910156 8 -4.609375 C 8.28125 -4.304688 8.421875 -3.847656 8.421875 -3.234375 L 8.421875 0 Z M 6.703125 0 "/></g></g><g transform="translate(192.57988, 79.914076)"><g><path d="M 2.328125 0 L 0.609375 0 L 0.609375 -4.984375 L 2.328125 -4.984375 Z M 0.5625 -6.21875 C 0.5625 -6.476562 0.628906 -6.671875 0.765625 -6.796875 C 0.910156 -6.921875 1.144531 -6.984375 1.46875 -6.984375 C 1.789062 -6.984375 2.023438 -6.914062 2.171875 -6.78125 C 2.316406 -6.65625 2.390625 -6.46875 2.390625 -6.21875 C 2.390625 -5.71875 2.082031 -5.46875 1.46875 -5.46875 C 0.863281 -5.46875 0.5625 -5.71875 0.5625 -6.21875 Z M 0.5625 -6.21875 "/></g></g><g transform="translate(195.505077, 79.914076)"><g><path d="M 4.4375 -1.53125 C 4.4375 -1 4.253906 -0.59375 3.890625 -0.3125 C 3.523438 -0.0390625 3.003906 0.09375 2.328125 0.09375 C 1.960938 0.09375 1.640625 0.0703125 1.359375 0.03125 C 1.085938 -0.0078125 0.8125 -0.0820312 0.53125 -0.1875 L 0.53125 -1.5625 C 0.800781 -1.445312 1.09375 -1.347656 1.40625 -1.265625 C 1.726562 -1.191406 2.015625 -1.15625 2.265625 -1.15625 C 2.628906 -1.15625 2.8125 -1.242188 2.8125 -1.421875 C 2.8125 -1.503906 2.757812 -1.578125 2.65625 -1.640625 C 2.550781 -1.710938 2.25 -1.847656 1.75 -2.046875 C 1.289062 -2.234375 0.96875 -2.445312 0.78125 -2.6875 C 0.601562 -2.925781 0.515625 -3.226562 0.515625 -3.59375 C 0.515625 -4.0625 0.691406 -4.421875 1.046875 -4.671875 C 1.410156 -4.929688 1.921875 -5.0625 2.578125 -5.0625 C 2.898438 -5.0625 3.207031 -5.023438 3.5 -4.953125 C 3.789062 -4.890625 4.09375 -4.785156 4.40625 -4.640625 L 3.9375 -3.53125 C 3.707031 -3.632812 3.460938 -3.722656 3.203125 -3.796875 C 2.953125 -3.867188 2.742188 -3.90625 2.578125 -3.90625 C 2.296875 -3.90625 2.15625 -3.835938 2.15625 -3.703125 C 2.15625 -3.617188 2.203125 -3.546875 2.296875 -3.484375 C 2.398438 -3.421875 2.6875 -3.296875 3.15625 -3.109375 C 3.507812 -2.972656 3.769531 -2.832031 3.9375 -2.6875 C 4.113281 -2.550781 4.238281 -2.390625 4.3125 -2.203125 C 4.394531 -2.015625 4.4375 -1.789062 4.4375 -1.53125 Z M 4.4375 -1.53125 "/></g></g><g transform="translate(200.301345, 79.914076)"><g/></g><g transform="translate(202.637989, 79.914076)"><g><path d="M 0.1875 -1.734375 L 0.1875 -3.09375 L 2.671875 -3.09375 L 2.671875 -1.734375 Z M 0.1875 -1.734375 "/></g></g><g transform="translate(205.497302, 79.914076)"><g/></g><g transform="translate(207.833946, 79.914076)"><g><path d="M 4.4375 -1.53125 C 4.4375 -1 4.253906 -0.59375 3.890625 -0.3125 C 3.523438 -0.0390625 3.003906 0.09375 2.328125 0.09375 C 1.960938 0.09375 1.640625 0.0703125 1.359375 0.03125 C 1.085938 -0.0078125 0.8125 -0.0820312 0.53125 -0.1875 L 0.53125 -1.5625 C 0.800781 -1.445312 1.09375 -1.347656 1.40625 -1.265625 C 1.726562 -1.191406 2.015625 -1.15625 2.265625 -1.15625 C 2.628906 -1.15625 2.8125 -1.242188 2.8125 -1.421875 C 2.8125 -1.503906 2.757812 -1.578125 2.65625 -1.640625 C 2.550781 -1.710938 2.25 -1.847656 1.75 -2.046875 C 1.289062 -2.234375 0.96875 -2.445312 0.78125 -2.6875 C 0.601562 -2.925781 0.515625 -3.226562 0.515625 -3.59375 C 0.515625 -4.0625 0.691406 -4.421875 1.046875 -4.671875 C 1.410156 -4.929688 1.921875 -5.0625 2.578125 -5.0625 C 2.898438 -5.0625 3.207031 -5.023438 3.5 -4.953125 C 3.789062 -4.890625 4.09375 -4.785156 4.40625 -4.640625 L 3.9375 -3.53125 C 3.707031 -3.632812 3.460938 -3.722656 3.203125 -3.796875 C 2.953125 -3.867188 2.742188 -3.90625 2.578125 -3.90625 C 2.296875 -3.90625 2.15625 -3.835938 2.15625 -3.703125 C 2.15625 -3.617188 2.203125 -3.546875 2.296875 -3.484375 C 2.398438 -3.421875 2.6875 -3.296875 3.15625 -3.109375 C 3.507812 -2.972656 3.769531 -2.832031 3.9375 -2.6875 C 4.113281 -2.550781 4.238281 -2.390625 4.3125 -2.203125 C 4.394531 -2.015625 4.4375 -1.789062 4.4375 -1.53125 Z M 4.4375 -1.53125 "/></g></g><g transform="translate(212.630214, 79.914076)"><g><path d="M 4.140625 0 L 3.921875 -0.625 L 3.828125 -0.625 C 3.679688 -0.394531 3.476562 -0.21875 3.21875 -0.09375 C 2.96875 0.03125 2.671875 0.09375 2.328125 0.09375 C 1.773438 0.09375 1.34375 -0.0625 1.03125 -0.375 C 0.726562 -0.695312 0.578125 -1.148438 0.578125 -1.734375 L 0.578125 -4.984375 L 2.296875 -4.984375 L 2.296875 -2.265625 C 2.296875 -1.929688 2.34375 -1.679688 2.4375 -1.515625 C 2.53125 -1.347656 2.679688 -1.265625 2.890625 -1.265625 C 3.191406 -1.265625 3.40625 -1.378906 3.53125 -1.609375 C 3.65625 -1.847656 3.71875 -2.242188 3.71875 -2.796875 L 3.71875 -4.984375 L 5.4375 -4.984375 L 5.4375 0 Z M 4.140625 0 "/></g></g><g transform="translate(218.656295, 79.914076)"><g><path d="M 3.578125 0.09375 C 3.328125 0.09375 3.101562 0.0507812 2.90625 -0.03125 C 2.707031 -0.113281 2.507812 -0.265625 2.3125 -0.484375 L 2.234375 -0.484375 C 2.285156 -0.140625 2.3125 0.0703125 2.3125 0.15625 L 2.3125 2.15625 L 0.59375 2.15625 L 0.59375 -4.984375 L 1.984375 -4.984375 L 2.234375 -4.34375 L 2.3125 -4.34375 C 2.632812 -4.820312 3.078125 -5.0625 3.640625 -5.0625 C 4.179688 -5.0625 4.609375 -4.832031 4.921875 -4.375 C 5.242188 -3.925781 5.40625 -3.300781 5.40625 -2.5 C 5.40625 -1.695312 5.238281 -1.0625 4.90625 -0.59375 C 4.582031 -0.132812 4.140625 0.09375 3.578125 0.09375 Z M 3 -3.71875 C 2.75 -3.71875 2.570312 -3.625 2.46875 -3.4375 C 2.375 -3.257812 2.320312 -2.992188 2.3125 -2.640625 L 2.3125 -2.515625 C 2.3125 -2.085938 2.367188 -1.773438 2.484375 -1.578125 C 2.597656 -1.390625 2.78125 -1.296875 3.03125 -1.296875 C 3.25 -1.296875 3.40625 -1.390625 3.5 -1.578125 C 3.601562 -1.765625 3.65625 -2.078125 3.65625 -2.515625 C 3.65625 -2.941406 3.601562 -3.25 3.5 -3.4375 C 3.40625 -3.625 3.238281 -3.71875 3 -3.71875 Z M 3 -3.71875 "/></g></g></g></g><g fill="#000000" fill-opacity="0.4"><g transform="translate(106.61314, 12.22231)"><g><path d="M 5.640625 -7.875 C 6.484375 -7.875 7.148438 -7.519531 7.640625 -6.8125 C 8.140625 -6.101562 8.390625 -5.128906 8.390625 -3.890625 C 8.390625 -2.628906 8.140625 -1.640625 7.640625 -0.921875 C 7.140625 -0.210938 6.445312 0.140625 5.5625 0.140625 C 5.28125 0.140625 5.023438 0.109375 4.796875 0.046875 C 4.578125 -0.015625 4.378906 -0.0976562 4.203125 -0.203125 C 4.023438 -0.316406 3.820312 -0.503906 3.59375 -0.765625 L 3.421875 -0.765625 L 3 0 L 0.921875 0 L 0.921875 -10.625 L 3.59375 -10.625 L 3.59375 -8.21875 C 3.59375 -7.9375 3.5625 -7.441406 3.5 -6.734375 L 3.59375 -6.734375 C 3.851562 -7.140625 4.148438 -7.429688 4.484375 -7.609375 C 4.828125 -7.785156 5.210938 -7.875 5.640625 -7.875 Z M 4.671875 -5.78125 C 4.296875 -5.78125 4.019531 -5.648438 3.84375 -5.390625 C 3.675781 -5.128906 3.59375 -4.722656 3.59375 -4.171875 L 3.59375 -3.796875 C 3.59375 -3.160156 3.675781 -2.703125 3.84375 -2.421875 C 4.019531 -2.148438 4.304688 -2.015625 4.703125 -2.015625 C 5.015625 -2.015625 5.253906 -2.175781 5.421875 -2.5 C 5.585938 -2.820312 5.671875 -3.289062 5.671875 -3.90625 C 5.671875 -5.15625 5.335938 -5.78125 4.671875 -5.78125 Z M 4.671875 -5.78125 "/></g></g></g><g clip-path="url(#id12)"><g fill="#000000" fill-opacity="1"><g transform="translate(105.994741, 11.603914)"><g><path d="M 5.640625 -7.875 C 6.484375 -7.875 7.148438 -7.519531 7.640625 -6.8125 C 8.140625 -6.101562 8.390625 -5.128906 8.390625 -3.890625 C 8.390625 -2.628906 8.140625 -1.640625 7.640625 -0.921875 C 7.140625 -0.210938 6.445312 0.140625 5.5625 0.140625 C 5.28125 0.140625 5.023438 0.109375 4.796875 0.046875 C 4.578125 -0.015625 4.378906 -0.0976562 4.203125 -0.203125 C 4.023438 -0.316406 3.820312 -0.503906 3.59375 -0.765625 L 3.421875 -0.765625 L 3 0 L 0.921875 0 L 0.921875 -10.625 L 3.59375 -10.625 L 3.59375 -8.21875 C 3.59375 -7.9375 3.5625 -7.441406 3.5 -6.734375 L 3.59375 -6.734375 C 3.851562 -7.140625 4.148438 -7.429688 4.484375 -7.609375 C 4.828125 -7.785156 5.210938 -7.875 5.640625 -7.875 Z M 4.671875 -5.78125 C 4.296875 -5.78125 4.019531 -5.648438 3.84375 -5.390625 C 3.675781 -5.128906 3.59375 -4.722656 3.59375 -4.171875 L 3.59375 -3.796875 C 3.59375 -3.160156 3.675781 -2.703125 3.84375 -2.421875 C 4.019531 -2.148438 4.304688 -2.015625 4.703125 -2.015625 C 5.015625 -2.015625 5.253906 -2.175781 5.421875 -2.5 C 5.585938 -2.820312 5.671875 -3.289062 5.671875 -3.90625 C 5.671875 -5.15625 5.335938 -5.78125 4.671875 -5.78125 Z M 4.671875 -5.78125 "/></g></g></g></g><g fill="#000000" fill-opacity="0.4"><g transform="translate(115.558216, 14.849912)"><g><path d="M 3.640625 -3.6875 L 2.578125 -3.6875 L 2.578125 0 L 0.859375 0 L 0.859375 -3.6875 L 0.203125 -3.6875 L 0.203125 -4.53125 L 0.890625 -4.953125 L 0.890625 -5.046875 C 0.890625 -5.703125 1.023438 -6.171875 1.296875 -6.453125 C 1.566406 -6.742188 1.992188 -6.890625 2.578125 -6.890625 C 2.804688 -6.890625 3.019531 -6.867188 3.21875 -6.828125 C 3.425781 -6.796875 3.664062 -6.738281 3.9375 -6.65625 L 3.578125 -5.53125 C 3.359375 -5.59375 3.148438 -5.625 2.953125 -5.625 C 2.816406 -5.625 2.71875 -5.582031 2.65625 -5.5 C 2.601562 -5.425781 2.578125 -5.296875 2.578125 -5.109375 L 2.578125 -4.984375 L 3.640625 -4.984375 Z M 3.640625 -3.6875 "/></g></g></g><g fill="#000000" fill-opacity="1"><g transform="translate(115.160664, 14.452363)"><g><path d="M 3.640625 -3.6875 L 2.578125 -3.6875 L 2.578125 0 L 0.859375 0 L 0.859375 -3.6875 L 0.203125 -3.6875 L 0.203125 -4.53125 L 0.890625 -4.953125 L 0.890625 -5.046875 C 0.890625 -5.703125 1.023438 -6.171875 1.296875 -6.453125 C 1.566406 -6.742188 1.992188 -6.890625 2.578125 -6.890625 C 2.804688 -6.890625 3.019531 -6.867188 3.21875 -6.828125 C 3.425781 -6.796875 3.664062 -6.738281 3.9375 -6.65625 L 3.578125 -5.53125 C 3.359375 -5.59375 3.148438 -5.625 2.953125 -5.625 C 2.816406 -5.625 2.71875 -5.582031 2.65625 -5.5 C 2.601562 -5.425781 2.578125 -5.296875 2.578125 -5.109375 L 2.578125 -4.984375 L 3.640625 -4.984375 Z M 3.640625 -3.6875 "/></g></g></g><g fill="#000000" fill-opacity="1"><g transform="translate(198.570824, 46.849333)"><g><path d="M 5.796875 0 L 5.796875 -4.21875 C 5.796875 -5.257812 5.488281 -5.78125 4.875 -5.78125 C 4.4375 -5.78125 4.113281 -5.59375 3.90625 -5.21875 C 3.695312 -4.851562 3.59375 -4.25 3.59375 -3.40625 L 3.59375 0 L 0.921875 0 L 0.921875 -10.625 L 3.59375 -10.625 L 3.59375 -9.109375 C 3.59375 -8.429688 3.554688 -7.65625 3.484375 -6.78125 L 3.609375 -6.78125 C 3.859375 -7.175781 4.160156 -7.457031 4.515625 -7.625 C 4.867188 -7.789062 5.273438 -7.875 5.734375 -7.875 C 6.597656 -7.875 7.269531 -7.625 7.75 -7.125 C 8.226562 -6.625 8.46875 -5.925781 8.46875 -5.03125 L 8.46875 0 Z M 5.796875 0 "/></g></g></g><g fill="#000000" fill-opacity="1"><g transform="translate(207.91829, 49.697786)"><g><path d="M 3.640625 -3.6875 L 2.578125 -3.6875 L 2.578125 0 L 0.859375 0 L 0.859375 -3.6875 L 0.203125 -3.6875 L 0.203125 -4.53125 L 0.890625 -4.953125 L 0.890625 -5.046875 C 0.890625 -5.703125 1.023438 -6.171875 1.296875 -6.453125 C 1.566406 -6.742188 1.992188 -6.890625 2.578125 -6.890625 C 2.804688 -6.890625 3.019531 -6.867188 3.21875 -6.828125 C 3.425781 -6.796875 3.664062 -6.738281 3.9375 -6.65625 L 3.578125 -5.53125 C 3.359375 -5.59375 3.148438 -5.625 2.953125 -5.625 C 2.816406 -5.625 2.71875 -5.582031 2.65625 -5.5 C 2.601562 -5.425781 2.578125 -5.296875 2.578125 -5.109375 L 2.578125 -4.984375 L 3.640625 -4.984375 Z M 3.640625 -3.6875 "/></g></g></g><g fill="#000000" fill-opacity="0.4"><g transform="translate(106.61314, 135.056667)"><g><path d="M 5.640625 -7.875 C 6.484375 -7.875 7.148438 -7.519531 7.640625 -6.8125 C 8.140625 -6.101562 8.390625 -5.128906 8.390625 -3.890625 C 8.390625 -2.628906 8.140625 -1.640625 7.640625 -0.921875 C 7.140625 -0.210938 6.445312 0.140625 5.5625 0.140625 C 5.28125 0.140625 5.023438 0.109375 4.796875 0.046875 C 4.578125 -0.015625 4.378906 -0.0976562 4.203125 -0.203125 C 4.023438 -0.316406 3.820312 -0.503906 3.59375 -0.765625 L 3.421875 -0.765625 L 3 0 L 0.921875 0 L 0.921875 -10.625 L 3.59375 -10.625 L 3.59375 -8.21875 C 3.59375 -7.9375 3.5625 -7.441406 3.5 -6.734375 L 3.59375 -6.734375 C 3.851562 -7.140625 4.148438 -7.429688 4.484375 -7.609375 C 4.828125 -7.785156 5.210938 -7.875 5.640625 -7.875 Z M 4.671875 -5.78125 C 4.296875 -5.78125 4.019531 -5.648438 3.84375 -5.390625 C 3.675781 -5.128906 3.59375 -4.722656 3.59375 -4.171875 L 3.59375 -3.796875 C 3.59375 -3.160156 3.675781 -2.703125 3.84375 -2.421875 C 4.019531 -2.148438 4.304688 -2.015625 4.703125 -2.015625 C 5.015625 -2.015625 5.253906 -2.175781 5.421875 -2.5 C 5.585938 -2.820312 5.671875 -3.289062 5.671875 -3.90625 C 5.671875 -5.15625 5.335938 -5.78125 4.671875 -5.78125 Z M 4.671875 -5.78125 "/></g></g></g><g fill="#000000" fill-opacity="1"><g transform="translate(105.994741, 134.43827)"><g><path d="M 5.640625 -7.875 C 6.484375 -7.875 7.148438 -7.519531 7.640625 -6.8125 C 8.140625 -6.101562 8.390625 -5.128906 8.390625 -3.890625 C 8.390625 -2.628906 8.140625 -1.640625 7.640625 -0.921875 C 7.140625 -0.210938 6.445312 0.140625 5.5625 0.140625 C 5.28125 0.140625 5.023438 0.109375 4.796875 0.046875 C 4.578125 -0.015625 4.378906 -0.0976562 4.203125 -0.203125 C 4.023438 -0.316406 3.820312 -0.503906 3.59375 -0.765625 L 3.421875 -0.765625 L 3 0 L 0.921875 0 L 0.921875 -10.625 L 3.59375 -10.625 L 3.59375 -8.21875 C 3.59375 -7.9375 3.5625 -7.441406 3.5 -6.734375 L 3.59375 -6.734375 C 3.851562 -7.140625 4.148438 -7.429688 4.484375 -7.609375 C 4.828125 -7.785156 5.210938 -7.875 5.640625 -7.875 Z M 4.671875 -5.78125 C 4.296875 -5.78125 4.019531 -5.648438 3.84375 -5.390625 C 3.675781 -5.128906 3.59375 -4.722656 3.59375 -4.171875 L 3.59375 -3.796875 C 3.59375 -3.160156 3.675781 -2.703125 3.84375 -2.421875 C 4.019531 -2.148438 4.304688 -2.015625 4.703125 -2.015625 C 5.015625 -2.015625 5.253906 -2.175781 5.421875 -2.5 C 5.585938 -2.820312 5.671875 -3.289062 5.671875 -3.90625 C 5.671875 -5.15625 5.335938 -5.78125 4.671875 -5.78125 Z M 4.671875 -5.78125 "/></g></g></g><g fill="#000000" fill-opacity="0.4"><g transform="translate(115.558216, 136.934665)"><g><path d="M 4.875 0 L 4.3125 -2.375 L 4.1875 -3.09375 L 4.09375 -3.671875 L 4.0625 -3.671875 C 3.925781 -2.847656 3.832031 -2.328125 3.78125 -2.109375 L 3.28125 0 L 1.46875 0 L 0.109375 -4.984375 L 1.796875 -4.984375 L 2.203125 -3.0625 C 2.335938 -2.40625 2.414062 -1.863281 2.4375 -1.4375 L 2.453125 -1.4375 C 2.460938 -1.707031 2.546875 -2.21875 2.703125 -2.96875 L 3.15625 -4.984375 L 5.0625 -4.984375 L 5.484375 -2.9375 C 5.617188 -2.289062 5.703125 -1.789062 5.734375 -1.4375 L 5.765625 -1.4375 C 5.773438 -1.65625 5.800781 -1.929688 5.84375 -2.265625 C 5.882812 -2.597656 5.929688 -2.863281 5.984375 -3.0625 L 6.421875 -4.984375 L 8.078125 -4.984375 L 6.71875 0 Z M 4.875 0 "/></g></g></g><g fill="#000000" fill-opacity="1"><g transform="translate(115.160664, 136.537113)"><g><path d="M 4.875 0 L 4.3125 -2.375 L 4.1875 -3.09375 L 4.09375 -3.671875 L 4.0625 -3.671875 C 3.925781 -2.847656 3.832031 -2.328125 3.78125 -2.109375 L 3.28125 0 L 1.46875 0 L 0.109375 -4.984375 L 1.796875 -4.984375 L 2.203125 -3.0625 C 2.335938 -2.40625 2.414062 -1.863281 2.4375 -1.4375 L 2.453125 -1.4375 C 2.460938 -1.707031 2.546875 -2.21875 2.703125 -2.96875 L 3.15625 -4.984375 L 5.0625 -4.984375 L 5.484375 -2.9375 C 5.617188 -2.289062 5.703125 -1.789062 5.734375 -1.4375 L 5.765625 -1.4375 C 5.773438 -1.65625 5.800781 -1.929688 5.84375 -2.265625 C 5.882812 -2.597656 5.929688 -2.863281 5.984375 -3.0625 L 6.421875 -4.984375 L 8.078125 -4.984375 L 6.71875 0 Z M 4.875 0 "/></g></g></g><path fill="#000000" d="M 167.570312 163.242188 L 165.546875 162.296875 L 165.867188 161.617188 L 167.886719 162.566406 M 164.875 161.984375 L 162.851562 161.035156 L 163.167969 160.359375 L 165.191406 161.304688 M 162.175781 160.722656 L 160.15625 159.773438 L 160.472656 159.097656 L 162.496094 160.042969 M 159.480469 159.460938 L 157.457031 158.515625 L 157.777344 157.835938 L 159.796875 158.78125 M 156.785156 158.199219 L 154.761719 157.253906 L 155.078125 156.574219 L 157.101562 157.519531 M 154.085938 156.9375 L 152.0625 155.992188 L 152.382812 155.3125 L 154.40625 156.257812 M 151.390625 155.675781 L 149.367188 154.730469 L 149.683594 154.050781 L 151.707031 154.996094 M 148.695312 154.414062 L 146.671875 153.46875 L 146.988281 152.789062 L 149.011719 153.734375 M 145.996094 153.152344 L 143.972656 152.207031 L 144.292969 151.527344 L 146.3125 152.472656 M 143.300781 151.890625 L 141.277344 150.945312 L 141.59375 150.265625 L 143.617188 151.210938 M 140.601562 150.628906 L 138.582031 149.683594 L 138.898438 149.003906 L 140.921875 149.949219 M 137.90625 149.367188 L 136.335938 148.632812 L 136.652344 147.953125 L 138.222656 148.691406 " fill-opacity="1" fill-rule="nonzero"/><path fill="#000000" d="M 56.9375 161.8125 L 58.96875 160.886719 L 59.28125 161.566406 L 57.25 162.496094 M 59.648438 160.578125 L 61.679688 159.648438 L 61.988281 160.332031 L 59.957031 161.257812 M 62.355469 159.339844 L 64.386719 158.414062 L 64.699219 159.09375 L 62.667969 160.023438 M 65.0625 158.101562 L 67.09375 157.175781 L 67.40625 157.859375 L 65.375 158.785156 M 67.769531 156.867188 L 69.800781 155.941406 L 70.113281 156.621094 L 68.082031 157.550781 M 70.480469 155.628906 L 72.511719 154.703125 L 72.820312 155.386719 L 70.789062 156.3125 M 73.1875 154.394531 L 75.21875 153.46875 L 75.53125 154.148438 L 73.5 155.074219 M 75.894531 153.15625 L 77.925781 152.230469 L 78.238281 152.914062 L 76.207031 153.839844 M 78.605469 151.921875 L 80.636719 150.996094 L 80.945312 151.675781 L 78.914062 152.601562 M 81.3125 150.683594 L 83.34375 149.757812 L 83.65625 150.441406 L 81.625 151.367188 M 84.019531 149.449219 L 86.050781 148.519531 L 86.363281 149.203125 L 84.332031 150.128906 M 86.730469 148.210938 L 88.308594 147.492188 L 88.617188 148.175781 L 87.039062 148.894531 " fill-opacity="1" fill-rule="nonzero"/><path stroke-linecap="butt" transform="matrix(0.550103, -0.550103, 0.530047, 0.530047, 166.335844, 141.683819)" fill="none" stroke-linejoin="miter" d="M 0.000289093 -0.000124154 L 8.684742 -0.000124154 " stroke="#03989e" stroke-width="1" stroke-opacity="1" stroke-miterlimit="4"/><path stroke-linecap="butt" transform="matrix(0.747653, 0, 0, 0.7496, 136.863815, 139.385564)" fill="none" stroke-linejoin="miter" d="M -0.000714194 0.00153999 L 42.115462 0.00153999 " stroke="#03989e" stroke-width="1" stroke-opacity="1" stroke-miterlimit="4"/><path stroke-linecap="butt" transform="matrix(0.550103, -0.550103, 0.530047, 0.530047, 133.061381, 142.058619)" fill="none" stroke-linejoin="miter" d="M 0.00103927 0.00103179 L 8.685492 0.00103179 " stroke="#03989e" stroke-width="1" stroke-opacity="1" stroke-miterlimit="4"/><path stroke-linecap="butt" transform="matrix(0.000000000000000046, -0.753779, 0.7496, 0.000000000000000046, 175.646446, 162.494557)" fill="none" stroke-linejoin="miter" d="M -0.00203818 -0.00255486 L 30.826991 -0.00255486 " stroke="#03989e" stroke-width="1" stroke-opacity="1" stroke-miterlimit="4"/><path stroke-linecap="butt" transform="matrix(0.550103, -0.550103, 0.530047, 0.530047, 172.968648, 142.401635)" fill="none" stroke-linejoin="miter" d="M -0.000550611 0.000764782 L 8.683902 0.000764782 " stroke="#03989e" stroke-width="1" stroke-opacity="1" stroke-miterlimit="4"/><path stroke-linecap="butt" transform="matrix(0.550103, -0.550103, 0.530047, 0.530047, 172.968648, 165.542635)" fill="none" stroke-linejoin="miter" d="M -0.000210535 0.000411839 L 8.684242 0.000411839 " stroke="#03989e" stroke-width="1" stroke-opacity="1" stroke-miterlimit="4"/><g fill="#03989e" fill-opacity="0.4"><g transform="translate(141.378647, 131.84019)"><g><path d="M 5.640625 -7.875 C 6.484375 -7.875 7.148438 -7.519531 7.640625 -6.8125 C 8.140625 -6.101562 8.390625 -5.128906 8.390625 -3.890625 C 8.390625 -2.628906 8.140625 -1.640625 7.640625 -0.921875 C 7.140625 -0.210938 6.445312 0.140625 5.5625 0.140625 C 5.28125 0.140625 5.023438 0.109375 4.796875 0.046875 C 4.578125 -0.015625 4.378906 -0.0976562 4.203125 -0.203125 C 4.023438 -0.316406 3.820312 -0.503906 3.59375 -0.765625 L 3.421875 -0.765625 L 3 0 L 0.921875 0 L 0.921875 -10.625 L 3.59375 -10.625 L 3.59375 -8.21875 C 3.59375 -7.9375 3.5625 -7.441406 3.5 -6.734375 L 3.59375 -6.734375 C 3.851562 -7.140625 4.148438 -7.429688 4.484375 -7.609375 C 4.828125 -7.785156 5.210938 -7.875 5.640625 -7.875 Z M 4.671875 -5.78125 C 4.296875 -5.78125 4.019531 -5.648438 3.84375 -5.390625 C 3.675781 -5.128906 3.59375 -4.722656 3.59375 -4.171875 L 3.59375 -3.796875 C 3.59375 -3.160156 3.675781 -2.703125 3.84375 -2.421875 C 4.019531 -2.148438 4.304688 -2.015625 4.703125 -2.015625 C 5.015625 -2.015625 5.253906 -2.175781 5.421875 -2.5 C 5.585938 -2.820312 5.671875 -3.289062 5.671875 -3.90625 C 5.671875 -5.15625 5.335938 -5.78125 4.671875 -5.78125 Z M 4.671875 -5.78125 "/></g></g></g><g fill="#03989e" fill-opacity="1"><g transform="translate(140.760257, 131.22179)"><g><path d="M 5.640625 -7.875 C 6.484375 -7.875 7.148438 -7.519531 7.640625 -6.8125 C 8.140625 -6.101562 8.390625 -5.128906 8.390625 -3.890625 C 8.390625 -2.628906 8.140625 -1.640625 7.640625 -0.921875 C 7.140625 -0.210938 6.445312 0.140625 5.5625 0.140625 C 5.28125 0.140625 5.023438 0.109375 4.796875 0.046875 C 4.578125 -0.015625 4.378906 -0.0976562 4.203125 -0.203125 C 4.023438 -0.316406 3.820312 -0.503906 3.59375 -0.765625 L 3.421875 -0.765625 L 3 0 L 0.921875 0 L 0.921875 -10.625 L 3.59375 -10.625 L 3.59375 -8.21875 C 3.59375 -7.9375 3.5625 -7.441406 3.5 -6.734375 L 3.59375 -6.734375 C 3.851562 -7.140625 4.148438 -7.429688 4.484375 -7.609375 C 4.828125 -7.785156 5.210938 -7.875 5.640625 -7.875 Z M 4.671875 -5.78125 C 4.296875 -5.78125 4.019531 -5.648438 3.84375 -5.390625 C 3.675781 -5.128906 3.59375 -4.722656 3.59375 -4.171875 L 3.59375 -3.796875 C 3.59375 -3.160156 3.675781 -2.703125 3.84375 -2.421875 C 4.019531 -2.148438 4.304688 -2.015625 4.703125 -2.015625 C 5.015625 -2.015625 5.253906 -2.175781 5.421875 -2.5 C 5.585938 -2.820312 5.671875 -3.289062 5.671875 -3.90625 C 5.671875 -5.15625 5.335938 -5.78125 4.671875 -5.78125 Z M 4.671875 -5.78125 "/></g></g></g><g fill="#03989e" fill-opacity="0.4"><g transform="translate(150.137971, 135.117455)"><g><path d="M 6.703125 0 L 6.703125 -2.703125 C 6.703125 -3.046875 6.65625 -3.300781 6.5625 -3.46875 C 6.46875 -3.632812 6.320312 -3.71875 6.125 -3.71875 C 5.863281 -3.71875 5.671875 -3.601562 5.546875 -3.375 C 5.421875 -3.15625 5.359375 -2.804688 5.359375 -2.328125 L 5.359375 0 L 3.640625 0 L 3.640625 -2.703125 C 3.640625 -3.046875 3.59375 -3.300781 3.5 -3.46875 C 3.414062 -3.632812 3.273438 -3.71875 3.078125 -3.71875 C 2.816406 -3.71875 2.625 -3.597656 2.5 -3.359375 C 2.375 -3.117188 2.3125 -2.726562 2.3125 -2.1875 L 2.3125 0 L 0.59375 0 L 0.59375 -4.984375 L 1.890625 -4.984375 L 2.109375 -4.359375 L 2.203125 -4.359375 C 2.335938 -4.585938 2.53125 -4.757812 2.78125 -4.875 C 3.03125 -5 3.316406 -5.0625 3.640625 -5.0625 C 4.359375 -5.0625 4.859375 -4.84375 5.140625 -4.40625 L 5.28125 -4.40625 C 5.425781 -4.613281 5.625 -4.773438 5.875 -4.890625 C 6.125 -5.003906 6.398438 -5.0625 6.703125 -5.0625 C 7.285156 -5.0625 7.71875 -4.910156 8 -4.609375 C 8.28125 -4.304688 8.421875 -3.847656 8.421875 -3.234375 L 8.421875 0 Z M 6.703125 0 "/></g></g><g transform="translate(159.13317, 135.117455)"><g><path d="M 2.328125 0 L 0.609375 0 L 0.609375 -4.984375 L 2.328125 -4.984375 Z M 0.5625 -6.21875 C 0.5625 -6.476562 0.628906 -6.671875 0.765625 -6.796875 C 0.910156 -6.921875 1.144531 -6.984375 1.46875 -6.984375 C 1.789062 -6.984375 2.023438 -6.914062 2.171875 -6.78125 C 2.316406 -6.65625 2.390625 -6.46875 2.390625 -6.21875 C 2.390625 -5.71875 2.082031 -5.46875 1.46875 -5.46875 C 0.863281 -5.46875 0.5625 -5.71875 0.5625 -6.21875 Z M 0.5625 -6.21875 "/></g></g><g transform="translate(162.058367, 135.117455)"><g><path d="M 4.4375 -1.53125 C 4.4375 -1 4.253906 -0.59375 3.890625 -0.3125 C 3.523438 -0.0390625 3.003906 0.09375 2.328125 0.09375 C 1.960938 0.09375 1.640625 0.0703125 1.359375 0.03125 C 1.085938 -0.0078125 0.8125 -0.0820312 0.53125 -0.1875 L 0.53125 -1.5625 C 0.800781 -1.445312 1.09375 -1.347656 1.40625 -1.265625 C 1.726562 -1.191406 2.015625 -1.15625 2.265625 -1.15625 C 2.628906 -1.15625 2.8125 -1.242188 2.8125 -1.421875 C 2.8125 -1.503906 2.757812 -1.578125 2.65625 -1.640625 C 2.550781 -1.710938 2.25 -1.847656 1.75 -2.046875 C 1.289062 -2.234375 0.96875 -2.445312 0.78125 -2.6875 C 0.601562 -2.925781 0.515625 -3.226562 0.515625 -3.59375 C 0.515625 -4.0625 0.691406 -4.421875 1.046875 -4.671875 C 1.410156 -4.929688 1.921875 -5.0625 2.578125 -5.0625 C 2.898438 -5.0625 3.207031 -5.023438 3.5 -4.953125 C 3.789062 -4.890625 4.09375 -4.785156 4.40625 -4.640625 L 3.9375 -3.53125 C 3.707031 -3.632812 3.460938 -3.722656 3.203125 -3.796875 C 2.953125 -3.867188 2.742188 -3.90625 2.578125 -3.90625 C 2.296875 -3.90625 2.15625 -3.835938 2.15625 -3.703125 C 2.15625 -3.617188 2.203125 -3.546875 2.296875 -3.484375 C 2.398438 -3.421875 2.6875 -3.296875 3.15625 -3.109375 C 3.507812 -2.972656 3.769531 -2.832031 3.9375 -2.6875 C 4.113281 -2.550781 4.238281 -2.390625 4.3125 -2.203125 C 4.394531 -2.015625 4.4375 -1.789062 4.4375 -1.53125 Z M 4.4375 -1.53125 "/></g></g><g transform="translate(166.854635, 135.117455)"><g/></g><g transform="translate(169.191279, 135.117455)"><g><path d="M 0.1875 -1.734375 L 0.1875 -3.09375 L 2.671875 -3.09375 L 2.671875 -1.734375 Z M 0.1875 -1.734375 "/></g></g><g transform="translate(172.050592, 135.117455)"><g/></g><g transform="translate(174.387236, 135.117455)"><g><path d="M 2.328125 0 L 0.609375 0 L 0.609375 -4.984375 L 2.328125 -4.984375 Z M 0.5625 -6.21875 C 0.5625 -6.476562 0.628906 -6.671875 0.765625 -6.796875 C 0.910156 -6.921875 1.144531 -6.984375 1.46875 -6.984375 C 1.789062 -6.984375 2.023438 -6.914062 2.171875 -6.78125 C 2.316406 -6.65625 2.390625 -6.46875 2.390625 -6.21875 C 2.390625 -5.71875 2.082031 -5.46875 1.46875 -5.46875 C 0.863281 -5.46875 0.5625 -5.71875 0.5625 -6.21875 Z M 0.5625 -6.21875 "/></g></g><g transform="translate(177.312433, 135.117455)"><g><path d="M 3.734375 0 L 3.734375 -2.71875 C 3.734375 -3.050781 3.6875 -3.300781 3.59375 -3.46875 C 3.5 -3.632812 3.347656 -3.71875 3.140625 -3.71875 C 2.847656 -3.71875 2.632812 -3.601562 2.5 -3.375 C 2.375 -3.144531 2.3125 -2.75 2.3125 -2.1875 L 2.3125 0 L 0.59375 0 L 0.59375 -4.984375 L 1.890625 -4.984375 L 2.109375 -4.359375 L 2.203125 -4.359375 C 2.347656 -4.597656 2.550781 -4.773438 2.8125 -4.890625 C 3.070312 -5.003906 3.367188 -5.0625 3.703125 -5.0625 C 4.253906 -5.0625 4.679688 -4.898438 4.984375 -4.578125 C 5.296875 -4.265625 5.453125 -3.816406 5.453125 -3.234375 L 5.453125 0 Z M 3.734375 0 "/></g></g><g transform="translate(183.338513, 135.117455)"><g><path d="M 3.640625 -3.6875 L 2.578125 -3.6875 L 2.578125 0 L 0.859375 0 L 0.859375 -3.6875 L 0.203125 -3.6875 L 0.203125 -4.53125 L 0.890625 -4.953125 L 0.890625 -5.046875 C 0.890625 -5.703125 1.023438 -6.171875 1.296875 -6.453125 C 1.566406 -6.742188 1.992188 -6.890625 2.578125 -6.890625 C 2.804688 -6.890625 3.019531 -6.867188 3.21875 -6.828125 C 3.425781 -6.796875 3.664062 -6.738281 3.9375 -6.65625 L 3.578125 -5.53125 C 3.359375 -5.59375 3.148438 -5.625 2.953125 -5.625 C 2.816406 -5.625 2.71875 -5.582031 2.65625 -5.5 C 2.601562 -5.425781 2.578125 -5.296875 2.578125 -5.109375 L 2.578125 -4.984375 L 3.640625 -4.984375 Z M 3.640625 -3.6875 "/></g></g></g><g fill="#03989e" fill-opacity="1"><g transform="translate(149.740419, 134.719903)"><g><path d="M 6.703125 0 L 6.703125 -2.703125 C 6.703125 -3.046875 6.65625 -3.300781 6.5625 -3.46875 C 6.46875 -3.632812 6.320312 -3.71875 6.125 -3.71875 C 5.863281 -3.71875 5.671875 -3.601562 5.546875 -3.375 C 5.421875 -3.15625 5.359375 -2.804688 5.359375 -2.328125 L 5.359375 0 L 3.640625 0 L 3.640625 -2.703125 C 3.640625 -3.046875 3.59375 -3.300781 3.5 -3.46875 C 3.414062 -3.632812 3.273438 -3.71875 3.078125 -3.71875 C 2.816406 -3.71875 2.625 -3.597656 2.5 -3.359375 C 2.375 -3.117188 2.3125 -2.726562 2.3125 -2.1875 L 2.3125 0 L 0.59375 0 L 0.59375 -4.984375 L 1.890625 -4.984375 L 2.109375 -4.359375 L 2.203125 -4.359375 C 2.335938 -4.585938 2.53125 -4.757812 2.78125 -4.875 C 3.03125 -5 3.316406 -5.0625 3.640625 -5.0625 C 4.359375 -5.0625 4.859375 -4.84375 5.140625 -4.40625 L 5.28125 -4.40625 C 5.425781 -4.613281 5.625 -4.773438 5.875 -4.890625 C 6.125 -5.003906 6.398438 -5.0625 6.703125 -5.0625 C 7.285156 -5.0625 7.71875 -4.910156 8 -4.609375 C 8.28125 -4.304688 8.421875 -3.847656 8.421875 -3.234375 L 8.421875 0 Z M 6.703125 0 "/></g></g><g transform="translate(158.735618, 134.719903)"><g><path d="M 2.328125 0 L 0.609375 0 L 0.609375 -4.984375 L 2.328125 -4.984375 Z M 0.5625 -6.21875 C 0.5625 -6.476562 0.628906 -6.671875 0.765625 -6.796875 C 0.910156 -6.921875 1.144531 -6.984375 1.46875 -6.984375 C 1.789062 -6.984375 2.023438 -6.914062 2.171875 -6.78125 C 2.316406 -6.65625 2.390625 -6.46875 2.390625 -6.21875 C 2.390625 -5.71875 2.082031 -5.46875 1.46875 -5.46875 C 0.863281 -5.46875 0.5625 -5.71875 0.5625 -6.21875 Z M 0.5625 -6.21875 "/></g></g><g transform="translate(161.660815, 134.719903)"><g><path d="M 4.4375 -1.53125 C 4.4375 -1 4.253906 -0.59375 3.890625 -0.3125 C 3.523438 -0.0390625 3.003906 0.09375 2.328125 0.09375 C 1.960938 0.09375 1.640625 0.0703125 1.359375 0.03125 C 1.085938 -0.0078125 0.8125 -0.0820312 0.53125 -0.1875 L 0.53125 -1.5625 C 0.800781 -1.445312 1.09375 -1.347656 1.40625 -1.265625 C 1.726562 -1.191406 2.015625 -1.15625 2.265625 -1.15625 C 2.628906 -1.15625 2.8125 -1.242188 2.8125 -1.421875 C 2.8125 -1.503906 2.757812 -1.578125 2.65625 -1.640625 C 2.550781 -1.710938 2.25 -1.847656 1.75 -2.046875 C 1.289062 -2.234375 0.96875 -2.445312 0.78125 -2.6875 C 0.601562 -2.925781 0.515625 -3.226562 0.515625 -3.59375 C 0.515625 -4.0625 0.691406 -4.421875 1.046875 -4.671875 C 1.410156 -4.929688 1.921875 -5.0625 2.578125 -5.0625 C 2.898438 -5.0625 3.207031 -5.023438 3.5 -4.953125 C 3.789062 -4.890625 4.09375 -4.785156 4.40625 -4.640625 L 3.9375 -3.53125 C 3.707031 -3.632812 3.460938 -3.722656 3.203125 -3.796875 C 2.953125 -3.867188 2.742188 -3.90625 2.578125 -3.90625 C 2.296875 -3.90625 2.15625 -3.835938 2.15625 -3.703125 C 2.15625 -3.617188 2.203125 -3.546875 2.296875 -3.484375 C 2.398438 -3.421875 2.6875 -3.296875 3.15625 -3.109375 C 3.507812 -2.972656 3.769531 -2.832031 3.9375 -2.6875 C 4.113281 -2.550781 4.238281 -2.390625 4.3125 -2.203125 C 4.394531 -2.015625 4.4375 -1.789062 4.4375 -1.53125 Z M 4.4375 -1.53125 "/></g></g><g transform="translate(166.457083, 134.719903)"><g/></g><g transform="translate(168.793727, 134.719903)"><g><path d="M 0.1875 -1.734375 L 0.1875 -3.09375 L 2.671875 -3.09375 L 2.671875 -1.734375 Z M 0.1875 -1.734375 "/></g></g><g transform="translate(171.653041, 134.719903)"><g/></g><g transform="translate(173.989684, 134.719903)"><g><path d="M 2.328125 0 L 0.609375 0 L 0.609375 -4.984375 L 2.328125 -4.984375 Z M 0.5625 -6.21875 C 0.5625 -6.476562 0.628906 -6.671875 0.765625 -6.796875 C 0.910156 -6.921875 1.144531 -6.984375 1.46875 -6.984375 C 1.789062 -6.984375 2.023438 -6.914062 2.171875 -6.78125 C 2.316406 -6.65625 2.390625 -6.46875 2.390625 -6.21875 C 2.390625 -5.71875 2.082031 -5.46875 1.46875 -5.46875 C 0.863281 -5.46875 0.5625 -5.71875 0.5625 -6.21875 Z M 0.5625 -6.21875 "/></g></g><g transform="translate(176.914881, 134.719903)"><g><path d="M 3.734375 0 L 3.734375 -2.71875 C 3.734375 -3.050781 3.6875 -3.300781 3.59375 -3.46875 C 3.5 -3.632812 3.347656 -3.71875 3.140625 -3.71875 C 2.847656 -3.71875 2.632812 -3.601562 2.5 -3.375 C 2.375 -3.144531 2.3125 -2.75 2.3125 -2.1875 L 2.3125 0 L 0.59375 0 L 0.59375 -4.984375 L 1.890625 -4.984375 L 2.109375 -4.359375 L 2.203125 -4.359375 C 2.347656 -4.597656 2.550781 -4.773438 2.8125 -4.890625 C 3.070312 -5.003906 3.367188 -5.0625 3.703125 -5.0625 C 4.253906 -5.0625 4.679688 -4.898438 4.984375 -4.578125 C 5.296875 -4.265625 5.453125 -3.816406 5.453125 -3.234375 L 5.453125 0 Z M 3.734375 0 "/></g></g><g transform="translate(182.940961, 134.719903)"><g><path d="M 3.640625 -3.6875 L 2.578125 -3.6875 L 2.578125 0 L 0.859375 0 L 0.859375 -3.6875 L 0.203125 -3.6875 L 0.203125 -4.53125 L 0.890625 -4.953125 L 0.890625 -5.046875 C 0.890625 -5.703125 1.023438 -6.171875 1.296875 -6.453125 C 1.566406 -6.742188 1.992188 -6.890625 2.578125 -6.890625 C 2.804688 -6.890625 3.019531 -6.867188 3.21875 -6.828125 C 3.425781 -6.796875 3.664062 -6.738281 3.9375 -6.65625 L 3.578125 -5.53125 C 3.359375 -5.59375 3.148438 -5.625 2.953125 -5.625 C 2.816406 -5.625 2.71875 -5.582031 2.65625 -5.5 C 2.601562 -5.425781 2.578125 -5.296875 2.578125 -5.109375 L 2.578125 -4.984375 L 3.640625 -4.984375 Z M 3.640625 -3.6875 "/></g></g></g><g fill="#03989e" fill-opacity="0.4"><g transform="translate(177.435003, 157.056197)"><g><path d="M 5.796875 0 L 5.796875 -4.21875 C 5.796875 -5.257812 5.488281 -5.78125 4.875 -5.78125 C 4.4375 -5.78125 4.113281 -5.59375 3.90625 -5.21875 C 3.695312 -4.851562 3.59375 -4.25 3.59375 -3.40625 L 3.59375 0 L 0.921875 0 L 0.921875 -10.625 L 3.59375 -10.625 L 3.59375 -9.109375 C 3.59375 -8.429688 3.554688 -7.65625 3.484375 -6.78125 L 3.609375 -6.78125 C 3.859375 -7.175781 4.160156 -7.457031 4.515625 -7.625 C 4.867188 -7.789062 5.273438 -7.875 5.734375 -7.875 C 6.597656 -7.875 7.269531 -7.625 7.75 -7.125 C 8.226562 -6.625 8.46875 -5.925781 8.46875 -5.03125 L 8.46875 0 Z M 5.796875 0 "/></g></g></g><g fill="#03989e" fill-opacity="1"><g transform="translate(176.816613, 156.437807)"><g><path d="M 5.796875 0 L 5.796875 -4.21875 C 5.796875 -5.257812 5.488281 -5.78125 4.875 -5.78125 C 4.4375 -5.78125 4.113281 -5.59375 3.90625 -5.21875 C 3.695312 -4.851562 3.59375 -4.25 3.59375 -3.40625 L 3.59375 0 L 0.921875 0 L 0.921875 -10.625 L 3.59375 -10.625 L 3.59375 -9.109375 C 3.59375 -8.429688 3.554688 -7.65625 3.484375 -6.78125 L 3.609375 -6.78125 C 3.859375 -7.175781 4.160156 -7.457031 4.515625 -7.625 C 4.867188 -7.789062 5.273438 -7.875 5.734375 -7.875 C 6.597656 -7.875 7.269531 -7.625 7.75 -7.125 C 8.226562 -6.625 8.46875 -5.925781 8.46875 -5.03125 L 8.46875 0 Z M 5.796875 0 "/></g></g></g><g fill="#03989e" fill-opacity="0.4"><g transform="translate(185.73224, 160.303955)"><g><path d="M 6.703125 0 L 6.703125 -2.703125 C 6.703125 -3.046875 6.65625 -3.300781 6.5625 -3.46875 C 6.46875 -3.632812 6.320312 -3.71875 6.125 -3.71875 C 5.863281 -3.71875 5.671875 -3.601562 5.546875 -3.375 C 5.421875 -3.15625 5.359375 -2.804688 5.359375 -2.328125 L 5.359375 0 L 3.640625 0 L 3.640625 -2.703125 C 3.640625 -3.046875 3.59375 -3.300781 3.5 -3.46875 C 3.414062 -3.632812 3.273438 -3.71875 3.078125 -3.71875 C 2.816406 -3.71875 2.625 -3.597656 2.5 -3.359375 C 2.375 -3.117188 2.3125 -2.726562 2.3125 -2.1875 L 2.3125 0 L 0.59375 0 L 0.59375 -4.984375 L 1.890625 -4.984375 L 2.109375 -4.359375 L 2.203125 -4.359375 C 2.335938 -4.585938 2.53125 -4.757812 2.78125 -4.875 C 3.03125 -5 3.316406 -5.0625 3.640625 -5.0625 C 4.359375 -5.0625 4.859375 -4.84375 5.140625 -4.40625 L 5.28125 -4.40625 C 5.425781 -4.613281 5.625 -4.773438 5.875 -4.890625 C 6.125 -5.003906 6.398438 -5.0625 6.703125 -5.0625 C 7.285156 -5.0625 7.71875 -4.910156 8 -4.609375 C 8.28125 -4.304688 8.421875 -3.847656 8.421875 -3.234375 L 8.421875 0 Z M 6.703125 0 "/></g></g><g transform="translate(194.72744, 160.303955)"><g><path d="M 2.328125 0 L 0.609375 0 L 0.609375 -4.984375 L 2.328125 -4.984375 Z M 0.5625 -6.21875 C 0.5625 -6.476562 0.628906 -6.671875 0.765625 -6.796875 C 0.910156 -6.921875 1.144531 -6.984375 1.46875 -6.984375 C 1.789062 -6.984375 2.023438 -6.914062 2.171875 -6.78125 C 2.316406 -6.65625 2.390625 -6.46875 2.390625 -6.21875 C 2.390625 -5.71875 2.082031 -5.46875 1.46875 -5.46875 C 0.863281 -5.46875 0.5625 -5.71875 0.5625 -6.21875 Z M 0.5625 -6.21875 "/></g></g><g transform="translate(197.652636, 160.303955)"><g><path d="M 4.4375 -1.53125 C 4.4375 -1 4.253906 -0.59375 3.890625 -0.3125 C 3.523438 -0.0390625 3.003906 0.09375 2.328125 0.09375 C 1.960938 0.09375 1.640625 0.0703125 1.359375 0.03125 C 1.085938 -0.0078125 0.8125 -0.0820312 0.53125 -0.1875 L 0.53125 -1.5625 C 0.800781 -1.445312 1.09375 -1.347656 1.40625 -1.265625 C 1.726562 -1.191406 2.015625 -1.15625 2.265625 -1.15625 C 2.628906 -1.15625 2.8125 -1.242188 2.8125 -1.421875 C 2.8125 -1.503906 2.757812 -1.578125 2.65625 -1.640625 C 2.550781 -1.710938 2.25 -1.847656 1.75 -2.046875 C 1.289062 -2.234375 0.96875 -2.445312 0.78125 -2.6875 C 0.601562 -2.925781 0.515625 -3.226562 0.515625 -3.59375 C 0.515625 -4.0625 0.691406 -4.421875 1.046875 -4.671875 C 1.410156 -4.929688 1.921875 -5.0625 2.578125 -5.0625 C 2.898438 -5.0625 3.207031 -5.023438 3.5 -4.953125 C 3.789062 -4.890625 4.09375 -4.785156 4.40625 -4.640625 L 3.9375 -3.53125 C 3.707031 -3.632812 3.460938 -3.722656 3.203125 -3.796875 C 2.953125 -3.867188 2.742188 -3.90625 2.578125 -3.90625 C 2.296875 -3.90625 2.15625 -3.835938 2.15625 -3.703125 C 2.15625 -3.617188 2.203125 -3.546875 2.296875 -3.484375 C 2.398438 -3.421875 2.6875 -3.296875 3.15625 -3.109375 C 3.507812 -2.972656 3.769531 -2.832031 3.9375 -2.6875 C 4.113281 -2.550781 4.238281 -2.390625 4.3125 -2.203125 C 4.394531 -2.015625 4.4375 -1.789062 4.4375 -1.53125 Z M 4.4375 -1.53125 "/></g></g><g transform="translate(202.448905, 160.303955)"><g/></g><g transform="translate(204.785548, 160.303955)"><g><path d="M 0.1875 -1.734375 L 0.1875 -3.09375 L 2.671875 -3.09375 L 2.671875 -1.734375 Z M 0.1875 -1.734375 "/></g></g><g transform="translate(207.644862, 160.303955)"><g/></g><g transform="translate(209.981506, 160.303955)"><g><path d="M 2.328125 0 L 0.609375 0 L 0.609375 -4.984375 L 2.328125 -4.984375 Z M 0.5625 -6.21875 C 0.5625 -6.476562 0.628906 -6.671875 0.765625 -6.796875 C 0.910156 -6.921875 1.144531 -6.984375 1.46875 -6.984375 C 1.789062 -6.984375 2.023438 -6.914062 2.171875 -6.78125 C 2.316406 -6.65625 2.390625 -6.46875 2.390625 -6.21875 C 2.390625 -5.71875 2.082031 -5.46875 1.46875 -5.46875 C 0.863281 -5.46875 0.5625 -5.71875 0.5625 -6.21875 Z M 0.5625 -6.21875 "/></g></g><g transform="translate(212.906702, 160.303955)"><g><path d="M 3.734375 0 L 3.734375 -2.71875 C 3.734375 -3.050781 3.6875 -3.300781 3.59375 -3.46875 C 3.5 -3.632812 3.347656 -3.71875 3.140625 -3.71875 C 2.847656 -3.71875 2.632812 -3.601562 2.5 -3.375 C 2.375 -3.144531 2.3125 -2.75 2.3125 -2.1875 L 2.3125 0 L 0.59375 0 L 0.59375 -4.984375 L 1.890625 -4.984375 L 2.109375 -4.359375 L 2.203125 -4.359375 C 2.347656 -4.597656 2.550781 -4.773438 2.8125 -4.890625 C 3.070312 -5.003906 3.367188 -5.0625 3.703125 -5.0625 C 4.253906 -5.0625 4.679688 -4.898438 4.984375 -4.578125 C 5.296875 -4.265625 5.453125 -3.816406 5.453125 -3.234375 L 5.453125 0 Z M 3.734375 0 "/></g></g><g transform="translate(218.932783, 160.303955)"><g><path d="M 3.640625 -3.6875 L 2.578125 -3.6875 L 2.578125 0 L 0.859375 0 L 0.859375 -3.6875 L 0.203125 -3.6875 L 0.203125 -4.53125 L 0.890625 -4.953125 L 0.890625 -5.046875 C 0.890625 -5.703125 1.023438 -6.171875 1.296875 -6.453125 C 1.566406 -6.742188 1.992188 -6.890625 2.578125 -6.890625 C 2.804688 -6.890625 3.019531 -6.867188 3.21875 -6.828125 C 3.425781 -6.796875 3.664062 -6.738281 3.9375 -6.65625 L 3.578125 -5.53125 C 3.359375 -5.59375 3.148438 -5.625 2.953125 -5.625 C 2.816406 -5.625 2.71875 -5.582031 2.65625 -5.5 C 2.601562 -5.425781 2.578125 -5.296875 2.578125 -5.109375 L 2.578125 -4.984375 L 3.640625 -4.984375 Z M 3.640625 -3.6875 "/></g></g></g><g fill="#03989e" fill-opacity="1"><g transform="translate(185.334689, 159.906404)"><g><path d="M 6.703125 0 L 6.703125 -2.703125 C 6.703125 -3.046875 6.65625 -3.300781 6.5625 -3.46875 C 6.46875 -3.632812 6.320312 -3.71875 6.125 -3.71875 C 5.863281 -3.71875 5.671875 -3.601562 5.546875 -3.375 C 5.421875 -3.15625 5.359375 -2.804688 5.359375 -2.328125 L 5.359375 0 L 3.640625 0 L 3.640625 -2.703125 C 3.640625 -3.046875 3.59375 -3.300781 3.5 -3.46875 C 3.414062 -3.632812 3.273438 -3.71875 3.078125 -3.71875 C 2.816406 -3.71875 2.625 -3.597656 2.5 -3.359375 C 2.375 -3.117188 2.3125 -2.726562 2.3125 -2.1875 L 2.3125 0 L 0.59375 0 L 0.59375 -4.984375 L 1.890625 -4.984375 L 2.109375 -4.359375 L 2.203125 -4.359375 C 2.335938 -4.585938 2.53125 -4.757812 2.78125 -4.875 C 3.03125 -5 3.316406 -5.0625 3.640625 -5.0625 C 4.359375 -5.0625 4.859375 -4.84375 5.140625 -4.40625 L 5.28125 -4.40625 C 5.425781 -4.613281 5.625 -4.773438 5.875 -4.890625 C 6.125 -5.003906 6.398438 -5.0625 6.703125 -5.0625 C 7.285156 -5.0625 7.71875 -4.910156 8 -4.609375 C 8.28125 -4.304688 8.421875 -3.847656 8.421875 -3.234375 L 8.421875 0 Z M 6.703125 0 "/></g></g><g transform="translate(194.329888, 159.906404)"><g><path d="M 2.328125 0 L 0.609375 0 L 0.609375 -4.984375 L 2.328125 -4.984375 Z M 0.5625 -6.21875 C 0.5625 -6.476562 0.628906 -6.671875 0.765625 -6.796875 C 0.910156 -6.921875 1.144531 -6.984375 1.46875 -6.984375 C 1.789062 -6.984375 2.023438 -6.914062 2.171875 -6.78125 C 2.316406 -6.65625 2.390625 -6.46875 2.390625 -6.21875 C 2.390625 -5.71875 2.082031 -5.46875 1.46875 -5.46875 C 0.863281 -5.46875 0.5625 -5.71875 0.5625 -6.21875 Z M 0.5625 -6.21875 "/></g></g><g transform="translate(197.255084, 159.906404)"><g><path d="M 4.4375 -1.53125 C 4.4375 -1 4.253906 -0.59375 3.890625 -0.3125 C 3.523438 -0.0390625 3.003906 0.09375 2.328125 0.09375 C 1.960938 0.09375 1.640625 0.0703125 1.359375 0.03125 C 1.085938 -0.0078125 0.8125 -0.0820312 0.53125 -0.1875 L 0.53125 -1.5625 C 0.800781 -1.445312 1.09375 -1.347656 1.40625 -1.265625 C 1.726562 -1.191406 2.015625 -1.15625 2.265625 -1.15625 C 2.628906 -1.15625 2.8125 -1.242188 2.8125 -1.421875 C 2.8125 -1.503906 2.757812 -1.578125 2.65625 -1.640625 C 2.550781 -1.710938 2.25 -1.847656 1.75 -2.046875 C 1.289062 -2.234375 0.96875 -2.445312 0.78125 -2.6875 C 0.601562 -2.925781 0.515625 -3.226562 0.515625 -3.59375 C 0.515625 -4.0625 0.691406 -4.421875 1.046875 -4.671875 C 1.410156 -4.929688 1.921875 -5.0625 2.578125 -5.0625 C 2.898438 -5.0625 3.207031 -5.023438 3.5 -4.953125 C 3.789062 -4.890625 4.09375 -4.785156 4.40625 -4.640625 L 3.9375 -3.53125 C 3.707031 -3.632812 3.460938 -3.722656 3.203125 -3.796875 C 2.953125 -3.867188 2.742188 -3.90625 2.578125 -3.90625 C 2.296875 -3.90625 2.15625 -3.835938 2.15625 -3.703125 C 2.15625 -3.617188 2.203125 -3.546875 2.296875 -3.484375 C 2.398438 -3.421875 2.6875 -3.296875 3.15625 -3.109375 C 3.507812 -2.972656 3.769531 -2.832031 3.9375 -2.6875 C 4.113281 -2.550781 4.238281 -2.390625 4.3125 -2.203125 C 4.394531 -2.015625 4.4375 -1.789062 4.4375 -1.53125 Z M 4.4375 -1.53125 "/></g></g><g transform="translate(202.051353, 159.906404)"><g/></g><g transform="translate(204.387996, 159.906404)"><g><path d="M 0.1875 -1.734375 L 0.1875 -3.09375 L 2.671875 -3.09375 L 2.671875 -1.734375 Z M 0.1875 -1.734375 "/></g></g><g transform="translate(207.24731, 159.906404)"><g/></g><g transform="translate(209.583954, 159.906404)"><g><path d="M 2.328125 0 L 0.609375 0 L 0.609375 -4.984375 L 2.328125 -4.984375 Z M 0.5625 -6.21875 C 0.5625 -6.476562 0.628906 -6.671875 0.765625 -6.796875 C 0.910156 -6.921875 1.144531 -6.984375 1.46875 -6.984375 C 1.789062 -6.984375 2.023438 -6.914062 2.171875 -6.78125 C 2.316406 -6.65625 2.390625 -6.46875 2.390625 -6.21875 C 2.390625 -5.71875 2.082031 -5.46875 1.46875 -5.46875 C 0.863281 -5.46875 0.5625 -5.71875 0.5625 -6.21875 Z M 0.5625 -6.21875 "/></g></g><g transform="translate(212.50915, 159.906404)"><g><path d="M 3.734375 0 L 3.734375 -2.71875 C 3.734375 -3.050781 3.6875 -3.300781 3.59375 -3.46875 C 3.5 -3.632812 3.347656 -3.71875 3.140625 -3.71875 C 2.847656 -3.71875 2.632812 -3.601562 2.5 -3.375 C 2.375 -3.144531 2.3125 -2.75 2.3125 -2.1875 L 2.3125 0 L 0.59375 0 L 0.59375 -4.984375 L 1.890625 -4.984375 L 2.109375 -4.359375 L 2.203125 -4.359375 C 2.347656 -4.597656 2.550781 -4.773438 2.8125 -4.890625 C 3.070312 -5.003906 3.367188 -5.0625 3.703125 -5.0625 C 4.253906 -5.0625 4.679688 -4.898438 4.984375 -4.578125 C 5.296875 -4.265625 5.453125 -3.816406 5.453125 -3.234375 L 5.453125 0 Z M 3.734375 0 "/></g></g><g transform="translate(218.535231, 159.906404)"><g><path d="M 3.640625 -3.6875 L 2.578125 -3.6875 L 2.578125 0 L 0.859375 0 L 0.859375 -3.6875 L 0.203125 -3.6875 L 0.203125 -4.53125 L 0.890625 -4.953125 L 0.890625 -5.046875 C 0.890625 -5.703125 1.023438 -6.171875 1.296875 -6.453125 C 1.566406 -6.742188 1.992188 -6.890625 2.578125 -6.890625 C 2.804688 -6.890625 3.019531 -6.867188 3.21875 -6.828125 C 3.425781 -6.796875 3.664062 -6.738281 3.9375 -6.65625 L 3.578125 -5.53125 C 3.359375 -5.59375 3.148438 -5.625 2.953125 -5.625 C 2.816406 -5.625 2.71875 -5.582031 2.65625 -5.5 C 2.601562 -5.425781 2.578125 -5.296875 2.578125 -5.109375 L 2.578125 -4.984375 L 3.640625 -4.984375 Z M 3.640625 -3.6875 "/></g></g></g><path stroke-linecap="butt" transform="matrix(0.749021, 0.00184335, -0.00184477, 0.749598, 34.606328, 208.543961)" fill="none" stroke-linejoin="miter" d="M -0.00115018 -0.00132149 L 203.170274 -0.000676853 " stroke="#000000" stroke-width="1" stroke-opacity="1" stroke-miterlimit="4"/><path stroke-linecap="butt" transform="matrix(0.550103, -0.550103, 0.530047, 0.530047, 32.303091, 210.467401)" fill="none" stroke-linejoin="miter" d="M 0.000225685 0.0027787 L 8.684679 0.0027787 " stroke="#000000" stroke-width="1" stroke-opacity="1" stroke-miterlimit="4"/><path stroke-linecap="butt" transform="matrix(0.550103, -0.550103, 0.530047, 0.530047, 184.597843, 211.217001)" fill="none" stroke-linejoin="miter" d="M -0.00175883 0.00147386 L 8.686245 -0.00221095 " stroke="#000000" stroke-width="1" stroke-opacity="1" stroke-miterlimit="4"/><g fill="#000000" fill-opacity="0.4"><g transform="translate(102.893858, 220.563049)"><g><path d="M 5.640625 -7.875 C 6.484375 -7.875 7.148438 -7.519531 7.640625 -6.8125 C 8.140625 -6.101562 8.390625 -5.128906 8.390625 -3.890625 C 8.390625 -2.628906 8.140625 -1.640625 7.640625 -0.921875 C 7.140625 -0.210938 6.445312 0.140625 5.5625 0.140625 C 5.28125 0.140625 5.023438 0.109375 4.796875 0.046875 C 4.578125 -0.015625 4.378906 -0.0976562 4.203125 -0.203125 C 4.023438 -0.316406 3.820312 -0.503906 3.59375 -0.765625 L 3.421875 -0.765625 L 3 0 L 0.921875 0 L 0.921875 -10.625 L 3.59375 -10.625 L 3.59375 -8.21875 C 3.59375 -7.9375 3.5625 -7.441406 3.5 -6.734375 L 3.59375 -6.734375 C 3.851562 -7.140625 4.148438 -7.429688 4.484375 -7.609375 C 4.828125 -7.785156 5.210938 -7.875 5.640625 -7.875 Z M 4.671875 -5.78125 C 4.296875 -5.78125 4.019531 -5.648438 3.84375 -5.390625 C 3.675781 -5.128906 3.59375 -4.722656 3.59375 -4.171875 L 3.59375 -3.796875 C 3.59375 -3.160156 3.675781 -2.703125 3.84375 -2.421875 C 4.019531 -2.148438 4.304688 -2.015625 4.703125 -2.015625 C 5.015625 -2.015625 5.253906 -2.175781 5.421875 -2.5 C 5.585938 -2.820312 5.671875 -3.289062 5.671875 -3.90625 C 5.671875 -5.15625 5.335938 -5.78125 4.671875 -5.78125 Z M 4.671875 -5.78125 "/></g></g></g><g fill="#000000" fill-opacity="1"><g transform="translate(102.275458, 219.944659)"><g><path d="M 5.640625 -7.875 C 6.484375 -7.875 7.148438 -7.519531 7.640625 -6.8125 C 8.140625 -6.101562 8.390625 -5.128906 8.390625 -3.890625 C 8.390625 -2.628906 8.140625 -1.640625 7.640625 -0.921875 C 7.140625 -0.210938 6.445312 0.140625 5.5625 0.140625 C 5.28125 0.140625 5.023438 0.109375 4.796875 0.046875 C 4.578125 -0.015625 4.378906 -0.0976562 4.203125 -0.203125 C 4.023438 -0.316406 3.820312 -0.503906 3.59375 -0.765625 L 3.421875 -0.765625 L 3 0 L 0.921875 0 L 0.921875 -10.625 L 3.59375 -10.625 L 3.59375 -8.21875 C 3.59375 -7.9375 3.5625 -7.441406 3.5 -6.734375 L 3.59375 -6.734375 C 3.851562 -7.140625 4.148438 -7.429688 4.484375 -7.609375 C 4.828125 -7.785156 5.210938 -7.875 5.640625 -7.875 Z M 4.671875 -5.78125 C 4.296875 -5.78125 4.019531 -5.648438 3.84375 -5.390625 C 3.675781 -5.128906 3.59375 -4.722656 3.59375 -4.171875 L 3.59375 -3.796875 C 3.59375 -3.160156 3.675781 -2.703125 3.84375 -2.421875 C 4.019531 -2.148438 4.304688 -2.015625 4.703125 -2.015625 C 5.015625 -2.015625 5.253906 -2.175781 5.421875 -2.5 C 5.585938 -2.820312 5.671875 -3.289062 5.671875 -3.90625 C 5.671875 -5.15625 5.335938 -5.78125 4.671875 -5.78125 Z M 4.671875 -5.78125 "/></g></g></g><g fill="#000000" fill-opacity="0.4"><g transform="translate(112.237152, 223.033932)"><g><path d="M 2.328125 0 L 0.609375 0 L 0.609375 -4.984375 L 2.328125 -4.984375 Z M 0.5625 -6.21875 C 0.5625 -6.476562 0.628906 -6.671875 0.765625 -6.796875 C 0.910156 -6.921875 1.144531 -6.984375 1.46875 -6.984375 C 1.789062 -6.984375 2.023438 -6.914062 2.171875 -6.78125 C 2.316406 -6.65625 2.390625 -6.46875 2.390625 -6.21875 C 2.390625 -5.71875 2.082031 -5.46875 1.46875 -5.46875 C 0.863281 -5.46875 0.5625 -5.71875 0.5625 -6.21875 Z M 0.5625 -6.21875 "/></g></g></g><g fill="#000000" fill-opacity="1"><g transform="translate(111.8396, 222.63638)"><g><path d="M 2.328125 0 L 0.609375 0 L 0.609375 -4.984375 L 2.328125 -4.984375 Z M 0.5625 -6.21875 C 0.5625 -6.476562 0.628906 -6.671875 0.765625 -6.796875 C 0.910156 -6.921875 1.144531 -6.984375 1.46875 -6.984375 C 1.789062 -6.984375 2.023438 -6.914062 2.171875 -6.78125 C 2.316406 -6.65625 2.390625 -6.46875 2.390625 -6.21875 C 2.390625 -5.71875 2.082031 -5.46875 1.46875 -5.46875 C 0.863281 -5.46875 0.5625 -5.71875 0.5625 -6.21875 Z M 0.5625 -6.21875 "/></g></g></g><path stroke-linecap="butt" transform="matrix(0.000000000000000046, -0.745345, 0.7496, 0.000000000000000046, 196.30674, 202.449069)" fill="none" stroke-linejoin="miter" d="M -0.000201283 0.00247314 L 52.303622 0.00247314 " stroke="#000000" stroke-width="1" stroke-opacity="1" stroke-miterlimit="4"/><path stroke-linecap="butt" transform="matrix(0.550103, -0.550103, 0.530047, 0.530047, 193.882325, 166.292235)" fill="none" stroke-linejoin="miter" d="M -0.000224213 0.00115241 L 8.684229 0.00115241 " stroke="#000000" stroke-width="1" stroke-opacity="1" stroke-miterlimit="4"/><path stroke-linecap="butt" transform="matrix(0.550103, -0.550103, 0.530047, 0.530047, 194.381232, 204.750254)" fill="none" stroke-linejoin="miter" d="M 0.00166727 0.00125082 L 8.68612 0.00125082 " stroke="#000000" stroke-width="1" stroke-opacity="1" stroke-miterlimit="4"/><g fill="#000000" fill-opacity="0.4"><g transform="translate(200.126053, 187.867666)"><g><path d="M 5.796875 0 L 5.796875 -4.21875 C 5.796875 -5.257812 5.488281 -5.78125 4.875 -5.78125 C 4.4375 -5.78125 4.113281 -5.59375 3.90625 -5.21875 C 3.695312 -4.851562 3.59375 -4.25 3.59375 -3.40625 L 3.59375 0 L 0.921875 0 L 0.921875 -10.625 L 3.59375 -10.625 L 3.59375 -9.109375 C 3.59375 -8.429688 3.554688 -7.65625 3.484375 -6.78125 L 3.609375 -6.78125 C 3.859375 -7.175781 4.160156 -7.457031 4.515625 -7.625 C 4.867188 -7.789062 5.273438 -7.875 5.734375 -7.875 C 6.597656 -7.875 7.269531 -7.625 7.75 -7.125 C 8.226562 -6.625 8.46875 -5.925781 8.46875 -5.03125 L 8.46875 0 Z M 5.796875 0 "/></g></g></g><g fill="#000000" fill-opacity="1"><g transform="translate(199.507663, 187.249276)"><g><path d="M 5.796875 0 L 5.796875 -4.21875 C 5.796875 -5.257812 5.488281 -5.78125 4.875 -5.78125 C 4.4375 -5.78125 4.113281 -5.59375 3.90625 -5.21875 C 3.695312 -4.851562 3.59375 -4.25 3.59375 -3.40625 L 3.59375 0 L 0.921875 0 L 0.921875 -10.625 L 3.59375 -10.625 L 3.59375 -9.109375 C 3.59375 -8.429688 3.554688 -7.65625 3.484375 -6.78125 L 3.609375 -6.78125 C 3.859375 -7.175781 4.160156 -7.457031 4.515625 -7.625 C 4.867188 -7.789062 5.273438 -7.875 5.734375 -7.875 C 6.597656 -7.875 7.269531 -7.625 7.75 -7.125 C 8.226562 -6.625 8.46875 -5.925781 8.46875 -5.03125 L 8.46875 0 Z M 5.796875 0 "/></g></g></g><g fill="#000000" fill-opacity="0.4"><g transform="translate(209.650907, 190.338537)"><g><path d="M 2.328125 0 L 0.609375 0 L 0.609375 -4.984375 L 2.328125 -4.984375 Z M 0.5625 -6.21875 C 0.5625 -6.476562 0.628906 -6.671875 0.765625 -6.796875 C 0.910156 -6.921875 1.144531 -6.984375 1.46875 -6.984375 C 1.789062 -6.984375 2.023438 -6.914062 2.171875 -6.78125 C 2.316406 -6.65625 2.390625 -6.46875 2.390625 -6.21875 C 2.390625 -5.71875 2.082031 -5.46875 1.46875 -5.46875 C 0.863281 -5.46875 0.5625 -5.71875 0.5625 -6.21875 Z M 0.5625 -6.21875 "/></g></g></g><g fill="#000000" fill-opacity="1"><g transform="translate(209.253355, 189.940985)"><g><path d="M 2.328125 0 L 0.609375 0 L 0.609375 -4.984375 L 2.328125 -4.984375 Z M 0.5625 -6.21875 C 0.5625 -6.476562 0.628906 -6.671875 0.765625 -6.796875 C 0.910156 -6.921875 1.144531 -6.984375 1.46875 -6.984375 C 1.789062 -6.984375 2.023438 -6.914062 2.171875 -6.78125 C 2.316406 -6.65625 2.390625 -6.46875 2.390625 -6.21875 C 2.390625 -5.71875 2.082031 -5.46875 1.46875 -5.46875 C 0.863281 -5.46875 0.5625 -5.71875 0.5625 -6.21875 Z M 0.5625 -6.21875 "/></g></g></g></svg>