<svg xmlns="http://www.w3.org/2000/svg" xmlns:xlink="http://www.w3.org/1999/xlink" width="100" zoomAndPan="magnify" viewBox="0 0 75 74.999997" height="100" preserveAspectRatio="xMidYMid meet" version="1.0"><path stroke-linecap="butt" transform="matrix(0.000000000000000046, -0.7549, 0.75, 0.000000000000000046, 31.371547, 67.869692)" fill="none" stroke-linejoin="miter" d="M -0.00185706 -0.000604144 L 64.591794 -0.000604144 " stroke="#000000" stroke-width="1" stroke-opacity="1" stroke-miterlimit="4"/><path stroke-linecap="butt" transform="matrix(0.000000000000000046, -0.754977, 0.75, 0.000000000000000046, 43.617838, 67.869692)" fill="none" stroke-linejoin="miter" d="M -0.00185687 -0.000867251 L 63.591796 -0.000867251 " stroke="#000000" stroke-width="1" stroke-opacity="1" stroke-miterlimit="4"/><path stroke-linecap="butt" transform="matrix(0.75, 0, 0, 0.75, 7.751856, 19.430798)" fill="none" stroke-linejoin="miter" d="M -0.00247486 -0.00148095 L 31.997528 -0.00148095 " stroke="#000000" stroke-width="1" stroke-opacity="1" stroke-miterlimit="4"/><path stroke-linecap="butt" transform="matrix(0.75, 0, 0, 0.75, 43.248144, 19.805798)" fill="none" stroke-linejoin="miter" d="M 0.00247418 -0.00148091 L 32.002477 -0.00148091 " stroke="#000000" stroke-width="1" stroke-opacity="1" stroke-miterlimit="4"/><path stroke-linecap="butt" transform="matrix(0.735798, 0, 0, 0.75, 31.001853, 67.499993)" fill="none" stroke-linejoin="miter" d="M -0.00251875 0.00000868333 L 17.330917 0.00000868333 " stroke="#000000" stroke-width="1" stroke-opacity="1" stroke-miterlimit="4"/><path stroke-linecap="butt" transform="matrix(0.000000000000000045, -0.730223, 0.75, 0.000000000000000046, 8.126302, 19.055234)" fill="none" stroke-linejoin="miter" d="M 0.000748735 -0.00173626 L 15.407 -0.00173626 " stroke="#000000" stroke-width="1" stroke-opacity="1" stroke-miterlimit="4"/><path stroke-linecap="butt" transform="matrix(0.000000000000000045, -0.731429, 0.75, 0.000000000000000046, 66.749439, 19.805234)" fill="none" stroke-linejoin="miter" d="M 0.000747418 0.000747668 L 16.406998 0.000747668 " stroke="#000000" stroke-width="1" stroke-opacity="1" stroke-miterlimit="4"/><path stroke-linecap="butt" transform="matrix(0.753278, 0, 0, 0.75, 7.751856, 7.874998)" fill="none" stroke-linejoin="miter" d="M -0.00246409 0.00000219083 L 78.664159 0.00000219083 " stroke="#000000" stroke-width="1" stroke-opacity="1" stroke-miterlimit="4"/><path fill="#000000" d="M 18.894531 19.058594 L 20.878906 20.1875 L 20.511719 20.839844 L 18.523438 19.710938 M 21.542969 20.5625 L 23.527344 21.691406 L 23.15625 22.34375 L 21.171875 21.214844 M 24.191406 22.070312 L 26.175781 23.199219 L 25.804688 23.847656 L 23.820312 22.71875 M 26.835938 23.574219 L 28.824219 24.703125 L 28.453125 25.355469 L 26.464844 24.226562 M 29.484375 25.078125 L 31.46875 26.207031 L 31.097656 26.859375 L 29.113281 25.730469 " fill-opacity="1" fill-rule="nonzero"/><path fill="#000000" d="M 43.246094 26.734375 L 45.234375 25.605469 L 45.605469 26.257812 L 43.617188 27.386719 M 45.894531 25.230469 L 47.878906 24.101562 L 48.25 24.753906 L 46.265625 25.882812 M 48.542969 23.726562 L 50.527344 22.597656 L 50.898438 23.25 L 48.914062 24.378906 M 51.191406 22.21875 L 53.175781 21.09375 L 53.546875 21.746094 L 51.5625 22.871094 M 53.839844 20.714844 L 55.824219 19.589844 L 56.195312 20.238281 L 54.207031 21.367188 " fill-opacity="1" fill-rule="nonzero"/></svg>