<svg xmlns="http://www.w3.org/2000/svg" xmlns:xlink="http://www.w3.org/1999/xlink" width="180" zoomAndPan="magnify" viewBox="0 0 135 225" height="300" preserveAspectRatio="xMidYMid meet" version="1.0"><defs><g/><clipPath id="id1"><path d="M 27.414062 20.183594 L 107.664062 20.183594 L 107.664062 204.683594 L 27.414062 204.683594 Z M 27.414062 20.183594 " clip-rule="nonzero"/></clipPath><clipPath id="id2"><path d="M 27.414062 20.1875 L 107.664062 20.1875 L 107.664062 204.679688 L 27.414062 204.679688 Z M 27.414062 20.1875 " clip-rule="nonzero"/></clipPath><clipPath id="id3"><path d="M 36.253906 30.703125 L 45.253906 30.703125 L 45.253906 39.703125 L 36.253906 39.703125 Z M 36.253906 30.703125 " clip-rule="nonzero"/></clipPath><clipPath id="id4"><path d="M 87.75 30.703125 L 96.75 30.703125 L 96.75 39.703125 L 87.75 39.703125 Z M 87.75 30.703125 " clip-rule="nonzero"/></clipPath><clipPath id="id5"><path d="M 36.253906 186.851562 L 45.253906 186.851562 L 45.253906 195.851562 L 36.253906 195.851562 Z M 36.253906 186.851562 " clip-rule="nonzero"/></clipPath><clipPath id="id6"><path d="M 87.75 186.851562 L 96.75 186.851562 L 96.75 195.851562 L 87.75 195.851562 Z M 87.75 186.851562 " clip-rule="nonzero"/></clipPath></defs><g clip-path="url(#id1)"><path fill="#ffffff" d="M 27.414062 20.1875 L 107.664062 20.1875 L 107.664062 204.679688 L 27.414062 204.679688 L 27.414062 20.1875 " fill-opacity="1" fill-rule="nonzero"/></g><g clip-path="url(#id2)"><path stroke-linecap="butt" transform="matrix(0.750767, 0, 0, 0.749476, 27.412902, 20.186431)" fill="none" stroke-linejoin="miter" d="M 0.00154631 0.00142601 L 106.892173 0.00142601 L 106.892173 246.162899 L 0.00154631 246.162899 L 0.00154631 0.00142601 " stroke="#ffffff" stroke-width="2" stroke-opacity="1" stroke-miterlimit="4"/></g><g clip-path="url(#id3)"><path fill="#000000" d="M 45.253906 35.203125 C 45.253906 35.496094 45.226562 35.789062 45.167969 36.078125 C 45.109375 36.371094 45.023438 36.652344 44.910156 36.925781 C 44.796875 37.195312 44.660156 37.457031 44.496094 37.703125 C 44.332031 37.949219 44.144531 38.175781 43.9375 38.382812 C 43.726562 38.59375 43.5 38.78125 43.253906 38.945312 C 43.007812 39.109375 42.75 39.246094 42.476562 39.359375 C 42.203125 39.472656 41.921875 39.558594 41.632812 39.617188 C 41.34375 39.671875 41.050781 39.703125 40.753906 39.703125 C 40.457031 39.703125 40.167969 39.671875 39.875 39.617188 C 39.585938 39.558594 39.304688 39.472656 39.03125 39.359375 C 38.757812 39.246094 38.5 39.109375 38.253906 38.945312 C 38.007812 38.78125 37.78125 38.59375 37.574219 38.382812 C 37.363281 38.175781 37.175781 37.949219 37.011719 37.703125 C 36.847656 37.457031 36.710938 37.195312 36.597656 36.925781 C 36.484375 36.652344 36.398438 36.371094 36.339844 36.078125 C 36.28125 35.789062 36.253906 35.496094 36.253906 35.203125 C 36.253906 34.90625 36.28125 34.613281 36.339844 34.324219 C 36.398438 34.035156 36.484375 33.753906 36.597656 33.480469 C 36.710938 33.207031 36.847656 32.949219 37.011719 32.703125 C 37.175781 32.457031 37.363281 32.230469 37.574219 32.019531 C 37.78125 31.8125 38.007812 31.625 38.253906 31.460938 C 38.5 31.296875 38.757812 31.15625 39.03125 31.042969 C 39.304688 30.929688 39.585938 30.847656 39.875 30.789062 C 40.167969 30.730469 40.457031 30.703125 40.753906 30.703125 C 41.050781 30.703125 41.34375 30.730469 41.632812 30.789062 C 41.921875 30.847656 42.203125 30.929688 42.476562 31.042969 C 42.75 31.15625 43.007812 31.296875 43.253906 31.460938 C 43.5 31.625 43.726562 31.8125 43.9375 32.019531 C 44.144531 32.230469 44.332031 32.457031 44.496094 32.703125 C 44.660156 32.949219 44.796875 33.207031 44.910156 33.480469 C 45.023438 33.753906 45.109375 34.035156 45.167969 34.324219 C 45.226562 34.613281 45.253906 34.90625 45.253906 35.203125 Z M 45.253906 35.203125 " fill-opacity="1" fill-rule="nonzero"/></g><g fill="#ffffff" fill-opacity="1"><g transform="translate(127.761791, 115.500005)"><g><path d="M 2.265625 0.09375 C 1.679688 0.09375 1.222656 -0.128906 0.890625 -0.578125 C 0.566406 -1.023438 0.40625 -1.648438 0.40625 -2.453125 C 0.40625 -3.253906 0.570312 -3.878906 0.90625 -4.328125 C 1.238281 -4.773438 1.703125 -5 2.296875 -5 C 2.910156 -5 3.378906 -4.757812 3.703125 -4.28125 L 3.75 -4.28125 C 3.6875 -4.644531 3.65625 -4.972656 3.65625 -5.265625 L 3.65625 -6.84375 L 5 -6.84375 L 5 0 L 3.96875 0 L 3.703125 -0.640625 L 3.65625 -0.640625 C 3.34375 -0.148438 2.878906 0.09375 2.265625 0.09375 Z M 2.734375 -0.984375 C 3.078125 -0.984375 3.328125 -1.082031 3.484375 -1.28125 C 3.640625 -1.476562 3.726562 -1.816406 3.75 -2.296875 L 3.75 -2.4375 C 3.75 -2.96875 3.664062 -3.347656 3.5 -3.578125 C 3.332031 -3.804688 3.066406 -3.921875 2.703125 -3.921875 C 2.410156 -3.921875 2.179688 -3.789062 2.015625 -3.53125 C 1.847656 -3.28125 1.765625 -2.914062 1.765625 -2.4375 C 1.765625 -1.945312 1.847656 -1.582031 2.015625 -1.34375 C 2.179688 -1.101562 2.421875 -0.984375 2.734375 -0.984375 Z M 2.734375 -0.984375 "/></g></g></g><g fill="#ffffff" fill-opacity="1"><g transform="translate(115.751729, 199.912048)"><g><path d="M 2.265625 0.09375 C 1.679688 0.09375 1.222656 -0.128906 0.890625 -0.578125 C 0.566406 -1.023438 0.40625 -1.648438 0.40625 -2.453125 C 0.40625 -3.253906 0.570312 -3.878906 0.90625 -4.328125 C 1.238281 -4.773438 1.703125 -5 2.296875 -5 C 2.910156 -5 3.378906 -4.757812 3.703125 -4.28125 L 3.75 -4.28125 C 3.6875 -4.644531 3.65625 -4.972656 3.65625 -5.265625 L 3.65625 -6.84375 L 5 -6.84375 L 5 0 L 3.96875 0 L 3.703125 -0.640625 L 3.65625 -0.640625 C 3.34375 -0.148438 2.878906 0.09375 2.265625 0.09375 Z M 2.734375 -0.984375 C 3.078125 -0.984375 3.328125 -1.082031 3.484375 -1.28125 C 3.640625 -1.476562 3.726562 -1.816406 3.75 -2.296875 L 3.75 -2.4375 C 3.75 -2.96875 3.664062 -3.347656 3.5 -3.578125 C 3.332031 -3.804688 3.066406 -3.921875 2.703125 -3.921875 C 2.410156 -3.921875 2.179688 -3.789062 2.015625 -3.53125 C 1.847656 -3.28125 1.765625 -2.914062 1.765625 -2.4375 C 1.765625 -1.945312 1.847656 -1.582031 2.015625 -1.34375 C 2.179688 -1.101562 2.421875 -0.984375 2.734375 -0.984375 Z M 2.734375 -0.984375 "/></g></g><g transform="translate(121.447041, 199.912048)"><g><path d="M 1.8125 -6.421875 L 1.625 -4.109375 L 0.765625 -4.109375 L 0.578125 -6.421875 Z M 1.8125 -6.421875 "/></g></g></g><g clip-path="url(#id4)"><path fill="#000000" d="M 96.75 35.203125 C 96.75 35.496094 96.722656 35.789062 96.664062 36.078125 C 96.605469 36.371094 96.519531 36.652344 96.40625 36.925781 C 96.292969 37.195312 96.15625 37.457031 95.992188 37.703125 C 95.828125 37.949219 95.640625 38.175781 95.433594 38.382812 C 95.222656 38.59375 94.996094 38.78125 94.75 38.945312 C 94.503906 39.109375 94.246094 39.246094 93.972656 39.359375 C 93.699219 39.472656 93.417969 39.558594 93.128906 39.617188 C 92.839844 39.671875 92.546875 39.703125 92.25 39.703125 C 91.953125 39.703125 91.660156 39.671875 91.371094 39.617188 C 91.082031 39.558594 90.800781 39.472656 90.527344 39.359375 C 90.253906 39.246094 89.996094 39.109375 89.75 38.945312 C 89.503906 38.78125 89.277344 38.59375 89.066406 38.382812 C 88.859375 38.175781 88.671875 37.949219 88.507812 37.703125 C 88.34375 37.457031 88.207031 37.195312 88.09375 36.925781 C 87.980469 36.652344 87.894531 36.371094 87.835938 36.078125 C 87.777344 35.789062 87.75 35.496094 87.75 35.203125 C 87.75 34.90625 87.777344 34.613281 87.835938 34.324219 C 87.894531 34.035156 87.980469 33.753906 88.09375 33.480469 C 88.207031 33.207031 88.34375 32.949219 88.507812 32.703125 C 88.671875 32.457031 88.859375 32.230469 89.066406 32.019531 C 89.277344 31.8125 89.503906 31.625 89.75 31.460938 C 89.996094 31.296875 90.253906 31.15625 90.527344 31.042969 C 90.800781 30.929688 91.082031 30.847656 91.371094 30.789062 C 91.660156 30.730469 91.953125 30.703125 92.25 30.703125 C 92.546875 30.703125 92.839844 30.730469 93.128906 30.789062 C 93.417969 30.847656 93.699219 30.929688 93.972656 31.042969 C 94.246094 31.15625 94.503906 31.296875 94.75 31.460938 C 94.996094 31.625 95.222656 31.8125 95.433594 32.019531 C 95.640625 32.230469 95.828125 32.457031 95.992188 32.703125 C 96.15625 32.949219 96.292969 33.207031 96.40625 33.480469 C 96.519531 33.753906 96.605469 34.035156 96.664062 34.324219 C 96.722656 34.613281 96.75 34.90625 96.75 35.203125 Z M 96.75 35.203125 " fill-opacity="1" fill-rule="nonzero"/></g><g clip-path="url(#id5)"><path fill="#000000" d="M 45.253906 191.351562 C 45.253906 191.648438 45.226562 191.941406 45.167969 192.230469 C 45.109375 192.519531 45.023438 192.800781 44.910156 193.074219 C 44.796875 193.347656 44.660156 193.605469 44.496094 193.851562 C 44.332031 194.097656 44.144531 194.324219 43.9375 194.535156 C 43.726562 194.742188 43.5 194.929688 43.253906 195.09375 C 43.007812 195.257812 42.75 195.394531 42.476562 195.507812 C 42.203125 195.621094 41.921875 195.707031 41.632812 195.765625 C 41.34375 195.824219 41.050781 195.851562 40.753906 195.851562 C 40.457031 195.851562 40.167969 195.824219 39.875 195.765625 C 39.585938 195.707031 39.304688 195.621094 39.03125 195.507812 C 38.757812 195.394531 38.5 195.257812 38.253906 195.09375 C 38.007812 194.929688 37.78125 194.742188 37.574219 194.535156 C 37.363281 194.324219 37.175781 194.097656 37.011719 193.851562 C 36.847656 193.605469 36.710938 193.347656 36.597656 193.074219 C 36.484375 192.800781 36.398438 192.519531 36.339844 192.230469 C 36.28125 191.941406 36.253906 191.648438 36.253906 191.351562 C 36.253906 191.054688 36.28125 190.761719 36.339844 190.472656 C 36.398438 190.183594 36.484375 189.902344 36.597656 189.628906 C 36.710938 189.355469 36.847656 189.097656 37.011719 188.851562 C 37.175781 188.605469 37.363281 188.378906 37.574219 188.167969 C 37.78125 187.960938 38.007812 187.773438 38.253906 187.609375 C 38.5 187.445312 38.757812 187.308594 39.03125 187.195312 C 39.304688 187.082031 39.585938 186.996094 39.875 186.9375 C 40.167969 186.878906 40.457031 186.851562 40.753906 186.851562 C 41.050781 186.851562 41.34375 186.878906 41.632812 186.9375 C 41.921875 186.996094 42.203125 187.082031 42.476562 187.195312 C 42.75 187.308594 43.007812 187.445312 43.253906 187.609375 C 43.5 187.773438 43.726562 187.960938 43.9375 188.167969 C 44.144531 188.378906 44.332031 188.605469 44.496094 188.851562 C 44.660156 189.097656 44.796875 189.355469 44.910156 189.628906 C 45.023438 189.902344 45.109375 190.183594 45.167969 190.472656 C 45.226562 190.761719 45.253906 191.054688 45.253906 191.351562 Z M 45.253906 191.351562 " fill-opacity="1" fill-rule="nonzero"/></g><g clip-path="url(#id6)"><path fill="#000000" d="M 96.75 191.351562 C 96.75 191.648438 96.722656 191.941406 96.664062 192.230469 C 96.605469 192.519531 96.519531 192.800781 96.40625 193.074219 C 96.292969 193.347656 96.15625 193.605469 95.992188 193.851562 C 95.828125 194.097656 95.640625 194.324219 95.433594 194.535156 C 95.222656 194.742188 94.996094 194.929688 94.75 195.09375 C 94.503906 195.257812 94.246094 195.394531 93.972656 195.507812 C 93.699219 195.621094 93.417969 195.707031 93.128906 195.765625 C 92.839844 195.824219 92.546875 195.851562 92.25 195.851562 C 91.953125 195.851562 91.660156 195.824219 91.371094 195.765625 C 91.082031 195.707031 90.800781 195.621094 90.527344 195.507812 C 90.253906 195.394531 89.996094 195.257812 89.75 195.09375 C 89.503906 194.929688 89.277344 194.742188 89.066406 194.535156 C 88.859375 194.324219 88.671875 194.097656 88.507812 193.851562 C 88.34375 193.605469 88.207031 193.347656 88.09375 193.074219 C 87.980469 192.800781 87.894531 192.519531 87.835938 192.230469 C 87.777344 191.941406 87.75 191.648438 87.75 191.351562 C 87.75 191.054688 87.777344 190.761719 87.835938 190.472656 C 87.894531 190.183594 87.980469 189.902344 88.09375 189.628906 C 88.207031 189.355469 88.34375 189.097656 88.507812 188.851562 C 88.671875 188.605469 88.859375 188.378906 89.066406 188.167969 C 89.277344 187.960938 89.503906 187.773438 89.75 187.609375 C 89.996094 187.445312 90.253906 187.308594 90.527344 187.195312 C 90.800781 187.082031 91.082031 186.996094 91.371094 186.9375 C 91.660156 186.878906 91.953125 186.851562 92.25 186.851562 C 92.546875 186.851562 92.839844 186.878906 93.128906 186.9375 C 93.417969 186.996094 93.699219 187.082031 93.972656 187.195312 C 94.246094 187.308594 94.503906 187.445312 94.75 187.609375 C 94.996094 187.773438 95.222656 187.960938 95.433594 188.167969 C 95.640625 188.378906 95.828125 188.605469 95.992188 188.851562 C 96.15625 189.097656 96.292969 189.355469 96.40625 189.628906 C 96.519531 189.902344 96.605469 190.183594 96.664062 190.472656 C 96.722656 190.761719 96.75 191.054688 96.75 191.351562 Z M 96.75 191.351562 " fill-opacity="1" fill-rule="nonzero"/></g><g fill="#ffffff" fill-opacity="1"><g transform="translate(5.226776, 115.500005)"><g><path d="M 5.234375 0 L 3.890625 0 L 3.890625 -2.875 C 3.890625 -3.582031 3.628906 -3.9375 3.109375 -3.9375 C 2.734375 -3.9375 2.460938 -3.804688 2.296875 -3.546875 C 2.128906 -3.296875 2.046875 -2.882812 2.046875 -2.3125 L 2.046875 0 L 0.703125 0 L 0.703125 -6.84375 L 2.046875 -6.84375 L 2.046875 -5.4375 C 2.046875 -5.332031 2.035156 -5.082031 2.015625 -4.6875 L 1.984375 -4.28125 L 2.046875 -4.28125 C 2.347656 -4.757812 2.820312 -5 3.46875 -5 C 4.050781 -5 4.488281 -4.84375 4.78125 -4.53125 C 5.082031 -4.226562 5.234375 -3.785156 5.234375 -3.203125 Z M 5.234375 0 "/></g></g></g><g fill="#ffffff" fill-opacity="1"><g transform="translate(64.652342, 221.774986)"><g><path d="M 3.4375 -5 C 4.019531 -5 4.472656 -4.769531 4.796875 -4.3125 C 5.128906 -3.863281 5.296875 -3.25 5.296875 -2.46875 C 5.296875 -1.65625 5.125 -1.023438 4.78125 -0.578125 C 4.445312 -0.128906 3.988281 0.09375 3.40625 0.09375 C 2.820312 0.09375 2.367188 -0.117188 2.046875 -0.546875 L 1.953125 -0.546875 L 1.734375 0 L 0.703125 0 L 0.703125 -6.84375 L 2.046875 -6.84375 L 2.046875 -5.25 C 2.046875 -5.039062 2.023438 -4.71875 1.984375 -4.28125 L 2.046875 -4.28125 C 2.359375 -4.757812 2.820312 -5 3.4375 -5 Z M 3 -3.9375 C 2.675781 -3.9375 2.4375 -3.832031 2.28125 -3.625 C 2.125 -3.425781 2.046875 -3.09375 2.046875 -2.625 L 2.046875 -2.46875 C 2.046875 -1.945312 2.125 -1.570312 2.28125 -1.34375 C 2.4375 -1.113281 2.6875 -1 3.03125 -1 C 3.300781 -1 3.515625 -1.125 3.671875 -1.375 C 3.835938 -1.632812 3.921875 -2.003906 3.921875 -2.484375 C 3.921875 -2.960938 3.835938 -3.320312 3.671875 -3.5625 C 3.515625 -3.8125 3.289062 -3.9375 3 -3.9375 Z M 3 -3.9375 "/></g></g></g><g fill="#000000" fill-opacity="1"><g transform="translate(63.619377, 152.738867)"><g><path d="M 4.734375 0 L 4.28125 -1.53125 L 1.9375 -1.53125 L 1.46875 0 L 0 0 L 2.265625 -6.453125 L 3.9375 -6.453125 L 6.203125 0 Z M 3.953125 -2.671875 C 3.523438 -4.054688 3.28125 -4.835938 3.21875 -5.015625 C 3.164062 -5.203125 3.128906 -5.347656 3.109375 -5.453125 C 3.015625 -5.078125 2.738281 -4.148438 2.28125 -2.671875 Z M 3.953125 -2.671875 "/></g></g></g><g fill="#000000" fill-opacity="1"><g transform="translate(63.619377, 73.670047)"><g><path d="M 4.734375 0 L 4.28125 -1.53125 L 1.9375 -1.53125 L 1.46875 0 L 0 0 L 2.265625 -6.453125 L 3.9375 -6.453125 L 6.203125 0 Z M 3.953125 -2.671875 C 3.523438 -4.054688 3.28125 -4.835938 3.21875 -5.015625 C 3.164062 -5.203125 3.128906 -5.347656 3.109375 -5.453125 C 3.015625 -5.078125 2.738281 -4.148438 2.28125 -2.671875 Z M 3.953125 -2.671875 "/></g></g><g transform="translate(69.82885, 73.670047)"><g><path d="M 1.8125 -6.421875 L 1.625 -4.109375 L 0.765625 -4.109375 L 0.578125 -6.421875 Z M 1.8125 -6.421875 "/></g></g></g><g fill="#000000" fill-opacity="1"><g transform="translate(69.830315, 155.138867)"><g><path d="M 3.0625 -1.1875 C 3.0625 -0.800781 2.921875 -0.492188 2.640625 -0.265625 C 2.367188 -0.046875 1.984375 0.0625 1.484375 0.0625 C 1.023438 0.0625 0.625 -0.0234375 0.28125 -0.203125 L 0.28125 -1.046875 C 0.5625 -0.910156 0.800781 -0.816406 1 -0.765625 C 1.207031 -0.710938 1.394531 -0.6875 1.5625 -0.6875 C 1.757812 -0.6875 1.910156 -0.722656 2.015625 -0.796875 C 2.117188 -0.878906 2.171875 -0.992188 2.171875 -1.140625 C 2.171875 -1.222656 2.144531 -1.296875 2.09375 -1.359375 C 2.050781 -1.429688 1.984375 -1.5 1.890625 -1.5625 C 1.804688 -1.625 1.625 -1.71875 1.34375 -1.84375 C 1.082031 -1.96875 0.882812 -2.085938 0.75 -2.203125 C 0.625 -2.316406 0.519531 -2.445312 0.4375 -2.59375 C 0.363281 -2.75 0.328125 -2.925781 0.328125 -3.125 C 0.328125 -3.5 0.453125 -3.796875 0.703125 -4.015625 C 0.960938 -4.234375 1.320312 -4.34375 1.78125 -4.34375 C 2 -4.34375 2.207031 -4.316406 2.40625 -4.265625 C 2.613281 -4.210938 2.828125 -4.140625 3.046875 -4.046875 L 2.75 -3.34375 C 2.519531 -3.4375 2.332031 -3.5 2.1875 -3.53125 C 2.039062 -3.570312 1.894531 -3.59375 1.75 -3.59375 C 1.570312 -3.59375 1.4375 -3.550781 1.34375 -3.46875 C 1.257812 -3.382812 1.21875 -3.28125 1.21875 -3.15625 C 1.21875 -3.070312 1.234375 -3 1.265625 -2.9375 C 1.304688 -2.882812 1.363281 -2.828125 1.4375 -2.765625 C 1.519531 -2.710938 1.710938 -2.613281 2.015625 -2.46875 C 2.421875 -2.28125 2.695312 -2.085938 2.84375 -1.890625 C 2.988281 -1.703125 3.0625 -1.46875 3.0625 -1.1875 Z M 3.0625 -1.1875 "/></g></g></g><g fill="#000000" fill-opacity="1"><g transform="translate(71.031487, 74.370043)"><g><path d="M 3.0625 -1.1875 C 3.0625 -0.800781 2.921875 -0.492188 2.640625 -0.265625 C 2.367188 -0.046875 1.984375 0.0625 1.484375 0.0625 C 1.023438 0.0625 0.625 -0.0234375 0.28125 -0.203125 L 0.28125 -1.046875 C 0.5625 -0.910156 0.800781 -0.816406 1 -0.765625 C 1.207031 -0.710938 1.394531 -0.6875 1.5625 -0.6875 C 1.757812 -0.6875 1.910156 -0.722656 2.015625 -0.796875 C 2.117188 -0.878906 2.171875 -0.992188 2.171875 -1.140625 C 2.171875 -1.222656 2.144531 -1.296875 2.09375 -1.359375 C 2.050781 -1.429688 1.984375 -1.5 1.890625 -1.5625 C 1.804688 -1.625 1.625 -1.71875 1.34375 -1.84375 C 1.082031 -1.96875 0.882812 -2.085938 0.75 -2.203125 C 0.625 -2.316406 0.519531 -2.445312 0.4375 -2.59375 C 0.363281 -2.75 0.328125 -2.925781 0.328125 -3.125 C 0.328125 -3.5 0.453125 -3.796875 0.703125 -4.015625 C 0.960938 -4.234375 1.320312 -4.34375 1.78125 -4.34375 C 2 -4.34375 2.207031 -4.316406 2.40625 -4.265625 C 2.613281 -4.210938 2.828125 -4.140625 3.046875 -4.046875 L 2.75 -3.34375 C 2.519531 -3.4375 2.332031 -3.5 2.1875 -3.53125 C 2.039062 -3.570312 1.894531 -3.59375 1.75 -3.59375 C 1.570312 -3.59375 1.4375 -3.550781 1.34375 -3.46875 C 1.257812 -3.382812 1.21875 -3.28125 1.21875 -3.15625 C 1.21875 -3.070312 1.234375 -3 1.265625 -2.9375 C 1.304688 -2.882812 1.363281 -2.828125 1.4375 -2.765625 C 1.519531 -2.710938 1.710938 -2.613281 2.015625 -2.46875 C 2.421875 -2.28125 2.695312 -2.085938 2.84375 -1.890625 C 2.988281 -1.703125 3.0625 -1.46875 3.0625 -1.1875 Z M 3.0625 -1.1875 "/></g></g></g><path fill="#000000" d="M 69.773438 64.835938 L 70.664062 63.628906 L 71.46875 64.222656 L 70.578125 65.429688 M 71.554688 62.421875 L 72.441406 61.21875 L 73.246094 61.808594 L 72.359375 63.015625 M 73.332031 60.011719 L 74.222656 58.804688 L 75.027344 59.398438 L 74.136719 60.605469 M 75.113281 57.597656 L 76 56.390625 L 76.808594 56.984375 L 75.917969 58.191406 M 76.890625 55.1875 L 77.78125 53.980469 L 78.585938 54.574219 L 77.695312 55.777344 M 78.671875 52.773438 L 79.5625 51.566406 L 80.367188 52.160156 L 79.476562 53.367188 M 80.449219 50.359375 L 81.339844 49.152344 L 82.144531 49.746094 L 81.253906 50.953125 M 82.230469 47.949219 L 83.121094 46.742188 L 83.925781 47.335938 L 83.035156 48.542969 M 84.007812 45.535156 L 84.898438 44.328125 L 85.703125 44.921875 L 84.8125 46.128906 M 85.789062 43.121094 L 86.679688 41.917969 L 87.484375 42.511719 L 86.59375 43.714844 M 87.566406 40.710938 L 88.457031 39.503906 L 89.261719 40.097656 L 88.371094 41.304688 " fill-opacity="1" fill-rule="nonzero"/><path fill="#000000" d="M 45.105469 39.433594 L 46.066406 40.566406 L 45.304688 41.214844 L 44.34375 40.082031 M 47.027344 41.695312 L 47.992188 42.824219 L 47.230469 43.472656 L 46.269531 42.34375 M 48.953125 43.953125 L 49.917969 45.085938 L 49.15625 45.734375 L 48.191406 44.601562 M 50.878906 46.214844 L 51.839844 47.34375 L 51.082031 47.992188 L 50.117188 46.863281 M 52.804688 48.472656 L 53.765625 49.601562 L 53.003906 50.25 L 52.042969 49.121094 M 54.730469 50.734375 L 55.691406 51.863281 L 54.929688 52.511719 L 53.96875 51.382812 M 56.652344 52.992188 L 57.617188 54.121094 L 56.855469 54.769531 L 55.894531 53.640625 M 58.578125 55.25 L 59.542969 56.382812 L 58.78125 57.03125 L 57.816406 55.898438 M 60.503906 57.511719 L 61.46875 58.640625 L 60.707031 59.289062 L 59.742188 58.160156 M 62.429688 59.769531 L 63.390625 60.902344 L 62.628906 61.550781 L 61.667969 60.417969 M 64.355469 62.03125 L 65.316406 63.160156 L 64.554688 63.808594 L 63.59375 62.679688 M 66.28125 64.289062 L 66.507812 64.558594 L 65.75 65.207031 L 65.519531 64.9375 " fill-opacity="1" fill-rule="nonzero"/><path fill="#000000" d="M 66.765625 157.257812 L 65.867188 158.472656 L 65.0625 157.878906 L 65.960938 156.664062 M 64.96875 159.6875 L 64.070312 160.902344 L 63.265625 160.304688 L 64.164062 159.089844 M 63.171875 162.117188 L 62.273438 163.328125 L 61.46875 162.734375 L 62.367188 161.519531 M 61.375 164.542969 L 60.476562 165.757812 L 59.671875 165.164062 L 60.570312 163.949219 M 59.574219 166.972656 L 58.675781 168.1875 L 57.875 167.59375 L 58.773438 166.378906 M 57.777344 169.402344 L 56.878906 170.617188 L 56.074219 170.023438 L 56.976562 168.808594 M 55.980469 171.832031 L 55.082031 173.046875 L 54.277344 172.449219 L 55.175781 171.234375 M 54.183594 174.261719 L 53.285156 175.472656 L 52.480469 174.878906 L 53.378906 173.664062 M 52.386719 176.6875 L 51.488281 177.902344 L 50.683594 177.308594 L 51.582031 176.09375 M 50.589844 179.117188 L 49.691406 180.332031 L 48.886719 179.738281 L 49.785156 178.523438 M 48.789062 181.546875 L 47.890625 182.761719 L 47.089844 182.167969 L 47.988281 180.953125 M 46.992188 183.976562 L 46.09375 185.191406 L 45.289062 184.59375 L 46.191406 183.378906 M 45.195312 186.40625 L 44.457031 187.40625 L 43.652344 186.808594 L 44.390625 185.808594 " fill-opacity="1" fill-rule="nonzero"/><path fill="#000000" d="M 88.910156 187.152344 L 88.109375 185.898438 L 88.953125 185.359375 L 89.753906 186.613281 M 87.308594 184.644531 L 86.507812 183.390625 L 87.347656 182.855469 L 88.148438 184.105469 M 85.703125 182.140625 L 84.902344 180.886719 L 85.746094 180.347656 L 86.546875 181.601562 M 84.101562 179.632812 L 83.300781 178.378906 L 84.140625 177.839844 L 84.945312 179.09375 M 82.5 177.125 L 81.695312 175.871094 L 82.539062 175.335938 L 83.339844 176.585938 M 80.894531 174.621094 L 80.09375 173.367188 L 80.9375 172.828125 L 81.738281 174.082031 M 79.292969 172.113281 L 78.492188 170.859375 L 79.332031 170.320312 L 80.136719 171.574219 M 77.6875 169.605469 L 76.886719 168.351562 L 77.730469 167.816406 L 78.53125 169.066406 M 76.085938 167.101562 L 75.285156 165.847656 L 76.128906 165.308594 L 76.929688 166.5625 M 74.484375 164.59375 L 73.683594 163.339844 L 74.523438 162.800781 L 75.324219 164.054688 M 72.878906 162.085938 L 72.078125 160.832031 L 72.921875 160.296875 L 73.722656 161.546875 M 71.277344 159.582031 L 70.476562 158.328125 L 71.316406 157.789062 L 72.121094 159.042969 " fill-opacity="1" fill-rule="nonzero"/><path stroke-linecap="butt" transform="matrix(0.000000000000000093, -1.517526, 1, 0.000000000000000061, 114.64717, 204.236939)" fill="none" stroke-linejoin="miter" d="M 2.750819 0.00126788 L 8.617174 0.00126788 " stroke="#ffffff" stroke-width="1" stroke-opacity="1" stroke-miterlimit="4"/><path stroke-linecap="round" transform="matrix(0.000000000000000093, -1.517526, 1, 0.000000000000000061, 114.64717, 204.236939)" fill-opacity="1" fill="#ffffff" fill-rule="nonzero" stroke-linejoin="round" d="M 2.501133 -1.498732 L 0.501063 0.00126788 L 2.501133 1.501268 Z M 2.501133 -1.498732 " stroke="#ffffff" stroke-width="1" stroke-opacity="1" stroke-miterlimit="4"/><path stroke-linecap="round" transform="matrix(0.000000000000000093, -1.517526, 1, 0.000000000000000061, 114.64717, 186.986911)" fill-opacity="1" fill="#ffffff" fill-rule="nonzero" stroke-linejoin="round" d="M -2.500346 -1.498732 L -0.500277 0.00126788 L -2.500346 1.501268 Z M -2.500346 -1.498732 " stroke="#ffffff" stroke-width="1" stroke-opacity="1" stroke-miterlimit="4"/><path stroke-linecap="butt" transform="matrix(0.000000000000000092, -1.499482, 1, 0.000000000000000061, 127.132173, 204.812989)" fill="none" stroke-linejoin="miter" d="M 2.751277 0.000639397 L 110.296264 0.000639397 " stroke="#ffffff" stroke-width="1" stroke-opacity="1" stroke-miterlimit="4"/><path stroke-linecap="round" transform="matrix(0.000000000000000092, -1.499482, 1, 0.000000000000000061, 127.132173, 204.812989)" fill-opacity="1" fill="#ffffff" fill-rule="nonzero" stroke-linejoin="round" d="M 2.501191 -1.499361 L 0.500499 0.000639397 L 2.501191 1.500639 Z M 2.501191 -1.499361 " stroke="#ffffff" stroke-width="1" stroke-opacity="1" stroke-miterlimit="4"/><path stroke-linecap="round" transform="matrix(0.000000000000000092, -1.499482, 1, 0.000000000000000061, 127.132173, 35.303743)" fill-opacity="1" fill="#ffffff" fill-rule="nonzero" stroke-linejoin="round" d="M -2.49889 -1.499361 L -0.500803 0.000639397 L -2.49889 1.500639 Z M -2.49889 -1.499361 " stroke="#ffffff" stroke-width="1" stroke-opacity="1" stroke-miterlimit="4"/><path stroke-linecap="butt" transform="matrix(0.000000000000000092, -1.497612, 1, 0.000000000000000061, 13.431714, 204.231169)" fill="none" stroke-linejoin="miter" d="M 2.749636 0.00187983 L 119.951837 0.00187983 " stroke="#ffffff" stroke-width="1" stroke-opacity="1" stroke-miterlimit="4"/><path stroke-linecap="round" transform="matrix(0.000000000000000092, -1.497612, 1, 0.000000000000000061, 13.431714, 204.231169)" fill-opacity="1" fill="#ffffff" fill-rule="nonzero" stroke-linejoin="round" d="M 2.499237 -1.49812 L 0.501265 0.00187983 L 2.499237 1.50188 Z M 2.499237 -1.49812 " stroke="#ffffff" stroke-width="1" stroke-opacity="1" stroke-miterlimit="4"/><path stroke-linecap="round" transform="matrix(0.000000000000000092, -1.497612, 1, 0.000000000000000061, 13.431714, 20.469619)" fill-opacity="1" fill="#ffffff" fill-rule="nonzero" stroke-linejoin="round" d="M -2.500798 -1.49812 L -0.500217 0.00187983 L -2.500798 1.50188 Z M -2.500798 -1.49812 " stroke="#ffffff" stroke-width="1" stroke-opacity="1" stroke-miterlimit="4"/><path stroke-linecap="butt" transform="matrix(-1.501535, -0.000000000000000184, 0.000000000000000122, -1, 107.580867, 212.125007)" fill="none" stroke-linejoin="miter" d="M 2.749015 0.00000676146 L 50.699951 0.00000676146 " stroke="#ffffff" stroke-width="1" stroke-opacity="1" stroke-miterlimit="4"/><path stroke-linecap="round" transform="matrix(-1.501535, -0.000000000000000184, 0.000000000000000122, -1, 107.580867, 212.125007)" fill-opacity="1" fill="#ffffff" fill-rule="nonzero" stroke-linejoin="round" d="M 2.499271 -1.499993 L 0.498713 0.00000676146 L 2.499271 1.500007 Z M 2.499271 -1.499993 " stroke="#ffffff" stroke-width="1" stroke-opacity="1" stroke-miterlimit="4"/><path stroke-linecap="round" transform="matrix(-1.501535, -0.000000000000000184, 0.000000000000000122, -1, 27.324634, 212.125007)" fill-opacity="1" fill="#ffffff" fill-rule="nonzero" stroke-linejoin="round" d="M -2.49977 -1.499993 L -0.499212 0.00000676146 L -2.49977 1.500007 Z M -2.49977 -1.499993 " stroke="#ffffff" stroke-width="1" stroke-opacity="1" stroke-miterlimit="4"/></svg>