<svg xmlns="http://www.w3.org/2000/svg" xmlns:xlink="http://www.w3.org/1999/xlink" width="88" zoomAndPan="magnify" viewBox="0 0 66 104.999996" height="140" preserveAspectRatio="xMidYMid meet" version="1.0"><defs><g/><clipPath id="id1"><path d="M 8.800781 0 L 49.300781 0 L 49.300781 93 L 8.800781 93 Z M 8.800781 0 " clip-rule="nonzero"/></clipPath><clipPath id="id2"><path d="M 8.800781 0.0078125 L 49.300781 0.0078125 L 49.300781 92.992188 L 8.800781 92.992188 Z M 8.800781 0.0078125 " clip-rule="nonzero"/></clipPath><clipPath id="id3"><path d="M 13.261719 5.308594 L 17.761719 5.308594 L 17.761719 9.808594 L 13.261719 9.808594 Z M 13.261719 5.308594 " clip-rule="nonzero"/></clipPath><clipPath id="id4"><path d="M 39.25 5.308594 L 43.75 5.308594 L 43.75 9.808594 L 39.25 9.808594 Z M 39.25 5.308594 " clip-rule="nonzero"/></clipPath><clipPath id="id5"><path d="M 13.261719 84.117188 L 17.761719 84.117188 L 17.761719 88.617188 L 13.261719 88.617188 Z M 13.261719 84.117188 " clip-rule="nonzero"/></clipPath><clipPath id="id6"><path d="M 39.25 84.117188 L 43.75 84.117188 L 43.75 88.617188 L 39.25 88.617188 Z M 39.25 84.117188 " clip-rule="nonzero"/></clipPath></defs><g clip-path="url(#id1)"><path fill="#ffffff" d="M 8.800781 0.0078125 L 49.300781 0.0078125 L 49.300781 92.992188 L 8.800781 92.992188 L 8.800781 0.0078125 " fill-opacity="1" fill-rule="nonzero"/></g><g clip-path="url(#id2)"><path stroke-linecap="butt" transform="matrix(0.750869, 0, 0, 0.748585, 8.800572, 0.00760749)" fill="none" stroke-linejoin="miter" d="M 0.000278577 0.000273867 L 53.937786 0.000273867 L 53.937786 124.213783 L 0.000278577 124.213783 L 0.000278577 0.000273867 " stroke="#ffffff" stroke-width="2" stroke-opacity="1" stroke-miterlimit="4"/></g><g clip-path="url(#id3)"><path fill="#000000" d="M 17.761719 7.558594 C 17.761719 7.859375 17.707031 8.144531 17.589844 8.421875 C 17.476562 8.695312 17.316406 8.9375 17.105469 9.148438 C 16.894531 9.359375 16.648438 9.523438 16.375 9.636719 C 16.097656 9.753906 15.8125 9.808594 15.511719 9.808594 C 15.214844 9.808594 14.925781 9.753906 14.652344 9.636719 C 14.375 9.523438 14.132812 9.359375 13.921875 9.148438 C 13.710938 8.9375 13.546875 8.695312 13.433594 8.421875 C 13.320312 8.144531 13.261719 7.859375 13.261719 7.558594 C 13.261719 7.261719 13.320312 6.972656 13.433594 6.699219 C 13.546875 6.421875 13.710938 6.179688 13.921875 5.96875 C 14.132812 5.757812 14.375 5.59375 14.652344 5.480469 C 14.925781 5.367188 15.214844 5.308594 15.511719 5.308594 C 15.8125 5.308594 16.097656 5.367188 16.375 5.480469 C 16.648438 5.59375 16.894531 5.757812 17.105469 5.96875 C 17.316406 6.179688 17.476562 6.421875 17.589844 6.699219 C 17.707031 6.972656 17.761719 7.261719 17.761719 7.558594 Z M 17.761719 7.558594 " fill-opacity="1" fill-rule="nonzero"/></g><g fill="#ffffff" fill-opacity="1"><g transform="translate(60.48212, 51.089461)"><g><path d="M 1.875 0.078125 C 1.394531 0.078125 1.015625 -0.109375 0.734375 -0.484375 C 0.460938 -0.859375 0.328125 -1.375 0.328125 -2.03125 C 0.328125 -2.695312 0.46875 -3.210938 0.75 -3.578125 C 1.03125 -3.953125 1.414062 -4.140625 1.90625 -4.140625 C 2.414062 -4.140625 2.804688 -3.941406 3.078125 -3.546875 L 3.109375 -3.546875 C 3.054688 -3.847656 3.03125 -4.117188 3.03125 -4.359375 L 3.03125 -5.65625 L 4.140625 -5.65625 L 4.140625 0 L 3.28125 0 L 3.078125 -0.53125 L 3.03125 -0.53125 C 2.769531 -0.125 2.382812 0.078125 1.875 0.078125 Z M 2.265625 -0.8125 C 2.546875 -0.8125 2.75 -0.894531 2.875 -1.0625 C 3.007812 -1.226562 3.082031 -1.507812 3.09375 -1.90625 L 3.09375 -2.015625 C 3.09375 -2.453125 3.023438 -2.765625 2.890625 -2.953125 C 2.765625 -3.148438 2.546875 -3.25 2.234375 -3.25 C 1.992188 -3.25 1.800781 -3.140625 1.65625 -2.921875 C 1.519531 -2.710938 1.453125 -2.410156 1.453125 -2.015625 C 1.453125 -1.609375 1.519531 -1.304688 1.65625 -1.109375 C 1.800781 -0.910156 2.003906 -0.8125 2.265625 -0.8125 Z M 2.265625 -0.8125 "/></g></g></g><g fill="#ffffff" fill-opacity="1"><g transform="translate(52.729936, 92.13419)"><g><path d="M 1.875 0.078125 C 1.394531 0.078125 1.015625 -0.109375 0.734375 -0.484375 C 0.460938 -0.859375 0.328125 -1.375 0.328125 -2.03125 C 0.328125 -2.695312 0.46875 -3.210938 0.75 -3.578125 C 1.03125 -3.953125 1.414062 -4.140625 1.90625 -4.140625 C 2.414062 -4.140625 2.804688 -3.941406 3.078125 -3.546875 L 3.109375 -3.546875 C 3.054688 -3.847656 3.03125 -4.117188 3.03125 -4.359375 L 3.03125 -5.65625 L 4.140625 -5.65625 L 4.140625 0 L 3.28125 0 L 3.078125 -0.53125 L 3.03125 -0.53125 C 2.769531 -0.125 2.382812 0.078125 1.875 0.078125 Z M 2.265625 -0.8125 C 2.546875 -0.8125 2.75 -0.894531 2.875 -1.0625 C 3.007812 -1.226562 3.082031 -1.507812 3.09375 -1.90625 L 3.09375 -2.015625 C 3.09375 -2.453125 3.023438 -2.765625 2.890625 -2.953125 C 2.765625 -3.148438 2.546875 -3.25 2.234375 -3.25 C 1.992188 -3.25 1.800781 -3.140625 1.65625 -2.921875 C 1.519531 -2.710938 1.453125 -2.410156 1.453125 -2.015625 C 1.453125 -1.609375 1.519531 -1.304688 1.65625 -1.109375 C 1.800781 -0.910156 2.003906 -0.8125 2.265625 -0.8125 Z M 2.265625 -0.8125 "/></g></g><g transform="translate(57.445181, 92.13419)"><g><path d="M 1.5 -5.328125 L 1.34375 -3.40625 L 0.640625 -3.40625 L 0.484375 -5.328125 Z M 1.5 -5.328125 "/></g></g></g><g clip-path="url(#id4)"><path fill="#000000" d="M 43.75 7.558594 C 43.75 7.859375 43.695312 8.144531 43.582031 8.421875 C 43.464844 8.695312 43.304688 8.9375 43.09375 9.148438 C 42.882812 9.359375 42.636719 9.523438 42.363281 9.636719 C 42.085938 9.753906 41.800781 9.808594 41.5 9.808594 C 41.203125 9.808594 40.917969 9.753906 40.640625 9.636719 C 40.363281 9.523438 40.121094 9.359375 39.910156 9.148438 C 39.699219 8.9375 39.539062 8.695312 39.421875 8.421875 C 39.308594 8.144531 39.25 7.859375 39.25 7.558594 C 39.25 7.261719 39.308594 6.972656 39.421875 6.699219 C 39.539062 6.421875 39.699219 6.179688 39.910156 5.96875 C 40.121094 5.757812 40.363281 5.59375 40.640625 5.480469 C 40.917969 5.367188 41.203125 5.308594 41.5 5.308594 C 41.800781 5.308594 42.085938 5.367188 42.363281 5.480469 C 42.636719 5.59375 42.882812 5.757812 43.09375 5.96875 C 43.304688 6.179688 43.464844 6.421875 43.582031 6.699219 C 43.695312 6.972656 43.75 7.261719 43.75 7.558594 Z M 43.75 7.558594 " fill-opacity="1" fill-rule="nonzero"/></g><g clip-path="url(#id5)"><path fill="#000000" d="M 17.761719 86.367188 C 17.761719 86.664062 17.707031 86.949219 17.589844 87.226562 C 17.476562 87.503906 17.316406 87.746094 17.105469 87.957031 C 16.894531 88.167969 16.648438 88.332031 16.375 88.445312 C 16.097656 88.558594 15.8125 88.617188 15.511719 88.617188 C 15.214844 88.617188 14.925781 88.558594 14.652344 88.445312 C 14.375 88.332031 14.132812 88.167969 13.921875 87.957031 C 13.710938 87.746094 13.546875 87.503906 13.433594 87.226562 C 13.320312 86.949219 13.261719 86.664062 13.261719 86.367188 C 13.261719 86.066406 13.320312 85.78125 13.433594 85.503906 C 13.546875 85.230469 13.710938 84.984375 13.921875 84.773438 C 14.132812 84.5625 14.375 84.402344 14.652344 84.285156 C 14.925781 84.171875 15.214844 84.117188 15.511719 84.117188 C 15.8125 84.117188 16.097656 84.171875 16.375 84.285156 C 16.648438 84.402344 16.894531 84.5625 17.105469 84.773438 C 17.316406 84.984375 17.476562 85.230469 17.589844 85.503906 C 17.707031 85.78125 17.761719 86.066406 17.761719 86.367188 Z M 17.761719 86.367188 " fill-opacity="1" fill-rule="nonzero"/></g><g clip-path="url(#id6)"><path fill="#000000" d="M 43.75 86.367188 C 43.75 86.664062 43.695312 86.949219 43.582031 87.226562 C 43.464844 87.503906 43.304688 87.746094 43.09375 87.957031 C 42.882812 88.167969 42.636719 88.332031 42.363281 88.445312 C 42.085938 88.558594 41.800781 88.617188 41.5 88.617188 C 41.203125 88.617188 40.917969 88.558594 40.640625 88.445312 C 40.363281 88.332031 40.121094 88.167969 39.910156 87.957031 C 39.699219 87.746094 39.539062 87.503906 39.421875 87.226562 C 39.308594 86.949219 39.25 86.664062 39.25 86.367188 C 39.25 86.066406 39.308594 85.78125 39.421875 85.503906 C 39.539062 85.230469 39.699219 84.984375 39.910156 84.773438 C 40.121094 84.5625 40.363281 84.402344 40.640625 84.285156 C 40.917969 84.171875 41.203125 84.117188 41.5 84.117188 C 41.800781 84.117188 42.085938 84.171875 42.363281 84.285156 C 42.636719 84.402344 42.882812 84.5625 43.09375 84.773438 C 43.304688 84.984375 43.464844 85.230469 43.582031 85.503906 C 43.695312 85.78125 43.75 86.066406 43.75 86.367188 Z M 43.75 86.367188 " fill-opacity="1" fill-rule="nonzero"/></g><g fill="#ffffff" fill-opacity="1"><g transform="translate(0.00000125714, 51.089435)"><g><path d="M 4.34375 0 L 3.234375 0 L 3.234375 -2.375 C 3.234375 -2.957031 3.015625 -3.25 2.578125 -3.25 C 2.265625 -3.25 2.035156 -3.144531 1.890625 -2.9375 C 1.753906 -2.726562 1.6875 -2.390625 1.6875 -1.921875 L 1.6875 0 L 0.578125 0 L 0.578125 -5.65625 L 1.6875 -5.65625 L 1.6875 -4.515625 C 1.6875 -4.421875 1.679688 -4.207031 1.671875 -3.875 L 1.640625 -3.546875 L 1.703125 -3.546875 C 1.953125 -3.941406 2.34375 -4.140625 2.875 -4.140625 C 3.351562 -4.140625 3.71875 -4.007812 3.96875 -3.75 C 4.21875 -3.5 4.34375 -3.132812 4.34375 -2.65625 Z M 4.34375 0 "/></g></g></g><g fill="#ffffff" fill-opacity="1"><g transform="translate(26.67446, 103.261426)"><g><path d="M 2.84375 -4.140625 C 3.320312 -4.140625 3.695312 -3.953125 3.96875 -3.578125 C 4.238281 -3.203125 4.375 -2.691406 4.375 -2.046875 C 4.375 -1.367188 4.234375 -0.84375 3.953125 -0.46875 C 3.679688 -0.101562 3.300781 0.078125 2.8125 0.078125 C 2.332031 0.078125 1.957031 -0.0976562 1.6875 -0.453125 L 1.609375 -0.453125 L 1.4375 0 L 0.578125 0 L 0.578125 -5.65625 L 1.6875 -5.65625 L 1.6875 -4.34375 C 1.6875 -4.175781 1.675781 -3.910156 1.65625 -3.546875 L 1.6875 -3.546875 C 1.945312 -3.941406 2.332031 -4.140625 2.84375 -4.140625 Z M 2.484375 -3.25 C 2.210938 -3.25 2.015625 -3.164062 1.890625 -3 C 1.765625 -2.832031 1.695312 -2.554688 1.6875 -2.171875 L 1.6875 -2.046875 C 1.6875 -1.609375 1.75 -1.296875 1.875 -1.109375 C 2.007812 -0.921875 2.21875 -0.828125 2.5 -0.828125 C 2.726562 -0.828125 2.910156 -0.929688 3.046875 -1.140625 C 3.179688 -1.347656 3.25 -1.65625 3.25 -2.0625 C 3.25 -2.457031 3.179688 -2.753906 3.046875 -2.953125 C 2.910156 -3.148438 2.722656 -3.25 2.484375 -3.25 Z M 2.484375 -3.25 "/></g></g></g><g fill="#000000" fill-opacity="1"><g transform="translate(26.748976, 67.746013)"><g><path d="M 2.890625 0 L 2.609375 -0.9375 L 1.171875 -0.9375 L 0.890625 0 L 0 0 L 1.375 -3.9375 L 2.390625 -3.9375 L 3.78125 0 Z M 2.40625 -1.625 C 2.144531 -2.46875 2 -2.945312 1.96875 -3.0625 C 1.9375 -3.175781 1.910156 -3.265625 1.890625 -3.328125 C 1.835938 -3.097656 1.671875 -2.53125 1.390625 -1.625 Z M 2.40625 -1.625 "/></g></g></g><g fill="#000000" fill-opacity="1"><g transform="translate(26.623448, 27.840995)"><g><path d="M 2.890625 0 L 2.609375 -0.9375 L 1.171875 -0.9375 L 0.890625 0 L 0 0 L 1.375 -3.9375 L 2.390625 -3.9375 L 3.78125 0 Z M 2.40625 -1.625 C 2.144531 -2.46875 2 -2.945312 1.96875 -3.0625 C 1.9375 -3.175781 1.910156 -3.265625 1.890625 -3.328125 C 1.835938 -3.097656 1.671875 -2.53125 1.390625 -1.625 Z M 2.40625 -1.625 "/></g></g><g transform="translate(30.406202, 27.840995)"><g><path d="M 1.109375 -3.921875 L 1 -2.5 L 0.46875 -2.5 L 0.359375 -3.921875 Z M 1.109375 -3.921875 "/></g></g></g><g fill="#000000" fill-opacity="1"><g transform="translate(30.469185, 69.086298)"><g><path d="M 2.09375 -0.8125 C 2.09375 -0.550781 2 -0.34375 1.8125 -0.1875 C 1.625 -0.03125 1.359375 0.046875 1.015625 0.046875 C 0.703125 0.046875 0.425781 -0.015625 0.1875 -0.140625 L 0.1875 -0.71875 C 0.382812 -0.625 0.550781 -0.554688 0.6875 -0.515625 C 0.820312 -0.484375 0.945312 -0.46875 1.0625 -0.46875 C 1.195312 -0.46875 1.300781 -0.492188 1.375 -0.546875 C 1.445312 -0.597656 1.484375 -0.675781 1.484375 -0.78125 C 1.484375 -0.84375 1.46875 -0.894531 1.4375 -0.9375 C 1.40625 -0.976562 1.359375 -1.019531 1.296875 -1.0625 C 1.234375 -1.101562 1.109375 -1.171875 0.921875 -1.265625 C 0.742188 -1.347656 0.609375 -1.425781 0.515625 -1.5 C 0.429688 -1.582031 0.359375 -1.675781 0.296875 -1.78125 C 0.242188 -1.882812 0.21875 -2.003906 0.21875 -2.140625 C 0.21875 -2.398438 0.304688 -2.601562 0.484375 -2.75 C 0.660156 -2.894531 0.90625 -2.96875 1.21875 -2.96875 C 1.363281 -2.96875 1.503906 -2.953125 1.640625 -2.921875 C 1.785156 -2.890625 1.9375 -2.835938 2.09375 -2.765625 L 1.890625 -2.28125 C 1.734375 -2.34375 1.601562 -2.382812 1.5 -2.40625 C 1.394531 -2.4375 1.296875 -2.453125 1.203125 -2.453125 C 1.078125 -2.453125 0.984375 -2.425781 0.921875 -2.375 C 0.859375 -2.320312 0.828125 -2.25 0.828125 -2.15625 C 0.828125 -2.101562 0.835938 -2.054688 0.859375 -2.015625 C 0.890625 -1.972656 0.929688 -1.929688 0.984375 -1.890625 C 1.046875 -1.859375 1.179688 -1.789062 1.390625 -1.6875 C 1.660156 -1.5625 1.84375 -1.429688 1.9375 -1.296875 C 2.039062 -1.171875 2.09375 -1.007812 2.09375 -0.8125 Z M 2.09375 -0.8125 "/></g></g></g><g fill="#000000" fill-opacity="1"><g transform="translate(31.02981, 28.837327)"><g><path d="M 2.09375 -0.8125 C 2.09375 -0.550781 2 -0.34375 1.8125 -0.1875 C 1.625 -0.03125 1.359375 0.046875 1.015625 0.046875 C 0.703125 0.046875 0.425781 -0.015625 0.1875 -0.140625 L 0.1875 -0.71875 C 0.382812 -0.625 0.550781 -0.554688 0.6875 -0.515625 C 0.820312 -0.484375 0.945312 -0.46875 1.0625 -0.46875 C 1.195312 -0.46875 1.300781 -0.492188 1.375 -0.546875 C 1.445312 -0.597656 1.484375 -0.675781 1.484375 -0.78125 C 1.484375 -0.84375 1.46875 -0.894531 1.4375 -0.9375 C 1.40625 -0.976562 1.359375 -1.019531 1.296875 -1.0625 C 1.234375 -1.101562 1.109375 -1.171875 0.921875 -1.265625 C 0.742188 -1.347656 0.609375 -1.425781 0.515625 -1.5 C 0.429688 -1.582031 0.359375 -1.675781 0.296875 -1.78125 C 0.242188 -1.882812 0.21875 -2.003906 0.21875 -2.140625 C 0.21875 -2.398438 0.304688 -2.601562 0.484375 -2.75 C 0.660156 -2.894531 0.90625 -2.96875 1.21875 -2.96875 C 1.363281 -2.96875 1.503906 -2.953125 1.640625 -2.921875 C 1.785156 -2.890625 1.9375 -2.835938 2.09375 -2.765625 L 1.890625 -2.28125 C 1.734375 -2.34375 1.601562 -2.382812 1.5 -2.40625 C 1.394531 -2.4375 1.296875 -2.453125 1.203125 -2.453125 C 1.078125 -2.453125 0.984375 -2.425781 0.921875 -2.375 C 0.859375 -2.320312 0.828125 -2.25 0.828125 -2.15625 C 0.828125 -2.101562 0.835938 -2.054688 0.859375 -2.015625 C 0.890625 -1.972656 0.929688 -1.929688 0.984375 -1.890625 C 1.046875 -1.859375 1.179688 -1.789062 1.390625 -1.6875 C 1.660156 -1.5625 1.84375 -1.429688 1.9375 -1.296875 C 2.039062 -1.171875 2.09375 -1.007812 2.09375 -0.8125 Z M 2.09375 -0.8125 "/></g></g></g><path fill="#000000" d="M 30.179688 22.53125 L 30.621094 21.933594 L 31.226562 22.378906 L 30.785156 22.976562 M 31.0625 21.335938 L 31.503906 20.738281 L 32.105469 21.183594 L 31.664062 21.78125 M 31.945312 20.140625 L 32.386719 19.542969 L 32.988281 19.988281 L 32.546875 20.585938 M 32.824219 18.945312 L 33.265625 18.347656 L 33.871094 18.792969 L 33.429688 19.390625 M 33.707031 17.75 L 34.148438 17.152344 L 34.753906 17.597656 L 34.3125 18.195312 M 34.589844 16.554688 L 35.03125 15.957031 L 35.632812 16.402344 L 35.191406 17 M 35.472656 15.359375 L 35.914062 14.761719 L 36.515625 15.207031 L 36.074219 15.804688 M 36.351562 14.164062 L 36.792969 13.566406 L 37.398438 14.011719 L 36.957031 14.609375 M 37.234375 12.96875 L 37.675781 12.371094 L 38.28125 12.816406 L 37.839844 13.414062 M 38.117188 11.773438 L 38.558594 11.171875 L 39.160156 11.617188 L 38.71875 12.214844 M 39 10.574219 L 39.441406 9.976562 L 40.042969 10.421875 L 39.601562 11.019531 " fill-opacity="1" fill-rule="nonzero"/><path fill="#000000" d="M 17.726562 9.71875 L 18.203125 10.277344 L 17.632812 10.761719 L 17.15625 10.203125 M 18.679688 10.835938 L 19.15625 11.398438 L 18.585938 11.882812 L 18.109375 11.324219 M 19.632812 11.957031 L 20.109375 12.515625 L 19.539062 13.003906 L 19.0625 12.441406 M 20.585938 13.074219 L 21.066406 13.636719 L 20.492188 14.121094 L 20.015625 13.5625 M 21.542969 14.195312 L 22.019531 14.753906 L 21.449219 15.242188 L 20.96875 14.683594 M 22.496094 15.316406 L 22.972656 15.875 L 22.402344 16.359375 L 21.925781 15.800781 M 23.449219 16.433594 L 23.925781 16.996094 L 23.355469 17.480469 L 22.878906 16.921875 M 24.402344 17.554688 L 24.878906 18.113281 L 24.308594 18.601562 L 23.832031 18.039062 M 25.355469 18.671875 L 25.832031 19.234375 L 25.261719 19.71875 L 24.785156 19.160156 M 26.3125 19.792969 L 26.789062 20.351562 L 26.214844 20.839844 L 25.738281 20.28125 M 27.265625 20.914062 L 27.742188 21.472656 L 27.171875 21.957031 L 26.695312 21.398438 M 28.21875 22.03125 L 28.429688 22.28125 L 27.859375 22.769531 L 27.648438 22.519531 " fill-opacity="1" fill-rule="nonzero"/><path fill="#000000" d="M 28.65625 69.175781 L 28.210938 69.78125 L 27.609375 69.332031 L 28.054688 68.730469 M 27.765625 70.382812 L 27.320312 70.984375 L 26.71875 70.535156 L 27.164062 69.933594 M 26.875 71.585938 L 26.429688 72.1875 L 25.828125 71.738281 L 26.273438 71.136719 M 25.984375 72.789062 L 25.539062 73.390625 L 24.9375 72.945312 L 25.382812 72.34375 M 25.09375 73.992188 L 24.648438 74.59375 L 24.046875 74.148438 L 24.492188 73.546875 M 24.203125 75.195312 L 23.757812 75.796875 L 23.15625 75.351562 L 23.601562 74.75 M 23.3125 76.398438 L 22.867188 77 L 22.265625 76.554688 L 22.710938 75.953125 M 22.421875 77.601562 L 21.976562 78.203125 L 21.375 77.757812 L 21.820312 77.15625 M 21.53125 78.804688 L 21.085938 79.40625 L 20.484375 78.960938 L 20.929688 78.359375 M 20.640625 80.007812 L 20.195312 80.609375 L 19.59375 80.164062 L 20.039062 79.5625 M 19.75 81.210938 L 19.304688 81.8125 L 18.703125 81.367188 L 19.148438 80.765625 M 18.859375 82.414062 L 18.414062 83.019531 L 17.8125 82.570312 L 18.257812 81.96875 M 17.96875 83.621094 L 17.523438 84.222656 L 16.921875 83.773438 L 17.367188 83.171875 " fill-opacity="1" fill-rule="nonzero"/><path fill="#000000" d="M 39.832031 84.261719 L 39.429688 83.625 L 40.058594 83.222656 L 40.464844 83.855469 M 39.023438 82.992188 L 38.617188 82.355469 L 39.25 81.953125 L 39.652344 82.585938 M 38.210938 81.722656 L 37.804688 81.089844 L 38.4375 80.683594 L 38.84375 81.320312 M 37.398438 80.453125 L 36.992188 79.820312 L 37.625 79.414062 L 38.03125 80.050781 M 36.589844 79.183594 L 36.183594 78.550781 L 36.8125 78.148438 L 37.21875 78.78125 M 35.777344 77.917969 L 35.371094 77.28125 L 36.003906 76.878906 L 36.410156 77.511719 M 34.964844 76.648438 L 34.558594 76.015625 L 35.191406 75.609375 L 35.597656 76.242188 M 34.152344 75.378906 L 33.75 74.746094 L 34.378906 74.339844 L 34.785156 74.976562 M 33.34375 74.109375 L 32.9375 73.476562 L 33.570312 73.074219 L 33.972656 73.707031 M 32.53125 72.84375 L 32.125 72.207031 L 32.757812 71.804688 L 33.164062 72.4375 M 31.71875 71.574219 L 31.3125 70.9375 L 31.945312 70.535156 L 32.351562 71.167969 M 30.910156 70.304688 L 30.503906 69.671875 L 31.132812 69.265625 L 31.539062 69.902344 " fill-opacity="1" fill-rule="nonzero"/><path stroke-linecap="butt" transform="matrix(0.000000000000000048, -0.782609, 0.75, 0.000000000000000046, 51.114621, 92.879764)" fill="none" stroke-linejoin="miter" d="M 2.751313 -0.00178657 L 5.890853 -0.00178657 " stroke="#ffffff" stroke-width="1" stroke-opacity="1" stroke-miterlimit="4"/><path stroke-linecap="round" transform="matrix(0.000000000000000048, -0.782609, 0.75, 0.000000000000000046, 51.114621, 92.879764)" fill-opacity="1" fill="#ffffff" fill-rule="nonzero" stroke-linejoin="round" d="M 2.501747 -1.501787 L 0.500227 -0.00178657 L 2.501747 1.498214 Z M 2.501747 -1.501787 " stroke="#ffffff" stroke-width="1" stroke-opacity="1" stroke-miterlimit="4"/><path stroke-linecap="round" transform="matrix(0.000000000000000048, -0.782609, 0.75, 0.000000000000000046, 51.114621, 86.119079)" fill-opacity="1" fill="#ffffff" fill-rule="nonzero" stroke-linejoin="round" d="M -2.498234 -1.501787 L -0.501706 -0.00178657 L -2.498234 1.498214 Z M -2.498234 -1.501787 " stroke="#ffffff" stroke-width="1" stroke-opacity="1" stroke-miterlimit="4"/><path stroke-linecap="butt" transform="matrix(0.000000000000000046, -0.749384, 0.75, 0.000000000000000046, 59.74648, 93.542094)" fill="none" stroke-linejoin="miter" d="M 2.751094 -0.000514589 L 111.355968 -0.000514589 " stroke="#ffffff" stroke-width="1" stroke-opacity="1" stroke-miterlimit="4"/><path stroke-linecap="round" transform="matrix(0.000000000000000046, -0.749384, 0.75, 0.000000000000000046, 59.74648, 93.542094)" fill-opacity="1" fill="#ffffff" fill-rule="nonzero" stroke-linejoin="round" d="M 2.500889 -1.500515 L 0.499244 -0.000514589 L 2.500889 1.499486 Z M 2.500889 -1.500515 " stroke="#ffffff" stroke-width="1" stroke-opacity="1" stroke-miterlimit="4"/><path stroke-linecap="round" transform="matrix(0.000000000000000046, -0.749384, 0.75, 0.000000000000000046, 59.74648, 8.033731)" fill-opacity="1" fill="#ffffff" fill-rule="nonzero" stroke-linejoin="round" d="M -2.498746 -1.500515 L -0.502313 -0.000514589 L -2.498746 1.499486 Z M -2.498746 -1.500515 " stroke="#ffffff" stroke-width="1" stroke-opacity="1" stroke-miterlimit="4"/><path stroke-linecap="butt" transform="matrix(0.000000000000000046, -0.750946, 0.75, 0.000000000000000046, 5.654384, 92.883733)" fill="none" stroke-linejoin="miter" d="M 2.747761 0.00248831 L 121.103642 0.00248831 " stroke="#ffffff" stroke-width="1" stroke-opacity="1" stroke-miterlimit="4"/><path stroke-linecap="round" transform="matrix(0.000000000000000046, -0.750946, 0.75, 0.000000000000000046, 5.654384, 92.883733)" fill-opacity="1" fill="#ffffff" fill-rule="nonzero" stroke-linejoin="round" d="M 2.498076 -1.497512 L 0.500596 0.00248831 L 2.498076 1.502488 Z M 2.498076 -1.497512 " stroke="#ffffff" stroke-width="1" stroke-opacity="1" stroke-miterlimit="4"/><path stroke-linecap="round" transform="matrix(0.000000000000000046, -0.750946, 0.75, 0.000000000000000046, 5.654384, -0.123401)" fill-opacity="1" fill="#ffffff" fill-rule="nonzero" stroke-linejoin="round" d="M -2.499922 -1.497512 L -0.502443 0.00248831 L -2.499922 1.502488 Z M -2.499922 -1.497512 " stroke="#ffffff" stroke-width="1" stroke-opacity="1" stroke-miterlimit="4"/><path stroke-linecap="butt" transform="matrix(-0.750869, -0.000000000000000092, 0.000000000000000092, -0.75, 49.25369, 96.743012)" fill="none" stroke-linejoin="miter" d="M 2.751732 0.00109944 L 51.200804 0.00109944 " stroke="#ffffff" stroke-width="1" stroke-opacity="1" stroke-miterlimit="4"/><path stroke-linecap="round" transform="matrix(-0.750869, -0.000000000000000092, 0.000000000000000092, -0.75, 49.25369, 96.743012)" fill-opacity="1" fill="#ffffff" fill-rule="nonzero" stroke-linejoin="round" d="M 2.502021 -1.498901 L 0.499134 0.00109944 L 2.502021 1.5011 Z M 2.502021 -1.498901 " stroke="#ffffff" stroke-width="1" stroke-opacity="1" stroke-miterlimit="4"/><path stroke-linecap="round" transform="matrix(-0.750869, -0.000000000000000092, 0.000000000000000092, -0.75, 8.743934, 96.743012)" fill-opacity="1" fill="#ffffff" fill-rule="nonzero" stroke-linejoin="round" d="M -2.499983 -1.498901 L -0.502298 0.00109944 L -2.499983 1.5011 Z M -2.499983 -1.498901 " stroke="#ffffff" stroke-width="1" stroke-opacity="1" stroke-miterlimit="4"/></svg>