<svg xmlns="http://www.w3.org/2000/svg" xmlns:xlink="http://www.w3.org/1999/xlink" width="50" zoomAndPan="magnify" viewBox="0 0 37.5 37.499999" height="50" preserveAspectRatio="xMidYMid meet" version="1.0"><defs><clipPath id="id1"><path d="M 0.265625 2.652344 L 37 2.652344 L 37 34.902344 L 0.265625 34.902344 Z M 0.265625 2.652344 " clip-rule="nonzero"/></clipPath></defs><g clip-path="url(#id1)"><path fill="#991010" d="M 16.472656 4.078125 C 14.527344 7.503906 9.726562 16.074219 5.867188 22.960938 L 0.757812 32.0625 C 0.300781 32.878906 0.472656 33.523438 0.613281 33.835938 C 0.902344 34.464844 1.519531 34.78125 2.003906 34.867188 L 2.101562 34.882812 L 35.054688 34.882812 L 34.984375 34.878906 C 35.5 34.914062 36.1875 34.726562 36.5625 34.101562 C 36.800781 33.703125 36.976562 33.027344 36.429688 32.0625 L 26.226562 14.101562 L 20.582031 4.164062 C 19.871094 2.917969 19.050781 2.65625 18.488281 2.65625 C 17.9375 2.65625 17.140625 2.902344 16.472656 4.078125 Z M 7.875 24.140625 C 11.734375 17.253906 16.535156 8.6875 18.476562 5.269531 L 18.5 5.230469 C 18.523438 5.269531 18.546875 5.304688 18.578125 5.355469 L 24.222656 15.292969 C 24.222656 15.292969 33.234375 31.15625 34.003906 32.511719 L 3.179688 32.511719 L 7.875 24.140625 " fill-opacity="1" fill-rule="evenodd"/></g><path fill="#991010" d="M 18.628906 30.792969 C 19.625 30.792969 20.433594 29.949219 20.433594 28.90625 C 20.433594 27.867188 19.625 27.023438 18.628906 27.023438 C 17.628906 27.023438 16.816406 27.867188 16.816406 28.90625 C 16.816406 29.949219 17.628906 30.792969 18.628906 30.792969 " fill-opacity="1" fill-rule="evenodd"/><path fill="#991010" d="M 18.628906 12.332031 C 20.070312 12.332031 21.394531 13.703125 21.238281 15.050781 L 20.003906 24.53125 C 19.882812 25.359375 19.386719 25.964844 18.625 25.964844 C 17.867188 25.964844 17.371094 25.359375 17.25 24.53125 L 16.015625 15.050781 C 15.859375 13.703125 17.183594 12.332031 18.628906 12.332031 " fill-opacity="1" fill-rule="evenodd"/></svg>