<svg xmlns="http://www.w3.org/2000/svg" xmlns:xlink="http://www.w3.org/1999/xlink" width="50" zoomAndPan="magnify" viewBox="0 0 37.5 37.499999" height="50" preserveAspectRatio="xMidYMid meet" version="1.0"><defs><clipPath id="id1"><path d="M 4.421875 2.207031 L 36.191406 2.207031 L 36.191406 30.101562 L 4.421875 30.101562 Z M 4.421875 2.207031 " clip-rule="nonzero"/></clipPath><clipPath id="id2"><path d="M 0.945312 3.6875 L 32.171875 3.6875 L 32.171875 35.195312 L 0.945312 35.195312 Z M 0.945312 3.6875 " clip-rule="nonzero"/></clipPath></defs><g clip-path="url(#id1)"><path fill="#35adb1" d="M 36.023438 2.625 C 35.523438 2.496094 35.019531 2.363281 34.515625 2.230469 C 34.476562 2.210938 34.429688 2.199219 34.371094 2.210938 C 34.347656 2.214844 34.324219 2.222656 34.300781 2.230469 C 34.203125 2.261719 34.109375 2.296875 34.011719 2.335938 C 33.683594 2.457031 33.363281 2.589844 33.042969 2.734375 C 32.566406 2.949219 32.097656 3.183594 31.636719 3.429688 C 31.019531 3.765625 30.417969 4.121094 29.832031 4.503906 C 29.101562 4.976562 28.394531 5.484375 27.710938 6.015625 C 26.914062 6.636719 26.152344 7.296875 25.425781 7.988281 C 24.589844 8.78125 23.796875 9.621094 23.050781 10.488281 C 22.207031 11.476562 21.417969 12.507812 20.6875 13.570312 C 19.863281 14.769531 19.113281 16.011719 18.433594 17.285156 C 17.667969 18.71875 16.992188 20.191406 16.390625 21.691406 C 16.277344 21.984375 16.160156 22.277344 16.050781 22.570312 C 15.664062 22.265625 15.277344 21.964844 14.890625 21.660156 C 13.878906 20.863281 12.863281 20.066406 11.847656 19.269531 C 10.917969 18.539062 9.984375 17.804688 9.054688 17.074219 C 8.816406 16.886719 8.582031 16.703125 8.34375 16.515625 C 8.28125 16.46875 8.230469 16.421875 8.15625 16.394531 C 7.921875 16.304688 7.675781 16.1875 7.433594 16.125 C 7.339844 16.101562 7.222656 16.136719 7.128906 16.148438 C 6.964844 16.175781 6.800781 16.199219 6.636719 16.226562 C 6.535156 16.242188 6.394531 16.242188 6.308594 16.300781 C 6.261719 16.335938 6.242188 16.378906 6.210938 16.425781 C 5.949219 16.855469 5.691406 17.289062 5.429688 17.71875 C 5.136719 18.199219 4.847656 18.679688 4.554688 19.15625 C 4.488281 19.269531 4.410156 19.363281 4.433594 19.5 C 4.460938 19.65625 4.492188 19.8125 4.523438 19.96875 C 4.640625 20.570312 4.757812 21.167969 4.875 21.769531 C 4.910156 21.953125 4.9375 22.140625 4.984375 22.324219 C 5.007812 22.433594 5.085938 22.488281 5.191406 22.527344 C 5.285156 22.5625 5.378906 22.597656 5.46875 22.632812 C 5.5 22.644531 5.535156 22.65625 5.566406 22.667969 C 5.585938 22.675781 5.601562 22.683594 5.621094 22.691406 C 5.628906 22.695312 5.636719 22.695312 5.648438 22.699219 C 5.648438 22.703125 5.652344 22.703125 5.652344 22.703125 C 5.742188 22.738281 5.835938 22.773438 5.929688 22.8125 C 6.449219 23.019531 6.96875 23.238281 7.484375 23.464844 C 9.027344 24.144531 10.535156 24.890625 11.992188 25.722656 C 13.703125 26.695312 15.355469 27.785156 16.820312 29.066406 C 17.171875 29.371094 17.511719 29.6875 17.835938 30.019531 C 17.949219 30.132812 18.179688 30.078125 18.21875 29.925781 C 18.261719 29.734375 18.3125 29.539062 18.367188 29.347656 C 18.507812 28.816406 18.664062 28.285156 18.828125 27.757812 C 19.082031 26.953125 19.351562 26.152344 19.636719 25.359375 C 20.003906 24.347656 20.398438 23.351562 20.816406 22.359375 C 21.304688 21.222656 21.824219 20.101562 22.390625 18.996094 C 23.007812 17.78125 23.675781 16.589844 24.402344 15.425781 C 25.15625 14.214844 25.972656 13.035156 26.859375 11.902344 C 27.761719 10.75 28.738281 9.644531 29.800781 8.617188 C 30.863281 7.582031 32.011719 6.621094 33.253906 5.773438 C 33.878906 5.347656 34.527344 4.945312 35.199219 4.578125 C 35.351562 4.496094 35.582031 4.417969 35.65625 4.261719 C 35.679688 4.207031 35.695312 4.152344 35.71875 4.097656 C 35.816406 3.847656 35.910156 3.597656 36.007812 3.347656 C 36.066406 3.191406 36.125 3.039062 36.183594 2.886719 C 36.226562 2.777344 36.136719 2.65625 36.023438 2.625 " fill-opacity="1" fill-rule="nonzero"/></g><g clip-path="url(#id2)"><path fill="#35adb1" d="M 29.121094 10.109375 C 28.496094 10.78125 27.882812 11.5 27.296875 12.25 C 27.28125 12.269531 27.261719 12.292969 27.246094 12.3125 C 28.59375 14.359375 29.378906 16.816406 29.378906 19.453125 C 29.378906 26.585938 23.628906 32.386719 16.554688 32.386719 C 9.484375 32.386719 3.730469 26.585938 3.730469 19.453125 C 3.730469 12.320312 9.484375 6.515625 16.554688 6.515625 C 19.25 6.515625 21.757812 7.359375 23.824219 8.800781 C 24.222656 8.378906 24.632812 7.972656 25.042969 7.578125 C 25.316406 7.320312 25.59375 7.066406 25.875 6.816406 C 24.875 6.066406 23.789062 5.4375 22.632812 4.945312 C 20.707031 4.125 18.660156 3.707031 16.554688 3.707031 C 14.449219 3.707031 12.402344 4.125 10.476562 4.945312 C 8.617188 5.738281 6.949219 6.871094 5.515625 8.320312 C 4.082031 9.765625 2.957031 11.449219 2.171875 13.324219 C 1.355469 15.265625 0.945312 17.328125 0.945312 19.453125 C 0.945312 21.578125 1.355469 23.636719 2.171875 25.582031 C 2.957031 27.457031 4.082031 29.140625 5.515625 30.585938 C 6.949219 32.03125 8.617188 33.164062 10.476562 33.957031 C 12.402344 34.78125 14.449219 35.195312 16.554688 35.195312 C 18.660156 35.195312 20.707031 34.78125 22.632812 33.957031 C 24.492188 33.164062 26.160156 32.03125 27.59375 30.585938 C 29.027344 29.140625 30.152344 27.457031 30.9375 25.582031 C 31.753906 23.636719 32.167969 21.578125 32.167969 19.453125 C 32.167969 17.328125 31.753906 15.265625 30.9375 13.324219 C 30.457031 12.175781 29.851562 11.101562 29.121094 10.109375 " fill-opacity="1" fill-rule="nonzero"/></g></svg>